<?xml version="1.0" encoding="utf-8"?>
<!-- Generator: Adobe Illustrator 19.2.1, SVG Export Plug-In . SVG Version: 6.00 Build 0)  -->
<svg version="1.1" id="Layer_1" xmlns="http://www.w3.org/2000/svg" xmlns:xlink="http://www.w3.org/1999/xlink" x="0px" y="0px"
	 viewBox="0 0 29.7 7.6" style="enable-background:new 0 0 29.7 7.6;" xml:space="preserve">
<style type="text/css">
	.st0{fill:#181818;}
</style>
<g>
	<path class="st0" d="M27.7,7.6c-0.4,0-0.8-0.1-1.2-0.4l-4.2-3.1L19,6.5c0,0-0.1,0-0.1,0.1c-1.3,0.9-3.1,0.8-4.3-0.1l-3.2-2.4
		l-3,2.3c0,0-0.1,0-0.1,0.1c-1.2,0.9-3,0.8-4.1-0.1L0.8,3.9C-0.1,3.3-0.3,2,0.4,1.1C1,0.2,2.3,0,3.2,0.7L6.3,3l3-2.3
		c1.1-0.9,2.9-1,4.2-0.1c0,0,0.1,0,0.1,0.1L17,3.1l3.3-2.4c1.1-0.9,2.9-0.9,4.2-0.1c0,0,0.1,0,0.1,0.1L28.9,4
		c0.9,0.7,1.1,1.9,0.4,2.8C28.9,7.3,28.3,7.6,27.7,7.6z M22.7,3.9L22.7,3.9C22.6,3.9,22.6,3.9,22.7,3.9z M11.9,3.9L11.9,3.9
		C11.8,3.9,11.8,3.9,11.9,3.9z M17.2,3.3L17.2,3.3L17.2,3.3z M6.6,3.2L6.6,3.2L6.6,3.2z"/>
</g>
</svg>
