<?xml version="1.0" encoding="utf-8"?>
<!-- Generator: Adobe Illustrator 19.2.1, SVG Export Plug-In . SVG Version: 6.00 Build 0)  -->
<svg version="1.1" id="Layer_1" xmlns="http://www.w3.org/2000/svg" xmlns:xlink="http://www.w3.org/1999/xlink" x="0px" y="0px"
	 viewBox="0 0 7.6 29.7" style="enable-background:new 0 0 7.6 29.7;" xml:space="preserve">
<style type="text/css">
	.st0{fill:#FFFFFF;}
</style>
<g>
	<path class="st0" d="M7.6,2c0,0.4-0.1,0.8-0.4,1.2L4.1,7.4l2.4,3.3c0,0,0,0.1,0.1,0.1C7.5,12,7.4,13.8,6.5,15l-2.4,3.2l2.3,3
		c0,0,0,0.1,0.1,0.1c0.9,1.3,0.8,3.1-0.1,4.3l-2.5,3.3C3.3,29.8,2,30,1.1,29.3c-0.9-0.7-1.1-1.9-0.4-2.8L3,23.4l-2.3-3
		c-0.9-1.1-1-2.9-0.1-4.2c0,0,0-0.1,0.1-0.1l2.4-3.3L0.7,9.5c-0.9-1.1-0.9-2.9-0.1-4.2c0,0,0-0.1,0.1-0.1L4,0.8
		c0.7-0.9,1.9-1.1,2.8-0.4C7.3,0.8,7.6,1.4,7.6,2z M3.9,7L3.9,7C3.9,7.1,3.9,7.1,3.9,7z M3.9,17.9L3.9,17.9
		C3.9,17.9,3.9,17.9,3.9,17.9z M3.3,12.5L3.3,12.5C3.3,12.5,3.3,12.5,3.3,12.5z M3.2,23.1L3.2,23.1C3.2,23.1,3.2,23.1,3.2,23.1z"/>
</g>
</svg>
