<?xml version="1.0" encoding="utf-8"?>
<!-- Generator: Adobe Illustrator 19.2.1, SVG Export Plug-In . SVG Version: 6.00 Build 0)  -->
<svg version="1.1" id="Layer_1" xmlns="http://www.w3.org/2000/svg" xmlns:xlink="http://www.w3.org/1999/xlink" x="0px" y="0px"
	 viewBox="0 0 17.3 52.3" style="enable-background:new 0 0 17.3 52.3;" xml:space="preserve">
<style type="text/css">
	.st0{fill:#231F20;}
</style>
<g>
	<g>
		<path class="st0" d="M16.4,47.1l-5.3,4c-0.7,0.5-1.5,0.8-2.4,0.8c-0.8,0-1.7-0.3-2.4-0.8l-5.4-4c-0.9-0.7-1.1-1.9-0.4-2.8
			c0.7-0.9,1.9-1.1,2.8-0.4l3.2,2.4V27.7c0-0.4,0.1-0.8,0.4-1.2l3.1-4.2l-2.4-3.2c-1-1.3-1-3,0-4.3l2.4-3.3L7.9,8.5
			c-1-1.3-1-3,0-4.3l2.5-3.3c0.7-0.9,1.9-1.1,2.8-0.4C14,1,14.2,2.3,13.5,3.2l-2.3,3.1l2.3,3.1c0.9,1.3,0.9,3,0,4.3L11.1,17l2.4,3.2
			c1,1.3,1,3,0,4.3l-2.9,3.9v18.1l3.4-2.6c0.9-0.7,2.1-0.5,2.8,0.4C17.4,45.2,17.3,46.5,16.4,47.1z"/>
	</g>
</g>
</svg>
