<?xml version="1.0" encoding="utf-8"?>
<!-- Generator: Adobe Illustrator 19.2.1, SVG Export Plug-In . SVG Version: 6.00 Build 0)  -->
<svg version="1.1" id="Layer_1" xmlns="http://www.w3.org/2000/svg" xmlns:xlink="http://www.w3.org/1999/xlink" x="0px" y="0px"
	 viewBox="0 0 162.7 63.9" style="enable-background:new 0 0 162.7 63.9;" xml:space="preserve">
<style type="text/css">
	.st0{fill:#FFFFFF;}
</style>
<g>
	<g>
		<path class="st0" d="M132.8,24c-2.3,0-4.5-0.7-6.5-2.2L110.1,9.8c-1.7-1.3-4-1.3-5.8,0l-16.1,12c-3.9,2.9-9.1,2.9-12.9,0L58.2,9
			c-1.7-1.3-4-1.3-5.8,0L35.6,21.5c-3.9,2.9-9.1,2.9-12.9,0L1.2,5.5c-1.3-1-1.6-2.9-0.6-4.2c1-1.3,2.9-1.6,4.2-0.6l21.5,16
			c1.7,1.3,4,1.3,5.8,0L48.8,4.2c3.9-2.9,9.1-2.9,12.9,0l17.1,12.7c1.7,1.3,4,1.3,5.8,0l16.1-12c3.9-2.9,9.1-2.9,12.9,0l16.3,12.1
			c1.7,1.3,4,1.3,5.8,0l22.2-16.5c1.3-1,3.2-0.7,4.2,0.6c1,1.3,0.7,3.2-0.6,4.2l-22.2,16.5C137.4,23.3,135.1,24,132.8,24z"/>
	</g>
	<g>
		<path class="st0" d="M132.8,44c-2.3,0-4.5-0.7-6.5-2.2l-16.3-12.1c-1.7-1.3-4-1.3-5.8,0l-16.1,12c-3.9,2.9-9.1,2.9-12.9,0L58.2,29
			c-1.7-1.3-4-1.3-5.8,0L35.6,41.4c-3.9,2.9-9.1,2.9-12.9,0l-21.5-16c-1.3-1-1.6-2.9-0.6-4.2c1-1.3,2.9-1.6,4.2-0.6l21.5,16
			c1.7,1.3,4,1.3,5.8,0l16.8-12.5c3.9-2.9,9.1-2.9,12.9,0l17.1,12.7c1.7,1.3,4,1.3,5.8,0l16.1-12c3.9-2.9,9.1-2.9,12.9,0L129.9,37
			c1.7,1.3,4,1.3,5.8,0l22.2-16.5c1.3-1,3.2-0.7,4.2,0.6c1,1.3,0.7,3.2-0.6,4.2l-22.2,16.5C137.4,43.3,135.1,44,132.8,44z"/>
	</g>
	<g>
		<path class="st0" d="M132.8,63.9c-2.3,0-4.5-0.7-6.5-2.2l-16.3-12.1c-1.7-1.3-4-1.3-5.8,0l-16.1,12c-3.9,2.9-9.1,2.9-12.9,0
			L58.2,48.9c-1.7-1.3-4-1.3-5.8,0L35.6,61.4c-3.9,2.9-9.1,2.9-12.9,0l-21.5-16c-1.3-1-1.6-2.9-0.6-4.2c1-1.3,2.9-1.6,4.2-0.6
			l21.5,16c1.7,1.3,4,1.3,5.8,0l16.8-12.5c3.9-2.9,9.1-2.9,12.9,0l17.1,12.7c1.7,1.3,4,1.3,5.8,0l16.1-12c3.9-2.9,9.1-2.9,12.9,0
			L129.9,57c1.7,1.3,4,1.3,5.8,0l22.2-16.5c1.3-1,3.2-0.7,4.2,0.6c1,1.3,0.7,3.2-0.6,4.2l-22.2,16.5
			C137.4,63.2,135.1,63.9,132.8,63.9z"/>
	</g>
</g>
</svg>
