<?xml version="1.0" encoding="utf-8"?>
<!-- Generator: Adobe Illustrator 19.2.1, SVG Export Plug-In . SVG Version: 6.00 Build 0)  -->
<svg version="1.1" id="Layer_1" xmlns="http://www.w3.org/2000/svg" xmlns:xlink="http://www.w3.org/1999/xlink" x="0px" y="0px"
	 viewBox="0 0 63.9 162.7" style="enable-background:new 0 0 63.9 162.7;" xml:space="preserve">
<style type="text/css">
	.st0{fill:#FFFFFF;}
</style>
<g>
	<g>
		<path class="st0" d="M24,29.9c0,2.3-0.7,4.5-2.2,6.5l-12,16.2c-1.3,1.7-1.3,4,0,5.8l12,16.1c2.9,3.9,2.9,9.1,0,12.9L9,104.5
			c-1.3,1.7-1.3,4,0,5.8l12.5,16.8c2.9,3.9,2.9,9.1,0,12.9l-16,21.5c-1,1.3-2.9,1.6-4.2,0.6s-1.6-2.9-0.6-4.2l16-21.5
			c1.3-1.7,1.3-4,0-5.8L4.2,113.9c-2.9-3.9-2.9-9.1,0-12.9l12.7-17.1c1.3-1.7,1.3-4,0-5.8L4.9,62C2,58.1,2,52.9,4.9,49.1L17,32.8
			c1.3-1.7,1.3-4,0-5.8L0.5,4.8c-1-1.3-0.7-3.2,0.6-4.2s3.2-0.7,4.2,0.6l16.5,22.2C23.3,25.3,24,27.6,24,29.9z"/>
	</g>
	<g>
		<path class="st0" d="M44,29.9c0,2.3-0.7,4.5-2.2,6.5L29.7,52.7c-1.3,1.7-1.3,4,0,5.8l12,16.1c2.9,3.9,2.9,9.1,0,12.9l-12.7,17
			c-1.3,1.7-1.3,4,0,5.8l12.4,16.8c2.9,3.9,2.9,9.1,0,12.9l-16,21.5c-1,1.3-2.9,1.6-4.2,0.6c-1.3-1-1.6-2.9-0.6-4.2l16-21.5
			c1.3-1.7,1.3-4,0-5.8l-12.5-16.8c-2.9-3.9-2.9-9.1,0-12.9l12.7-17.1c1.3-1.7,1.3-4,0-5.8l-12-16.1c-2.9-3.9-2.9-9.1,0-12.9
			L37,32.8c1.3-1.7,1.3-4,0-5.8L20.5,4.8c-1-1.3-0.7-3.2,0.6-4.2c1.3-1,3.2-0.7,4.2,0.6l16.5,22.2C43.3,25.3,44,27.6,44,29.9z"/>
	</g>
	<g>
		<path class="st0" d="M63.9,29.9c0,2.3-0.7,4.5-2.2,6.5L49.6,52.7c-1.3,1.7-1.3,4,0,5.8l12,16.1c2.9,3.9,2.9,9.1,0,12.9l-12.7,17
			c-1.3,1.7-1.3,4,0,5.8l12.5,16.8c2.9,3.9,2.9,9.1,0,12.9l-16,21.5c-1,1.3-2.9,1.6-4.2,0.6s-1.6-2.9-0.6-4.2l16-21.5
			c1.3-1.7,1.3-4,0-5.8l-12.5-16.8c-2.9-3.9-2.9-9.1,0-12.9l12.7-17.1c1.3-1.7,1.3-4,0-5.8l-12-16.1c-2.9-3.9-2.9-9.1,0-12.9
			L57,32.8c1.3-1.7,1.3-4,0-5.8L40.5,4.8c-1-1.3-0.7-3.2,0.6-4.2s3.2-0.7,4.2,0.6l16.5,22.2C63.2,25.3,63.9,27.6,63.9,29.9z"/>
	</g>
</g>
</svg>
