<?xml version="1.0" encoding="utf-8"?>
<!-- Generator: Adobe Illustrator 19.2.1, SVG Export Plug-In . SVG Version: 6.00 Build 0)  -->
<svg version="1.1" id="Layer_1" xmlns="http://www.w3.org/2000/svg" xmlns:xlink="http://www.w3.org/1999/xlink" x="0px" y="0px"
	 viewBox="0 0 162.7 86.2" style="enable-background:new 0 0 162.7 86.2;" xml:space="preserve">
<style type="text/css">
	.st0{fill:#FFFFFF;}
	.st1{fill:#F24561;}
</style>
<g>
	<g>
		<path class="st0" d="M132.8,46.2c-2.3,0-4.5-0.7-6.5-2.2l-16.2-12c-1.7-1.3-4-1.3-5.8,0L88.2,44c-3.9,2.9-9.1,2.9-12.9,0
			L58.2,31.2c-1.7-1.3-4-1.3-5.8,0L35.6,43.8c-3.9,2.9-9.1,2.9-12.9,0l-21.5-16c-1.3-1-1.6-2.9-0.6-4.2c1-1.3,2.9-1.6,4.2-0.6
			l21.5,16c1.7,1.3,4,1.3,5.8,0l16.7-12.5c3.9-2.9,9.1-2.9,12.9,0l17.1,12.7c1.7,1.3,4,1.3,5.8,0l16.1-12c3.9-2.9,9.1-2.9,12.9,0
			l16.3,12.1c1.7,1.3,4,1.3,5.8,0l22.2-16.5c1.3-1,3.2-0.7,4.2,0.6c1,1.3,0.7,3.2-0.6,4.2L139.3,44
			C137.4,45.5,135.1,46.2,132.8,46.2z"/>
	</g>
	<g>
		<path class="st0" d="M92.5,53.2v7.4l-4.4,3.3c-3.9,2.9-9.1,2.9-12.9,0l-17-12.7c-1.7-1.3-4-1.3-5.8,0L35.6,63.7
			c-3.9,2.9-9.1,2.9-12.9,0l-21.5-16c-1.3-1-1.6-2.9-0.6-4.2c1-1.3,2.9-1.6,4.2-0.6l21.5,16c1.7,1.3,4,1.3,5.8,0l16.8-12.5
			c3.9-2.9,9.1-2.9,12.9,0l17.1,12.7c1.7,1.3,4,1.3,5.8,0L92.5,53.2z"/>
	</g>
	<g>
		<path class="st0" d="M92.5,73.2v7.3l-4.4,3.3c-3.9,2.9-9.1,2.9-12.9,0l-17-12.7c-1.7-1.3-4-1.3-5.8,0L35.6,83.7
			c-3.9,2.9-9.1,2.9-12.9,0l-21.5-16c-1.3-1-1.6-2.9-0.6-4.2c1-1.3,2.9-1.6,4.2-0.6l21.5,16c1.7,1.3,4,1.3,5.8,0l16.8-12.5
			c3.9-2.9,9.1-2.9,12.9,0l17.1,12.7c1.7,1.3,4,1.3,5.8,0L92.5,73.2z"/>
	</g>
</g>
<g>
	<path class="st1" d="M133.5,21.2c-5.8,0-10.5-4.7-10.5-10.4s4.7-10.5,10.5-10.5S144,5.1,144,10.9S139.2,21.2,133.5,21.2z
		 M133.5,3.4c-4.2,0-7.5,3.3-7.5,7.5c0,4.1,3.3,7.5,7.5,7.5c4.1,0,7.5-3.3,7.5-7.5C140.9,6.7,137.6,3.4,133.5,3.4z"/>
</g>
</svg>
