<?xml version="1.0" encoding="utf-8"?>
<!-- Generator: Adobe Illustrator 19.2.1, SVG Export Plug-In . SVG Version: 6.00 Build 0)  -->
<svg version="1.1" id="Layer_1" xmlns="http://www.w3.org/2000/svg" xmlns:xlink="http://www.w3.org/1999/xlink" x="0px" y="0px"
	 viewBox="0 0 12.9 12.9" style="enable-background:new 0 0 12.9 12.9;" xml:space="preserve">
<style type="text/css">
	.st0{fill:#231F20;}
</style>
<g>
	<g>
		<path class="st0" d="M5.3,8.3c-0.2,0-0.4-0.1-0.5-0.2C4,7.4,3.6,6.4,3.7,5.4c0-0.8,0.4-1.6,0.9-2.1l2.5-2.5
			c1.2-1.2,3.4-1.1,4.8,0.3c1.4,1.4,1.5,3.4,0.3,4.7L11,7c-0.3,0.3-0.8,0.3-1.1,0C9.7,6.7,9.7,6.3,10,6l1.1-1.1
			c0.6-0.7,0.5-1.8-0.3-2.6c-0.8-0.8-2-0.9-2.6-0.3L5.6,4.4C5.2,4.8,5.2,5.2,5.2,5.5c0,0.6,0.2,1.1,0.7,1.6c0.3,0.3,0.3,0.8,0,1.1
			C5.7,8.3,5.5,8.3,5.3,8.3z"/>
	</g>
	<g>
		<path class="st0" d="M3.7,12.9c-0.1,0-0.2,0-0.3,0c-0.9-0.1-1.7-0.5-2.4-1.1C-0.3,10.4-0.4,8.3,0.7,7l1.1-1.1
			c0.3-0.3,0.8-0.3,1.1,0s0.3,0.8,0,1.1L1.8,8c-0.6,0.7-0.5,1.8,0.3,2.6c0.4,0.4,0.9,0.6,1.5,0.7c0.5,0,0.9-0.1,1.2-0.4l2.5-2.5
			c0.4-0.3,0.5-0.8,0.5-1.1c0-0.6-0.2-1.1-0.7-1.6c-0.3-0.3-0.3-0.8,0-1.1c0.3-0.3,0.8-0.3,1.1,0c0.7,0.7,1.1,1.7,1.1,2.7
			c0,0.8-0.4,1.6-0.9,2.1L5.8,12C5.3,12.6,4.5,12.9,3.7,12.9z"/>
	</g>
</g>
</svg>
