<?xml version="1.0" encoding="utf-8"?>
<!-- Generator: Adobe Illustrator 19.2.1, SVG Export Plug-In . SVG Version: 6.00 Build 0)  -->
<svg version="1.1" id="Layer_1" xmlns="http://www.w3.org/2000/svg" xmlns:xlink="http://www.w3.org/1999/xlink" x="0px" y="0px"
	 viewBox="0 0 20.7 16" style="enable-background:new 0 0 20.7 16;" xml:space="preserve">
<style type="text/css">
	.st0{fill:#181818;}
</style>
<g>
	<g>
		<path class="st0" d="M19.7,9H1C0.4,9,0,8.6,0,8s0.4-1,1-1h18.7c0.6,0,1,0.4,1,1S20.2,9,19.7,9z"/>
	</g>
	<g>
		<path class="st0" d="M19.7,16H1c-0.6,0-1-0.4-1-1s0.4-1,1-1h18.7c0.6,0,1,0.4,1,1S20.2,16,19.7,16z"/>
	</g>
	<g>
		<path class="st0" d="M19.7,2H1C0.4,2,0,1.6,0,1s0.4-1,1-1h18.7c0.6,0,1,0.4,1,1S20.2,2,19.7,2z"/>
	</g>
</g>
</svg>
