<?xml version="1.0" encoding="utf-8"?>
<!-- Generator: Adobe Illustrator 19.2.1, SVG Export Plug-In . SVG Version: 6.00 Build 0)  -->
<svg version="1.1" id="Layer_1" xmlns="http://www.w3.org/2000/svg" xmlns:xlink="http://www.w3.org/1999/xlink" x="0px" y="0px"
	 viewBox="0 0 15.9 15.9" style="enable-background:new 0 0 15.9 15.9;" xml:space="preserve">
<style type="text/css">
	.st0{fill:#4D43FF;}
</style>
<g>
	<g>
		<path class="st0" d="M15.6,14.2c0.4,0.4,0.4,1,0,1.4c-0.2,0.2-0.4,0.3-0.7,0.3c-0.2,0-0.5-0.1-0.7-0.3L8,9.4l-6.2,6.2
			c-0.2,0.2-0.5,0.3-0.7,0.3s-0.5-0.1-0.7-0.3c-0.4-0.4-0.4-1,0-1.4L6.5,8L0.3,1.7c-0.4-0.4-0.4-1,0-1.4s1-0.4,1.4,0L8,6.5l6.2-6.2
			c0.4-0.4,1-0.4,1.4,0s0.4,1,0,1.4L9.4,8L15.6,14.2z"/>
	</g>
</g>
</svg>
