<?xml version="1.0" encoding="utf-8"?>
<!-- Generator: Adobe Illustrator 19.2.1, SVG Export Plug-In . SVG Version: 6.00 Build 0)  -->
<svg version="1.1" id="Layer_1" xmlns="http://www.w3.org/2000/svg" xmlns:xlink="http://www.w3.org/1999/xlink" x="0px" y="0px"
	 viewBox="0 0 9.3 16.6" style="enable-background:new 0 0 9.3 16.6;" xml:space="preserve">
<style type="text/css">
	.st0{fill:#FFFFFF;}
</style>
<g>
	<g>
		<path class="st0" d="M8.3,16.6H1c-0.6,0-1-0.4-1-1s0.4-1,1-1h7.3c0.6,0,1,0.4,1,1S8.8,16.6,8.3,16.6z"/>
	</g>
	<g>
		<g>
			<path class="st0" d="M8.7,8.8l-2.8,2.1c-0.4,0.3-0.8,0.4-1.2,0.4c-0.4,0-0.9-0.1-1.2-0.4L0.6,8.8c-0.4-0.3-0.5-1-0.2-1.4
				c0.3-0.4,1-0.5,1.4-0.2l1.9,1.4V1c0-0.5,0.5-1,1-1c0.6,0,1,0.5,1,1v7.5l1.8-1.3c0.4-0.3,1.1-0.2,1.4,0.2C9.2,7.8,9.1,8.4,8.7,8.8
				z"/>
		</g>
	</g>
</g>
</svg>
