<?xml version="1.0" encoding="utf-8"?>
<!-- Generator: Adobe Illustrator 19.2.1, SVG Export Plug-In . SVG Version: 6.00 Build 0)  -->
<svg version="1.1" id="Layer_1" xmlns="http://www.w3.org/2000/svg" xmlns:xlink="http://www.w3.org/1999/xlink" x="0px" y="0px"
	 viewBox="0 0 439.2 39.5" style="enable-background:new 0 0 439.2 39.5;" xml:space="preserve">
<style type="text/css">
	.st0{fill:#FFFFFF;}
</style>
<g>
	<g>
		<g>
			<path d="M12.8,7.8c0.7,0,1.3,0,2.1,0.1c0.7,0.1,1.5,0.2,2.4,0.5c0.9,0.2,1.6,0.6,2.2,1.1c0.6,0.5,0.9,1.1,0.9,1.8
				c0,0.7-0.2,1.4-0.6,2.1s-1,1.1-1.7,1.1c-0.3,0-0.9-0.2-1.9-0.7s-2.1-0.7-3.3-0.7c-1.3,0-2.2,0.2-2.8,0.7c-0.6,0.4-1,1-1,1.6
				S9.4,16.5,10,17c0.6,0.5,1.3,0.9,2.2,1.2s1.9,0.8,2.9,1.3c1.1,0.5,2,1.1,2.9,1.8c0.9,0.6,1.6,1.6,2.2,2.7c0.6,1.2,0.9,2.5,0.9,4
				c0,2.6-0.9,4.6-2.6,6.1c-1.7,1.5-4,2.2-6.9,2.2c-2.5,0-4.6-0.5-6.4-1.5s-2.7-2.2-2.7-3.4c0-0.7,0.3-1.4,0.8-2.1
				c0.5-0.7,1.1-1.1,1.8-1.1c0.4,0,0.8,0.2,1.3,0.5s0.9,0.6,1.3,1c0.4,0.4,0.9,0.7,1.7,1c0.7,0.3,1.5,0.5,2.2,0.5
				c1,0,1.8-0.2,2.6-0.6c0.7-0.4,1.1-1,1.1-1.9s-0.4-1.6-1.2-2.2c-0.8-0.6-1.8-1.2-3-1.7s-2.4-1.1-3.6-1.7c-1.2-0.6-2.2-1.6-3-2.8
				S3.3,17.7,3.3,16c0-2.7,1-4.7,2.9-6C7.8,8.5,10.1,7.8,12.8,7.8 M12.8,5.8c-3.1,0-5.8,0.8-8,2.4c-2.4,1.7-3.7,4.3-3.7,7.7
				c0,2.1,0.5,3.9,1.6,5.4c1,1.4,2.2,2.6,3.7,3.4c1.2,0.7,2.5,1.3,3.7,1.8c1,0.5,1.9,1,2.6,1.5c0.5,0.3,0.5,0.6,0.5,0.6v0.1
				c0,0,0,0-0.1,0.1c-0.4,0.2-1,0.4-1.6,0.4c-0.5,0-1-0.1-1.4-0.3c-0.6-0.3-0.9-0.5-1.1-0.6c-0.5-0.5-1-0.9-1.6-1.2
				c-0.8-0.5-1.6-0.8-2.4-0.8c-0.9,0-2.3,0.3-3.4,1.9c-0.8,1.1-1.2,2.2-1.2,3.3c0,2,1.3,3.8,3.8,5.2c2.1,1.2,4.6,1.8,7.4,1.8
				c3.3,0,6-0.9,8.2-2.6c2.2-1.8,3.3-4.4,3.3-7.6c0-1.8-0.4-3.5-1.1-4.9c-0.7-1.4-1.7-2.6-2.8-3.4c-1-0.7-2-1.4-3.2-1.9
				c-1.1-0.6-2.2-1.1-3.1-1.4c-0.7-0.3-1.3-0.6-1.7-0.9l0,0c0.1-0.1,0.6-0.3,1.7-0.3c0.9,0,1.7,0.2,2.4,0.5c1.6,0.8,2.3,0.9,2.8,0.9
				c1.5,0,2.7-0.7,3.5-2.1c0.6-1,0.9-2.1,0.9-3.1c0-1.3-0.5-2.4-1.5-3.3c-0.8-0.7-1.8-1.2-3-1.5c-1-0.2-1.9-0.4-2.7-0.5
				C14.3,5.9,13.5,5.8,12.8,5.8L12.8,5.8z"/>
		</g>
		<g>
			<path d="M34.5,8c0.8,0,1.5,0.2,2.1,0.5s0.9,0.7,0.9,1.3V34c0,0.6-0.3,1-0.9,1.3c-0.6,0.3-1.3,0.5-2.1,0.5s-1.5-0.2-2.1-0.5
				c-0.6-0.3-0.8-0.7-0.8-1.3V9.8c0-0.6,0.3-1,0.9-1.3C33,8.2,33.7,8,34.5,8 M34.5,6c-1.1,0-2.1,0.2-3,0.7c-1.2,0.6-1.9,1.8-1.9,3.1
				V34c0,1.3,0.7,2.4,1.9,3.1c0.9,0.5,1.9,0.7,3,0.7s2.2-0.2,3-0.7c1.2-0.7,1.9-1.8,1.9-3.1V9.8c0-1.3-0.7-2.5-1.9-3.1
				C36.7,6.3,35.6,6,34.5,6L34.5,6z"/>
		</g>
		<g>
			<path d="M58,8c2.8,0,5.1,0.7,6.9,2s2.7,3.2,2.7,5.5c0,1.1-0.2,1.8-0.7,2.2s-1.2,0.6-2.3,0.6c-2,0-2.9-0.6-3-1.8
				c0-0.4,0-0.7,0-0.9s-0.1-0.5-0.2-0.9s-0.3-0.6-0.5-0.8s-0.6-0.4-1-0.6c-0.4-0.2-1-0.2-1.6-0.2c-2.3,0-3.4,1.3-3.4,3.8V27
				c0,2.5,1.1,3.8,3.4,3.8s3.4-1.3,3.4-3.8v-1.3h-2.2c-0.6,0-1-0.2-1.3-0.7c-0.3-0.4-0.5-1-0.5-1.6s0.2-1.1,0.5-1.6s0.8-0.7,1.3-0.7
				h6.4c0.6,0,1,0.2,1.3,0.6c0.3,0.4,0.5,0.8,0.5,1.3v4c0,3.1-0.8,5.4-2.5,6.8c-1.7,1.4-4,2.2-6.8,2.2s-5.1-0.7-6.8-2.2
				c-1.7-1.4-2.5-3.7-2.5-6.8V17c0-3.1,0.8-5.4,2.5-6.8C53.1,8.8,55.3,8,58,8 M58,6c-3.2,0-5.8,0.9-7.9,2.6
				c-2.1,1.8-3.2,4.6-3.2,8.3V27c0,3.7,1.1,6.5,3.3,8.3c2.1,1.8,4.8,2.6,8.1,2.6c3.3,0,6-0.9,8.1-2.6c2.2-1.8,3.2-4.6,3.2-8.3v-4
				c0-1-0.3-1.9-1-2.6c-0.3-0.3-0.6-0.6-0.9-0.8c0.2-0.1,0.3-0.2,0.5-0.4c0.9-0.8,1.4-2,1.4-3.7c0-3-1.2-5.4-3.5-7.1
				C63.9,6.9,61.2,6,58,6L58,6z M56.8,20.3V17c0-1.8,0.6-1.8,1.4-1.8c0.5,0,0.7,0.1,0.9,0.1c0.2,0.1,0.3,0.1,0.3,0.2l0,0
				c0.1,0.3,0.1,0.4,0.1,0.4c0,0.1,0,0.3,0,0.7c0,0.5,0.2,1.7,1.1,2.6h-1.4C58.4,19.2,57.5,19.6,56.8,20.3L56.8,20.3z M58.2,28.9
				c-0.8,0-1.4,0-1.4-1.8v-0.3c0.7,0.7,1.6,1.1,2.6,1.1h0.2C59.4,28.9,58.9,28.9,58.2,28.9L58.2,28.9z"/>
		</g>
		<g>
			<path d="M95,8c0.8,0,1.5,0.2,2.1,0.5S98,9.2,98,9.8V34c0,0.6-0.3,1-0.9,1.3s-1.3,0.5-2.1,0.5c-1.6,0-2.7-0.5-3.3-1.6l-7.2-13.1
				V34c0,0.6-0.3,1-0.9,1.3s-1.3,0.5-2.1,0.5c-0.8,0-1.5-0.2-2.1-0.5s-0.9-0.8-0.9-1.3V9.9c0-0.6,0.3-1,0.9-1.3s1.3-0.5,2.1-0.5
				c1.1,0,2,0.2,2.5,0.5s1.2,1.2,1.8,2.5L92,22.8v-13c0-0.6,0.3-1,0.9-1.3S94.2,8,95,8 M95,6c-1.1,0-2.1,0.2-3,0.7
				c-1.2,0.6-1.9,1.8-1.9,3.1v4.8l-2.4-4.5c-0.9-1.7-1.7-2.7-2.6-3.3c-0.9-0.5-2-0.8-3.6-0.8c-1.1,0-2.2,0.2-3,0.7
				c-1.2,0.7-1.9,1.8-1.9,3.1V34c0,1.3,0.7,2.4,1.9,3.1c0.9,0.5,1.9,0.7,3,0.7s2.2-0.2,3-0.7c1.2-0.7,1.9-1.8,1.9-3.1v-5.1l3.5,6.3
				c0.7,1.2,2.1,2.6,5.1,2.6c1.1,0,2.2-0.2,3-0.7c1.2-0.7,1.9-1.8,1.9-3.1V9.8c0-1.3-0.7-2.5-1.9-3.1C97.2,6.3,96.1,6,95,6L95,6z"/>
		</g>
		<g>
			<path d="M118.8,7.8c0.7,0,1.3,0,2.1,0.1c0.7,0.1,1.5,0.2,2.4,0.5c0.9,0.2,1.6,0.6,2.2,1.1c0.6,0.5,0.9,1.1,0.9,1.8
				c0,0.7-0.2,1.4-0.6,2.1c-0.4,0.7-1,1.1-1.7,1.1c-0.3,0-0.9-0.2-1.9-0.7s-2.1-0.7-3.3-0.7c-1.3,0-2.2,0.2-2.8,0.7
				c-0.6,0.4-1,1-1,1.6s0.3,1.1,0.9,1.6c0.6,0.5,1.3,0.9,2.2,1.2s1.9,0.8,2.9,1.3c1.1,0.5,2,1.1,2.9,1.8c0.9,0.6,1.6,1.6,2.2,2.7
				s0.9,2.5,0.9,4c0,2.6-0.9,4.6-2.6,6.1c-1.7,1.5-4,2.2-6.9,2.2c-2.5,0-4.6-0.5-6.4-1.5c-1.8-1-2.7-2.2-2.7-3.4
				c0-0.7,0.3-1.4,0.8-2.1c0.5-0.7,1.1-1.1,1.8-1.1c0.4,0,0.8,0.2,1.3,0.5s0.9,0.6,1.3,1c0.4,0.4,0.9,0.7,1.7,1
				c0.7,0.3,1.5,0.5,2.2,0.5c1,0,1.8-0.2,2.6-0.6c0.7-0.4,1.1-1,1.1-1.9s-0.4-1.6-1.2-2.2c-0.8-0.6-1.8-1.2-3-1.7s-2.4-1.1-3.6-1.7
				c-1.2-0.6-2.2-1.6-3-2.8s-1.2-2.6-1.2-4.3c0-2.7,1-4.7,2.9-6C113.8,8.5,116.1,7.8,118.8,7.8 M118.8,5.8c-3.1,0-5.8,0.8-8,2.4
				c-2.4,1.7-3.7,4.3-3.7,7.7c0,2.1,0.5,3.9,1.6,5.4c1,1.4,2.2,2.6,3.7,3.4c1.2,0.7,2.5,1.3,3.7,1.8c1,0.5,1.9,1,2.6,1.5
				c0.5,0.3,0.5,0.6,0.5,0.6v0.1c0,0,0,0-0.1,0.1c-0.4,0.2-1,0.4-1.6,0.4c-0.5,0-1-0.1-1.4-0.3c-0.6-0.3-0.9-0.5-1.1-0.6
				c-0.5-0.5-1-0.9-1.6-1.2c-0.8-0.5-1.6-0.8-2.4-0.8c-0.9,0-2.3,0.3-3.4,1.9c-0.8,1.1-1.2,2.2-1.2,3.3c0,2,1.3,3.8,3.8,5.2
				c2.1,1.2,4.6,1.8,7.4,1.8c3.3,0,6-0.9,8.2-2.6c2.2-1.8,3.3-4.4,3.3-7.6c0-1.8-0.4-3.5-1.1-4.9c-0.7-1.4-1.7-2.6-2.8-3.4
				c-1-0.7-2-1.4-3.2-1.9c-1.1-0.6-2.2-1.1-3.1-1.4c-0.7-0.3-1.3-0.6-1.7-0.9l0,0c0.1-0.1,0.6-0.3,1.7-0.3c0.9,0,1.7,0.2,2.4,0.5
				c1.6,0.8,2.3,0.9,2.8,0.9c1.5,0,2.7-0.7,3.5-2.1c0.6-1,0.9-2.1,0.9-3.1c0-1.3-0.5-2.4-1.5-3.3c-0.8-0.7-1.8-1.2-3-1.5
				c-1-0.2-1.9-0.4-2.7-0.5C120.3,5.9,119.5,5.8,118.8,5.8L118.8,5.8z"/>
		</g>
		<g>
			<path d="M168.5,8c0.6,0,1,0.3,1.3,0.8s0.5,1.1,0.5,1.8c0,0.7-0.2,1.4-0.5,1.9s-0.8,0.8-1.3,0.8h-9.8v6.4h5.7c0.6,0,1,0.2,1.3,0.7
				s0.5,1,0.5,1.6s-0.2,1.1-0.5,1.6s-0.7,0.7-1.3,0.7h-5.7V34c0,0.6-0.3,1-0.9,1.3c-0.6,0.3-1.3,0.5-2.1,0.5s-1.5-0.2-2.1-0.5
				s-0.9-0.8-0.9-1.3V9.9c0-0.6,0.3-1,0.8-1.3s1.1-0.5,1.8-0.5h13.2 M168.5,6h-13.2c-1.1,0-2.1,0.3-2.9,0.8c-1.1,0.7-1.7,1.8-1.7,3
				V34c0,1.3,0.7,2.4,1.9,3.1c0.9,0.5,1.9,0.7,3,0.7s2.2-0.2,3-0.7c1.2-0.7,1.9-1.8,1.9-3.1v-7.8h3.7c1.3,0,2.3-0.6,3-1.6
				c0.5-0.8,0.8-1.7,0.8-2.7s-0.3-2-0.8-2.8c-0.7-1-1.7-1.5-3-1.5h-3.7v-2.4h7.8c1.3,0,2.3-0.6,3-1.7c0.5-0.8,0.8-1.8,0.8-2.9
				c0-1-0.2-2-0.7-2.8C170.9,6.7,169.8,6,168.5,6L168.5,6z"/>
		</g>
		<g>
			<path d="M188.6,8c2.8,0,5.1,0.7,6.8,2.2c1.7,1.4,2.5,3.7,2.5,6.8v10.1c0,3.1-0.8,5.4-2.5,6.8c-1.7,1.4-4,2.2-6.8,2.2
				s-5.1-0.7-6.8-2.2c-1.7-1.4-2.5-3.7-2.5-6.8V17c0-3.1,0.8-5.4,2.5-6.8C183.6,8.8,185.8,8,188.6,8 M188.6,30.9
				c2.3,0,3.4-1.3,3.4-3.8V17c0-2.5-1.1-3.8-3.4-3.8c-2.3,0-3.4,1.3-3.4,3.8v10.1C185.3,29.6,186.4,30.9,188.6,30.9 M188.6,6
				c-3.3,0-6,0.9-8.1,2.6c-2.2,1.8-3.3,4.6-3.3,8.3V27c0,3.7,1.1,6.5,3.3,8.3c2.1,1.8,4.8,2.6,8.1,2.6s6-0.9,8.1-2.6
				c2.2-1.8,3.2-4.6,3.2-8.3V17c0-3.7-1.1-6.5-3.2-8.3C194.7,6.9,192,6,188.6,6L188.6,6z M188.6,28.9c-0.8,0-1.4,0-1.4-1.8V17
				c0-1.8,0.6-1.8,1.4-1.8c0.8,0,1.4,0,1.4,1.8v10.1C190.1,28.9,189.5,28.9,188.6,28.9L188.6,28.9z"/>
		</g>
		<g>
			<path d="M219.1,8c6.2,0,9.3,2.7,9.3,8.1c0,4-1.5,6.5-4.6,7.7l4.6,8.4c0.1,0.2,0.2,0.4,0.2,0.7c0,0.7-0.4,1.4-1.2,2.1
				s-1.6,1-2.5,1s-1.5-0.4-1.9-1.1l-5.2-10.1h-2.5V34c0,0.6-0.3,1-0.9,1.3c-0.6,0.3-1.3,0.5-2.1,0.5s-1.5-0.2-2.1-0.5
				s-0.9-0.8-0.9-1.3V9.8c0-0.5,0.2-0.9,0.5-1.3s0.8-0.5,1.3-0.5H219.1 M215.3,20.3h3.8c1.1,0,2-0.3,2.5-0.8
				c0.6-0.5,0.9-1.4,0.9-2.7s-0.3-2.2-0.9-2.7c-0.6-0.5-1.4-0.8-2.5-0.8h-3.8V20.3 M219.1,6h-7.9c-1.1,0-2,0.4-2.7,1.1
				s-1.1,1.6-1.1,2.6V34c0,1.3,0.7,2.4,1.9,3.1c0.9,0.5,1.9,0.7,3,0.7s2.2-0.2,3-0.7c1.2-0.7,1.9-1.8,1.9-3.1v-5.8l3.9,7.6
				c0.7,1.4,2,2.2,3.7,2.2c1.4,0,2.6-0.5,3.8-1.4c1.6-1.3,1.9-2.7,1.9-3.6c0-0.6-0.2-1.2-0.5-1.7l-3.6-6.6c2-1.4,3.9-4,3.9-8.5
				C230.4,7.4,223.3,6,219.1,6L219.1,6z M217.3,15.2h1.8c0.6,0,1,0.1,1.2,0.3c0.1,0.1,0.2,0.4,0.2,1.3c0,0.8-0.2,1.2-0.2,1.3
				c-0.2,0.2-0.6,0.3-1.2,0.3h-1.8V15.2L217.3,15.2z"/>
		</g>
		<g>
			<path d="M263.5,7.8c0.7,0,1.3,0,2.1,0.1c0.7,0.1,1.5,0.2,2.4,0.5c0.9,0.2,1.6,0.6,2.2,1.1s0.9,1.1,0.9,1.8c0,0.7-0.2,1.4-0.6,2.1
				s-1,1.1-1.7,1.1c-0.3,0-0.9-0.2-1.9-0.7s-2.1-0.7-3.3-0.7c-1.3,0-2.2,0.2-2.8,0.7c-0.6,0.4-1,1-1,1.6s0.3,1.1,0.9,1.6
				s1.3,0.9,2.2,1.2c0.9,0.3,1.9,0.8,2.9,1.3c1.1,0.5,2,1.1,2.9,1.8c0.9,0.6,1.6,1.6,2.2,2.7s0.9,2.5,0.9,4c0,2.6-0.9,4.6-2.6,6.1
				s-4,2.2-6.9,2.2c-2.5,0-4.6-0.5-6.4-1.5s-2.7-2.2-2.7-3.4c0-0.7,0.3-1.4,0.8-2.1c0.5-0.7,1.1-1.1,1.8-1.1c0.4,0,0.8,0.2,1.3,0.5
				s0.9,0.6,1.3,1s0.9,0.7,1.7,1c0.7,0.3,1.5,0.5,2.2,0.5c1,0,1.8-0.2,2.6-0.6c0.7-0.4,1.1-1,1.1-1.9s-0.4-1.6-1.2-2.2
				c-0.8-0.6-1.8-1.2-3-1.7s-2.4-1.1-3.6-1.7c-1.2-0.6-2.2-1.6-3-2.8S254,17.7,254,16c0-2.7,1-4.7,2.9-6
				C258.5,8.5,260.8,7.8,263.5,7.8 M263.5,5.8c-3.1,0-5.8,0.8-8,2.4c-2.4,1.7-3.7,4.3-3.7,7.7c0,2.1,0.5,3.9,1.6,5.4
				c1,1.4,2.2,2.6,3.7,3.4c1.2,0.7,2.5,1.3,3.7,1.8c1,0.5,1.9,1,2.6,1.5c0.5,0.3,0.5,0.6,0.5,0.6v0.1c0,0,0,0-0.1,0.1
				c-0.4,0.2-1,0.4-1.6,0.4c-0.5,0-1-0.1-1.4-0.3c-0.6-0.3-0.9-0.5-1.1-0.6c-0.5-0.5-1-0.9-1.6-1.2c-0.8-0.5-1.6-0.8-2.4-0.8
				c-0.9,0-2.3,0.3-3.4,1.9c-0.8,1.1-1.2,2.2-1.2,3.3c0,2,1.3,3.8,3.8,5.2c2.1,1.2,4.6,1.8,7.4,1.8c3.3,0,6-0.9,8.2-2.6
				c2.2-1.8,3.3-4.4,3.3-7.6c0-1.8-0.4-3.5-1.1-4.9s-1.7-2.6-2.8-3.4c-1-0.7-2-1.4-3.2-1.9c-1.1-0.6-2.2-1.1-3.1-1.4
				c-0.7-0.3-1.3-0.6-1.7-0.9l0,0c0.1-0.1,0.6-0.3,1.7-0.3c0.9,0,1.7,0.2,2.4,0.5c1.6,0.8,2.3,0.9,2.8,0.9c1.5,0,2.7-0.7,3.5-2.1
				c0.6-1,0.9-2.1,0.9-3.1c0-1.3-0.5-2.4-1.5-3.3c-0.8-0.7-1.8-1.2-3-1.5c-1-0.2-1.9-0.4-2.7-0.5C265,5.9,264.2,5.8,263.5,5.8
				L263.5,5.8z"/>
		</g>
		<g>
			<path d="M291.1,8c2.8,0,5.1,0.7,6.9,2s2.7,3.2,2.7,5.5c0,1.1-0.2,1.8-0.7,2.2s-1.2,0.6-2.3,0.6c-1.9,0-2.9-0.6-3-1.8
				c-0.1-2.3-1.2-3.4-3.4-3.4c-2.3,0-3.4,1.3-3.4,3.8V27c0,2.5,1.2,3.8,3.5,3.8c0.7,0,1.3-0.1,1.8-0.3s0.8-0.6,1-1
				c0.2-0.5,0.3-0.9,0.4-1.2s0.1-0.7,0.2-1.3c0.1-1.2,1.1-1.8,2.9-1.8c1.1,0,1.9,0.2,2.3,0.6s0.7,1.1,0.7,2.2c0,2.5-0.9,4.4-2.7,5.8
				c-1.8,1.4-4.1,2.1-6.9,2.1c-2.7,0-4.9-0.7-6.6-2.2c-1.7-1.4-2.5-3.7-2.5-6.8V17c0-3.1,0.8-5.4,2.5-6.8C286.1,8.8,288.3,8,291.1,8
				 M291.1,6c-3.2,0-5.8,0.9-7.9,2.6c-2.1,1.8-3.2,4.6-3.2,8.3V27c0,3.7,1.1,6.5,3.2,8.3c2,1.8,4.7,2.6,7.9,2.6c3.2,0,6-0.9,8.1-2.6
				c2.3-1.8,3.4-4.3,3.4-7.4c0-1.7-0.5-3-1.4-3.7c-0.8-0.7-2-1.1-3.6-1.1c-4.3,0-4.8,2.8-4.9,3.6c-0.1,0.6-0.1,0.9-0.1,1
				s-0.1,0.3-0.3,0.8l0,0c-0.1,0.1-0.4,0.1-0.9,0.1c-0.9,0-1.5-0.1-1.5-1.8V17c0-1.8,0.6-1.8,1.4-1.8c0.9,0,1.3,0.1,1.4,1.5
				c0,0,0,0,0,0.1c0.1,0.9,0.6,3.7,5,3.7c1.6,0,2.7-0.4,3.6-1.1c0.9-0.8,1.4-2,1.4-3.7c0-3-1.2-5.4-3.5-7.1C297,6.9,294.3,6,291.1,6
				L291.1,6z"/>
		</g>
		<g>
			<path d="M314.2,8c0.8,0,1.5,0.2,2.1,0.5s0.9,0.7,0.9,1.3V34c0,0.6-0.3,1-0.9,1.3s-1.3,0.5-2.1,0.5c-0.8,0-1.5-0.2-2.1-0.5
				s-0.9-0.8-0.9-1.3V9.8c0-0.6,0.3-1,0.9-1.3C312.6,8.2,313.3,8,314.2,8 M314.2,6c-1.1,0-2.1,0.2-3,0.7c-1.2,0.6-1.9,1.8-1.9,3.1
				V34c0,1.3,0.7,2.4,1.9,3.1c0.9,0.5,1.9,0.7,3,0.7s2.2-0.2,3-0.7c1.2-0.7,1.9-1.8,1.9-3.1V9.8c0-1.3-0.7-2.5-1.9-3.1
				C316.3,6.3,315.3,6,314.2,6L314.2,6z"/>
		</g>
		<g>
			<path d="M344.9,8c0.6,0,1,0.3,1.3,0.8s0.5,1.1,0.5,1.8c0,0.7-0.2,1.4-0.5,1.9s-0.8,0.8-1.3,0.8h-10.2v6.4h5.7
				c0.6,0,1,0.2,1.3,0.7s0.5,1,0.5,1.6s-0.2,1.1-0.5,1.6s-0.7,0.7-1.3,0.7h-5.7v6.5h10.2c0.6,0,1,0.3,1.3,0.8s0.5,1.1,0.5,1.9
				c0,0.7-0.2,1.3-0.5,1.8s-0.7,0.8-1.3,0.8h-13.5c-0.7,0-1.3-0.2-1.8-0.5s-0.8-0.8-0.8-1.3V9.9c0-0.6,0.3-1,0.8-1.3
				s1.1-0.5,1.8-0.5h13.5 M344.9,6h-13.5c-1.1,0-2.1,0.3-2.9,0.8c-1.1,0.7-1.7,1.8-1.7,3V34c0,1.3,0.6,2.4,1.7,3
				c0.8,0.5,1.8,0.8,2.9,0.8h13.5c1.3,0,2.4-0.6,3-1.7c0.5-0.8,0.7-1.8,0.7-2.8c0-1.1-0.3-2.1-0.8-2.9c-0.7-1.1-1.8-1.7-3-1.7h-8.2
				v-2.5h3.7c1.3,0,2.3-0.6,3-1.6c0.5-0.8,0.8-1.7,0.8-2.7s-0.3-2-0.8-2.8c-0.7-1-1.7-1.5-3-1.5h-3.7v-2.4h8.2c1.3,0,2.3-0.6,3-1.7
				c0.5-0.8,0.8-1.8,0.8-2.9c0-1-0.2-2-0.7-2.8C347.3,6.7,346.2,6,344.9,6L344.9,6z"/>
		</g>
		<g>
			<path d="M373.4,8c0.8,0,1.5,0.2,2.1,0.5s0.9,0.7,0.9,1.3V34c0,0.6-0.3,1-0.9,1.3s-1.3,0.5-2.1,0.5c-1.6,0-2.7-0.5-3.3-1.6
				l-7.2-13.1V34c0,0.6-0.3,1-0.9,1.3s-1.3,0.5-2.1,0.5c-0.8,0-1.5-0.2-2.1-0.5s-0.9-0.8-0.9-1.3V9.9c0-0.6,0.3-1,0.9-1.3
				s1.3-0.5,2.1-0.5c1.1,0,2,0.2,2.5,0.5s1.2,1.2,1.8,2.5l6.2,11.7v-13c0-0.6,0.3-1,0.9-1.3S372.5,8,373.4,8 M373.4,6
				c-1.1,0-2.1,0.2-3,0.7c-1.2,0.6-1.9,1.8-1.9,3.1v4.8l-2.4-4.5c-0.9-1.7-1.7-2.7-2.6-3.3c-0.9-0.5-2-0.8-3.6-0.8
				c-1.1,0-2.2,0.2-3,0.7c-1.2,0.7-1.9,1.8-1.9,3.1V34c0,1.3,0.7,2.4,1.9,3.1c0.9,0.5,1.9,0.7,3,0.7s2.2-0.2,3-0.7
				c1.2-0.7,1.9-1.8,1.9-3.1v-5.1l3.5,6.3c0.7,1.2,2.1,2.6,5.1,2.6c1.1,0,2.2-0.2,3-0.7c1.2-0.7,1.9-1.8,1.9-3.1V9.8
				c0-1.3-0.7-2.5-1.9-3.1C375.5,6.3,374.5,6,373.4,6L373.4,6z"/>
		</g>
		<g>
			<path d="M396.8,8c2.8,0,5.1,0.7,6.9,2s2.7,3.2,2.7,5.5c0,1.1-0.2,1.8-0.7,2.2s-1.2,0.6-2.3,0.6c-1.9,0-2.9-0.6-3-1.8
				c-0.1-2.3-1.2-3.4-3.4-3.4c-2.3,0-3.4,1.3-3.4,3.8V27c0,2.5,1.2,3.8,3.5,3.8c0.7,0,1.3-0.1,1.8-0.3s0.8-0.6,1-1
				c0.2-0.5,0.3-0.9,0.4-1.2s0.1-0.7,0.2-1.3c0.1-1.2,1.1-1.8,2.9-1.8c1.1,0,1.9,0.2,2.3,0.6s0.7,1.1,0.7,2.2c0,2.5-0.9,4.4-2.7,5.8
				c-1.8,1.4-4.1,2.1-6.9,2.1c-2.7,0-4.9-0.7-6.6-2.2c-1.7-1.4-2.5-3.7-2.5-6.8V17c0-3.1,0.8-5.4,2.5-6.8C391.9,8.8,394.1,8,396.8,8
				 M396.8,6c-3.2,0-5.8,0.9-7.9,2.6c-2.1,1.8-3.2,4.6-3.2,8.3V27c0,3.7,1.1,6.5,3.2,8.3c2,1.8,4.7,2.6,7.9,2.6c3.2,0,6-0.9,8.1-2.6
				c2.3-1.8,3.4-4.3,3.4-7.4c0-1.7-0.5-3-1.4-3.7c-0.8-0.7-2-1.1-3.6-1.1c-4.3,0-4.8,2.8-4.9,3.6c-0.1,0.6-0.1,0.9-0.1,1
				s-0.1,0.3-0.3,0.8l0,0c-0.1,0.1-0.4,0.1-0.9,0.1c-0.9,0-1.5-0.1-1.5-1.8V17c0-1.8,0.6-1.8,1.4-1.8c0.9,0,1.3,0.1,1.4,1.5
				c0,0,0,0,0,0.1c0.1,0.9,0.6,3.7,5,3.7c1.6,0,2.7-0.4,3.6-1.1c0.9-0.8,1.4-2,1.4-3.7c0-3-1.2-5.4-3.5-7.1
				C402.8,6.9,400.1,6,396.8,6L396.8,6z"/>
		</g>
		<g>
			<path d="M433.1,8c0.6,0,1,0.3,1.3,0.8s0.5,1.1,0.5,1.8c0,0.7-0.2,1.4-0.5,1.9s-0.8,0.8-1.3,0.8h-10.2v6.4h5.7
				c0.6,0,1,0.2,1.3,0.7s0.5,1,0.5,1.6s-0.2,1.1-0.5,1.6s-0.7,0.7-1.3,0.7h-5.7v6.5h10.2c0.6,0,1,0.3,1.3,0.8s0.5,1.1,0.5,1.9
				c0,0.7-0.2,1.3-0.5,1.8s-0.7,0.8-1.3,0.8h-13.5c-0.7,0-1.3-0.2-1.8-0.5s-0.8-0.8-0.8-1.3V9.9c0-0.6,0.3-1,0.8-1.3
				s1.1-0.5,1.8-0.5h13.5 M433.1,6h-13.5c-1.1,0-2.1,0.3-2.9,0.8c-1.1,0.7-1.7,1.8-1.7,3V34c0,1.3,0.6,2.4,1.7,3
				c0.8,0.5,1.8,0.8,2.9,0.8h13.5c1.3,0,2.4-0.6,3-1.7c0.5-0.8,0.7-1.8,0.7-2.8c0-1.1-0.3-2.1-0.8-2.9c-0.7-1.1-1.8-1.7-3-1.7h-8.2
				v-2.5h3.7c1.3,0,2.3-0.6,3-1.6c0.5-0.8,0.8-1.7,0.8-2.7s-0.3-2-0.8-2.8c-0.7-1-1.7-1.5-3-1.5h-3.7v-2.4h8.2c1.3,0,2.3-0.6,3-1.7
				c0.5-0.8,0.8-1.8,0.8-2.9c0-1-0.2-2-0.7-2.8C435.5,6.7,434.4,6,433.1,6L433.1,6z"/>
		</g>
	</g>
	<g>
		<g>
			<path class="st0" d="M11.5,32.2c-2.6,0-4.9-0.6-6.9-1.6c-2.2-1.2-3.3-2.6-3.3-4.3c0-0.9,0.3-1.8,1-2.7c0.9-1.2,1.9-1.5,2.6-1.5
				c0.6,0,1.2,0.2,1.8,0.6c0.5,0.3,1,0.7,1.4,1.1c0.3,0.3,0.8,0.6,1.4,0.8c0.6,0.3,1.2,0.4,1.8,0.4c0.8,0,1.5-0.2,2.1-0.5
				c0.4-0.2,0.6-0.5,0.6-1c0-0.3-0.1-0.8-0.8-1.4c-0.8-0.6-1.7-1.1-2.8-1.6C9.2,20,8,19.4,6.8,18.7c-1.3-0.7-2.5-1.8-3.4-3.1
				c-0.9-1.4-1.4-3-1.4-4.8c0-3,1.1-5.3,3.3-6.8c2.1-1.4,4.6-2.2,7.5-2.2c0.7,0,1.4,0,2.2,0.1s1.6,0.2,2.6,0.5
				c1.1,0.3,1.9,0.7,2.6,1.3c0.8,0.7,1.2,1.6,1.2,2.6c0,0.8-0.3,1.7-0.8,2.6c-0.8,1.3-1.8,1.6-2.6,1.6c-0.4,0-0.9-0.1-2.4-0.8
				c-0.8-0.4-1.8-0.6-2.8-0.6S11,9.3,10.5,9.6S10,10.2,10,10.4c0,0.1,0,0.4,0.5,0.8s1.2,0.8,2,1.1c0.9,0.4,1.9,0.8,3,1.4
				c1.1,0.6,2.1,1.2,3,1.9c1,0.7,1.9,1.8,2.5,3.1c0.7,1.3,1,2.8,1,4.4c0,2.9-1,5.2-3,6.9C17.1,31.4,14.6,32.2,11.5,32.2z"/>
			<path d="M12.8,2.8c0.7,0,1.3,0,2.1,0.1c0.7,0.1,1.5,0.2,2.4,0.5c0.9,0.2,1.6,0.6,2.2,1.1c0.6,0.5,0.9,1.1,0.9,1.8
				c0,0.7-0.2,1.4-0.6,2.1s-1,1.1-1.7,1.1c-0.3,0-0.9-0.2-1.9-0.7s-2.1-0.7-3.3-0.7c-1.3,0-2.2,0.2-2.8,0.7c-0.6,0.4-1,1-1,1.6
				S9.4,11.5,10,12c0.6,0.5,1.3,0.9,2.2,1.2s1.9,0.8,2.9,1.3c1.1,0.5,2,1.1,2.9,1.8c0.9,0.6,1.6,1.6,2.2,2.7c0.6,1.2,0.9,2.5,0.9,4
				c0,2.6-0.9,4.6-2.6,6.1c-1.7,1.5-4,2.2-6.9,2.2c-2.5,0-4.6-0.5-6.4-1.5s-2.7-2.2-2.7-3.4c0-0.7,0.3-1.4,0.8-2.1
				c0.5-0.7,1.1-1.1,1.8-1.1c0.4,0,0.8,0.2,1.3,0.5s0.9,0.6,1.3,1c0.4,0.4,0.9,0.7,1.7,1c0.7,0.3,1.5,0.5,2.2,0.5
				c1,0,1.8-0.2,2.6-0.6c0.7-0.4,1.1-1,1.1-1.9s-0.4-1.6-1.2-2.2c-0.8-0.6-1.8-1.2-3-1.7s-2.4-1.1-3.6-1.7c-1.2-0.6-2.2-1.6-3-2.8
				S3.3,12.7,3.3,11c0-2.7,1-4.7,2.9-6C7.8,3.5,10.1,2.8,12.8,2.8 M12.8,0.8c-3.1,0-5.8,0.8-8,2.4c-2.4,1.7-3.7,4.3-3.7,7.7
				c0,2.1,0.5,3.9,1.6,5.4c1,1.4,2.2,2.6,3.7,3.4c1.2,0.7,2.5,1.3,3.7,1.8c1,0.5,1.9,1,2.6,1.5c0.5,0.3,0.5,0.6,0.5,0.6v0.1
				c0,0,0,0-0.1,0.1c-0.4,0.2-1,0.4-1.6,0.4c-0.5,0-1-0.1-1.4-0.3c-0.6-0.3-0.9-0.5-1.1-0.6c-0.5-0.5-1-0.9-1.6-1.2
				c-0.8-0.5-1.6-0.8-2.4-0.8c-0.9,0-2.3,0.3-3.4,1.9c-0.8,1.1-1.2,2.2-1.2,3.3c0,2,1.3,3.8,3.8,5.2c2.1,1.2,4.6,1.8,7.4,1.8
				c3.3,0,6-0.9,8.2-2.6c2.2-1.8,3.3-4.4,3.3-7.6c0-1.8-0.4-3.5-1.1-4.9c-0.7-1.4-1.7-2.6-2.8-3.4c-1-0.7-2-1.4-3.2-1.9
				c-1.1-0.6-2.2-1.1-3.1-1.4c-0.7-0.3-1.3-0.6-1.7-0.9l0,0c0.1-0.1,0.6-0.3,1.7-0.3c0.9,0,1.7,0.2,2.4,0.5c1.6,0.8,2.3,0.9,2.8,0.9
				c1.5,0,2.7-0.7,3.5-2.1c0.6-1,0.9-2.1,0.9-3.1c0-1.3-0.5-2.4-1.5-3.3c-0.8-0.7-1.8-1.2-3-1.5c-1-0.2-1.9-0.4-2.7-0.5
				C14.3,0.9,13.5,0.8,12.8,0.8L12.8,0.8z"/>
		</g>
		<g>
			<path class="st0" d="M34.5,31.8c-1,0-1.8-0.2-2.6-0.6c-0.9-0.5-1.3-1.3-1.3-2.2V4.8c0-1,0.5-1.7,1.4-2.2C32.7,2.2,33.6,2,34.6,2
				s1.8,0.2,2.6,0.6c0.9,0.5,1.4,1.3,1.4,2.2V29c0,0.9-0.5,1.7-1.4,2.2C36.4,31.6,35.5,31.8,34.5,31.8z"/>
			<path d="M34.5,3c0.8,0,1.5,0.2,2.1,0.5s0.9,0.7,0.9,1.3V29c0,0.6-0.3,1-0.9,1.3c-0.6,0.3-1.3,0.5-2.1,0.5s-1.5-0.2-2.1-0.5
				c-0.6-0.3-0.8-0.7-0.8-1.3V4.8c0-0.6,0.3-1,0.9-1.3C33,3.2,33.7,3,34.5,3 M34.5,1c-1.1,0-2.1,0.2-3,0.7c-1.2,0.6-1.9,1.8-1.9,3.1
				V29c0,1.3,0.7,2.4,1.9,3.1c0.9,0.5,1.9,0.7,3,0.7s2.2-0.2,3-0.7c1.2-0.7,1.9-1.8,1.9-3.1V4.8c0-1.3-0.7-2.5-1.9-3.1
				C36.7,1.3,35.6,1,34.5,1L34.5,1z"/>
		</g>
		<g>
			<path class="st0" d="M58.2,32c-3,0-5.5-0.8-7.4-2.4c-1.9-1.6-2.9-4.2-2.9-7.6V12c0-3.4,1-5.9,2.9-7.6C52.7,2.8,55.1,2,58,2
				c3,0,5.5,0.7,7.5,2.2s3.1,3.7,3.1,6.3c0,1.4-0.3,2.4-1,3c-0.6,0.6-1.6,0.8-2.9,0.8c-3.4,0-3.9-1.7-4-2.8c0-0.3,0-0.6,0-0.8
				c0-0.1-0.1-0.3-0.2-0.7c-0.1-0.2-0.2-0.3-0.3-0.4c-0.1-0.1-0.3-0.2-0.7-0.4C59.2,9.1,58.8,9,58.3,9c-1.3,0-2.4,0.3-2.4,2.8v10.1
				c0,2.5,1.1,2.8,2.4,2.8s2.4-0.3,2.4-2.8v-0.3h-1.2c-0.9,0-1.6-0.4-2.1-1.1c-0.4-0.6-0.7-1.4-0.7-2.2s0.2-1.5,0.7-2.2
				c0.5-0.7,1.2-1.1,2.1-1.1h6.4c0.8,0,1.6,0.3,2.1,0.9c0.5,0.6,0.7,1.2,0.7,2v4c0,3.4-1,5.9-2.9,7.6C63.8,31.2,61.3,32,58.2,32z"/>
			<path d="M58,3c2.8,0,5.1,0.7,6.9,2s2.7,3.2,2.7,5.5c0,1.1-0.2,1.8-0.7,2.2s-1.2,0.6-2.3,0.6c-2,0-2.9-0.6-3-1.8
				c0-0.4,0-0.7,0-0.9c0-0.2-0.1-0.5-0.2-0.9s-0.3-0.6-0.5-0.8c-0.2-0.2-0.6-0.4-1-0.6s-1-0.2-1.6-0.2c-2.3,0-3.4,1.3-3.4,3.8V22
				c0,2.5,1.1,3.8,3.4,3.8s3.4-1.3,3.4-3.8v-1.3h-2.2c-0.6,0-1-0.2-1.3-0.7c-0.3-0.4-0.5-1-0.5-1.6s0.2-1.1,0.5-1.6s0.8-0.7,1.3-0.7
				h6.4c0.6,0,1,0.2,1.3,0.6c0.3,0.4,0.5,0.8,0.5,1.3v4c0,3.1-0.8,5.4-2.5,6.8c-1.7,1.4-4,2.2-6.8,2.2s-5.1-0.7-6.8-2.2
				c-1.7-1.4-2.5-3.7-2.5-6.8V12c0-3.1,0.8-5.4,2.5-6.8C53.1,3.8,55.3,3,58,3 M58,1c-3.2,0-5.8,0.9-7.9,2.6
				c-2.1,1.8-3.2,4.6-3.2,8.3V22c0,3.7,1.1,6.5,3.3,8.3c2.1,1.8,4.8,2.6,8.1,2.6c3.3,0,6-0.9,8.1-2.6c2.2-1.8,3.2-4.6,3.2-8.3v-4
				c0-1-0.3-1.9-1-2.6c-0.3-0.3-0.6-0.6-0.9-0.8c0.2-0.1,0.3-0.2,0.5-0.4c0.9-0.8,1.4-2,1.4-3.7c0-3-1.2-5.4-3.5-7.1
				C63.9,1.9,61.2,1,58,1L58,1z M56.8,15.3V12c0-1.8,0.6-1.8,1.4-1.8c0.5,0,0.7,0.1,0.9,0.1c0.2,0.1,0.3,0.1,0.3,0.2l0,0
				c0.1,0.3,0.1,0.4,0.1,0.4c0,0.1,0,0.3,0,0.7c0,0.5,0.2,1.7,1.1,2.6h-1.4C58.4,14.2,57.5,14.6,56.8,15.3L56.8,15.3z M58.2,23.9
				c-0.8,0-1.4,0-1.4-1.8v-0.3c0.7,0.7,1.6,1.1,2.6,1.1h0.2C59.4,23.9,58.9,23.9,58.2,23.9L58.2,23.9z"/>
		</g>
		<g>
			<path class="st0" d="M95,31.8c-2.5,0-3.7-1.2-4.2-2.1L85.5,20v9c0,0.9-0.5,1.7-1.4,2.2c-0.7,0.4-1.6,0.6-2.6,0.6
				s-1.8-0.2-2.6-0.6c-0.9-0.5-1.4-1.3-1.4-2.2V4.9c0-0.9,0.5-1.7,1.4-2.2c0.7-0.4,1.6-0.6,2.6-0.6c1.3,0,2.3,0.2,3,0.6
				s1.4,1.3,2.2,2.9l4.3,8.1V4.8c0-1,0.5-1.7,1.4-2.2C93.1,2.2,94,2,95,2s1.8,0.2,2.6,0.6C98.5,3.1,99,3.9,99,4.8V29
				c0,0.9-0.5,1.7-1.4,2.2C96.8,31.6,96,31.8,95,31.8z"/>
			<path d="M95,3c0.8,0,1.5,0.2,2.1,0.5S98,4.2,98,4.8V29c0,0.6-0.3,1-0.9,1.3s-1.3,0.5-2.1,0.5c-1.6,0-2.7-0.5-3.3-1.6l-7.2-13.1
				V29c0,0.6-0.3,1-0.9,1.3s-1.3,0.5-2.1,0.5c-0.8,0-1.5-0.2-2.1-0.5s-0.9-0.8-0.9-1.3V4.9c0-0.6,0.3-1,0.9-1.3s1.3-0.5,2.1-0.5
				c1.1,0,2,0.2,2.5,0.5s1.2,1.2,1.8,2.5L92,17.8v-13c0-0.6,0.3-1,0.9-1.3S94.2,3,95,3 M95,1c-1.1,0-2.1,0.2-3,0.7
				c-1.2,0.6-1.9,1.8-1.9,3.1v4.8l-2.4-4.5c-0.9-1.7-1.7-2.7-2.6-3.3c-0.9-0.5-2-0.8-3.6-0.8c-1.1,0-2.2,0.2-3,0.7
				c-1.2,0.7-1.9,1.8-1.9,3.1V29c0,1.3,0.7,2.4,1.9,3.1c0.9,0.5,1.9,0.7,3,0.7s2.2-0.2,3-0.7c1.2-0.7,1.9-1.8,1.9-3.1v-5.1l3.5,6.3
				c0.7,1.2,2.1,2.6,5.1,2.6c1.1,0,2.2-0.2,3-0.7c1.2-0.7,1.9-1.8,1.9-3.1V4.8c0-1.3-0.7-2.5-1.9-3.1C97.2,1.3,96.1,1,95,1L95,1z"/>
		</g>
		<g>
			<path class="st0" d="M117.5,32.2c-2.6,0-4.9-0.6-6.9-1.6c-2.2-1.2-3.3-2.6-3.3-4.3c0-0.9,0.3-1.8,1-2.7c0.9-1.2,1.9-1.5,2.6-1.5
				c0.6,0,1.2,0.2,1.8,0.6c0.5,0.3,1,0.7,1.4,1.1c0.3,0.3,0.8,0.6,1.4,0.8c0.6,0.3,1.2,0.4,1.8,0.4c0.8,0,1.5-0.2,2.1-0.5
				c0.4-0.2,0.6-0.5,0.6-1c0-0.3-0.1-0.8-0.8-1.4c-0.8-0.6-1.7-1.1-2.8-1.6c-1.2-0.5-2.4-1.1-3.6-1.8c-1.3-0.7-2.5-1.8-3.4-3.1
				c-0.9-1.4-1.4-3-1.4-4.8c0-3,1.1-5.3,3.3-6.8c2.1-1.4,4.6-2.2,7.5-2.2c0.7,0,1.4,0,2.2,0.1s1.6,0.2,2.6,0.5
				c1.1,0.3,1.9,0.7,2.6,1.3c0.8,0.7,1.2,1.6,1.2,2.6c0,0.8-0.3,1.7-0.8,2.6c-0.8,1.3-1.8,1.6-2.6,1.6c-0.4,0-0.9-0.1-2.4-0.8
				c-0.8-0.4-1.8-0.6-2.8-0.6s-1.8,0.2-2.3,0.5s-0.5,0.6-0.5,0.8c0,0.1,0,0.4,0.5,0.8s1.2,0.8,2,1.1c0.9,0.4,1.9,0.8,3,1.4
				c1.1,0.6,2.1,1.2,3,1.9c1,0.7,1.9,1.8,2.5,3.1c0.7,1.3,1,2.8,1,4.4c0,2.9-1,5.2-3,6.9C123.1,31.4,120.6,32.2,117.5,32.2z"/>
			<path d="M118.8,2.8c0.7,0,1.3,0,2.1,0.1c0.7,0.1,1.5,0.2,2.4,0.5c0.9,0.2,1.6,0.6,2.2,1.1c0.6,0.5,0.9,1.1,0.9,1.8
				c0,0.7-0.2,1.4-0.6,2.1c-0.4,0.7-1,1.1-1.7,1.1c-0.3,0-0.9-0.2-1.9-0.7s-2.1-0.7-3.3-0.7c-1.3,0-2.2,0.2-2.8,0.7
				c-0.6,0.4-1,1-1,1.6s0.3,1.1,0.9,1.6c0.6,0.5,1.3,0.9,2.2,1.2s1.9,0.8,2.9,1.3c1.1,0.5,2,1.1,2.9,1.8c0.9,0.6,1.6,1.6,2.2,2.7
				s0.9,2.5,0.9,4c0,2.6-0.9,4.6-2.6,6.1c-1.7,1.5-4,2.2-6.9,2.2c-2.5,0-4.6-0.5-6.4-1.5c-1.8-1-2.7-2.2-2.7-3.4
				c0-0.7,0.3-1.4,0.8-2.1c0.5-0.7,1.1-1.1,1.8-1.1c0.4,0,0.8,0.2,1.3,0.5s0.9,0.6,1.3,1c0.4,0.4,0.9,0.7,1.7,1
				c0.7,0.3,1.5,0.5,2.2,0.5c1,0,1.8-0.2,2.6-0.6c0.7-0.4,1.1-1,1.1-1.9s-0.4-1.6-1.2-2.2c-0.8-0.6-1.8-1.2-3-1.7s-2.4-1.1-3.6-1.7
				c-1.2-0.6-2.2-1.6-3-2.8s-1.2-2.6-1.2-4.3c0-2.7,1-4.7,2.9-6C113.8,3.5,116.1,2.8,118.8,2.8 M118.8,0.8c-3.1,0-5.8,0.8-8,2.4
				c-2.4,1.7-3.7,4.3-3.7,7.7c0,2.1,0.5,3.9,1.6,5.4c1,1.4,2.2,2.6,3.7,3.4c1.2,0.7,2.5,1.3,3.7,1.8c1,0.5,1.9,1,2.6,1.5
				c0.5,0.3,0.5,0.6,0.5,0.6v0.1c0,0,0,0-0.1,0.1c-0.4,0.2-1,0.4-1.6,0.4c-0.5,0-1-0.1-1.4-0.3c-0.6-0.3-0.9-0.5-1.1-0.6
				c-0.5-0.5-1-0.9-1.6-1.2c-0.8-0.5-1.6-0.8-2.4-0.8c-0.9,0-2.3,0.3-3.4,1.9c-0.8,1.1-1.2,2.2-1.2,3.3c0,2,1.3,3.8,3.8,5.2
				c2.1,1.2,4.6,1.8,7.4,1.8c3.3,0,6-0.9,8.2-2.6c2.2-1.8,3.3-4.4,3.3-7.6c0-1.8-0.4-3.5-1.1-4.9c-0.7-1.4-1.7-2.6-2.8-3.4
				c-1-0.7-2-1.4-3.2-1.9c-1.1-0.6-2.2-1.1-3.1-1.4c-0.7-0.3-1.3-0.6-1.7-0.9l0,0c0.1-0.1,0.6-0.3,1.7-0.3c0.9,0,1.7,0.2,2.4,0.5
				c1.6,0.8,2.3,0.9,2.8,0.9c1.5,0,2.7-0.7,3.5-2.1c0.6-1,0.9-2.1,0.9-3.1c0-1.3-0.5-2.4-1.5-3.3c-0.8-0.7-1.8-1.2-3-1.5
				c-1-0.2-1.9-0.4-2.7-0.5C120.3,0.9,119.5,0.8,118.8,0.8L118.8,0.8z"/>
		</g>
		<g>
			<path class="st0" d="M155.7,31.8c-1,0-1.8-0.2-2.6-0.6c-0.9-0.5-1.4-1.3-1.4-2.2V4.9c0-0.9,0.4-1.7,1.2-2.2
				c0.7-0.4,1.5-0.6,2.4-0.6h13.2c0.9,0,1.7,0.4,2.2,1.2c0.4,0.7,0.6,1.4,0.6,2.3s-0.2,1.7-0.6,2.4c-0.5,0.8-1.2,1.2-2.2,1.2h-8.8
				v4.4h4.7c0.9,0,1.6,0.4,2.1,1.1c0.4,0.6,0.7,1.4,0.7,2.2s-0.2,1.5-0.6,2.1c-0.5,0.7-1.2,1.1-2.2,1.1h-4.7V29
				c0,0.9-0.5,1.7-1.4,2.2C157.5,31.6,156.7,31.8,155.7,31.8z"/>
			<path d="M168.5,3c0.6,0,1,0.3,1.3,0.8s0.5,1.1,0.5,1.8c0,0.7-0.2,1.4-0.5,1.9s-0.8,0.8-1.3,0.8h-9.8v6.4h5.7c0.6,0,1,0.2,1.3,0.7
				s0.5,1,0.5,1.6s-0.2,1.1-0.5,1.6s-0.7,0.7-1.3,0.7h-5.7V29c0,0.6-0.3,1-0.9,1.3c-0.6,0.3-1.3,0.5-2.1,0.5s-1.5-0.2-2.1-0.5
				s-0.9-0.8-0.9-1.3V4.9c0-0.6,0.3-1,0.8-1.3s1.1-0.5,1.8-0.5h13.2 M168.5,1h-13.2c-1.1,0-2.1,0.3-2.9,0.8c-1.1,0.7-1.7,1.8-1.7,3
				V29c0,1.3,0.7,2.4,1.9,3.1c0.9,0.5,1.9,0.7,3,0.7s2.2-0.2,3-0.7c1.2-0.7,1.9-1.8,1.9-3.1v-7.8h3.7c1.3,0,2.3-0.6,3-1.6
				c0.5-0.8,0.8-1.7,0.8-2.7s-0.3-2-0.8-2.8c-0.7-1-1.7-1.5-3-1.5h-3.7v-2.4h7.8c1.3,0,2.3-0.6,3-1.7c0.5-0.8,0.8-1.8,0.8-2.9
				c0-1-0.2-2-0.7-2.8C170.9,1.7,169.8,1,168.5,1L168.5,1z"/>
		</g>
		<g>
			<path class="st0" d="M188.6,32c-3,0-5.5-0.8-7.4-2.4c-1.9-1.6-2.9-4.2-2.9-7.6V12c0-3.4,1-5.9,2.9-7.6c1.9-1.6,4.4-2.4,7.4-2.4
				c3.1,0,5.6,0.8,7.4,2.4c1.9,1.6,2.9,4.2,2.9,7.6v10.1c0,3.4-1,5.9-2.9,7.6C194.2,31.2,191.7,32,188.6,32z M188.6,9.2
				c-1.2,0-2.4,0.3-2.4,2.8v10.1c0,2.5,1.1,2.8,2.4,2.8c1.3,0,2.4-0.3,2.4-2.8V12C191.1,9.5,189.9,9.2,188.6,9.2z"/>
			<path d="M188.6,3c2.8,0,5.1,0.7,6.8,2.2c1.7,1.4,2.5,3.7,2.5,6.8v10.1c0,3.1-0.8,5.4-2.5,6.8c-1.7,1.4-4,2.2-6.8,2.2
				s-5.1-0.7-6.8-2.2c-1.7-1.4-2.5-3.7-2.5-6.8V12c0-3.1,0.8-5.4,2.5-6.8C183.6,3.8,185.8,3,188.6,3 M188.6,25.9
				c2.3,0,3.4-1.3,3.4-3.8V12c0-2.5-1.1-3.8-3.4-3.8c-2.3,0-3.4,1.3-3.4,3.8v10.1C185.3,24.6,186.4,25.9,188.6,25.9 M188.6,1
				c-3.3,0-6,0.9-8.1,2.6c-2.2,1.8-3.3,4.6-3.3,8.3V22c0,3.7,1.1,6.5,3.3,8.3c2.1,1.8,4.8,2.6,8.1,2.6s6-0.9,8.1-2.6
				c2.2-1.8,3.2-4.6,3.2-8.3V12c0-3.7-1.1-6.5-3.2-8.3C194.7,1.9,192,1,188.6,1L188.6,1z M188.6,23.9c-0.8,0-1.4,0-1.4-1.8V12
				c0-1.8,0.6-1.8,1.4-1.8c0.8,0,1.4,0,1.4,1.8v10.1C190.1,23.9,189.5,23.9,188.6,23.9L188.6,23.9z"/>
		</g>
		<g>
			<path class="st0" d="M224.9,32c-1.3,0-2.2-0.6-2.8-1.6l-4.9-9.6h-0.9V29c0,0.9-0.5,1.7-1.4,2.2c-0.7,0.4-1.6,0.6-2.6,0.6
				s-1.8-0.2-2.6-0.6c-0.9-0.5-1.4-1.3-1.4-2.2V4.8c0-0.7,0.3-1.4,0.8-1.9s1.2-0.8,2-0.8h7.9c8.6,0,10.3,5,10.3,9.1
				c0,3.9-1.4,6.7-4.2,8.2l4.1,7.4c0.2,0.3,0.3,0.7,0.3,1.2c0,1-0.5,2-1.6,2.9C227.1,31.6,226.1,32,224.9,32z M219.1,14.3
				c0.8,0,1.5-0.2,1.9-0.5c0.5-0.4,0.6-1.3,0.6-2s-0.1-1.6-0.6-2c-0.4-0.4-1-0.5-1.9-0.5h-2.8v5.1L219.1,14.3L219.1,14.3z"/>
			<path d="M219.1,3c6.2,0,9.3,2.7,9.3,8.1c0,4-1.5,6.5-4.6,7.7l4.6,8.4c0.1,0.2,0.2,0.4,0.2,0.7c0,0.7-0.4,1.4-1.2,2.1
				s-1.6,1-2.5,1s-1.5-0.4-1.9-1.1l-5.2-10.1h-2.5V29c0,0.6-0.3,1-0.9,1.3c-0.6,0.3-1.3,0.5-2.1,0.5s-1.5-0.2-2.1-0.5
				s-0.9-0.8-0.9-1.3V4.8c0-0.5,0.2-0.9,0.5-1.3s0.8-0.5,1.3-0.5H219.1 M215.3,15.3h3.8c1.1,0,2-0.3,2.5-0.8
				c0.6-0.5,0.9-1.4,0.9-2.7s-0.3-2.2-0.9-2.7c-0.6-0.5-1.4-0.8-2.5-0.8h-3.8V15.3 M219.1,1h-7.9c-1.1,0-2,0.4-2.7,1.1
				s-1.1,1.6-1.1,2.6V29c0,1.3,0.7,2.4,1.9,3.1c0.9,0.5,1.9,0.7,3,0.7s2.2-0.2,3-0.7c1.2-0.7,1.9-1.8,1.9-3.1v-5.8l3.9,7.6
				c0.7,1.4,2,2.2,3.7,2.2c1.4,0,2.6-0.5,3.8-1.4c1.6-1.3,1.9-2.7,1.9-3.6c0-0.6-0.2-1.2-0.5-1.7l-3.6-6.6c2-1.4,3.9-4,3.9-8.5
				C230.4,2.4,223.3,1,219.1,1L219.1,1z M217.3,10.2h1.8c0.6,0,1,0.1,1.2,0.3c0.1,0.1,0.2,0.4,0.2,1.3c0,0.8-0.2,1.2-0.2,1.3
				c-0.2,0.2-0.6,0.3-1.2,0.3h-1.8V10.2L217.3,10.2z"/>
		</g>
		<g>
			<path class="st0" d="M262.2,32.2c-2.6,0-4.9-0.6-6.9-1.6c-2.2-1.2-3.3-2.6-3.3-4.3c0-0.9,0.3-1.8,1-2.7c0.9-1.2,1.9-1.5,2.6-1.5
				c0.6,0,1.2,0.2,1.8,0.6c0.5,0.3,1,0.7,1.4,1.1c0.3,0.3,0.8,0.6,1.4,0.8c0.6,0.3,1.2,0.4,1.8,0.4c0.8,0,1.5-0.2,2.1-0.5
				c0.4-0.2,0.6-0.5,0.6-1c0-0.3-0.1-0.8-0.8-1.4c-0.8-0.6-1.7-1.1-2.8-1.6c-1.2-0.5-2.4-1.1-3.6-1.8c-1.3-0.7-2.5-1.8-3.4-3.1
				c-0.9-1.4-1.4-3-1.4-4.8c0-3,1.1-5.3,3.3-6.8c2.1-1.4,4.6-2.2,7.5-2.2c0.7,0,1.4,0,2.2,0.1c0.8,0.1,1.6,0.2,2.6,0.5
				c1.1,0.3,1.9,0.7,2.6,1.3c0.8,0.7,1.2,1.6,1.2,2.6c0,0.8-0.3,1.7-0.8,2.6c-0.8,1.3-1.8,1.6-2.6,1.6c-0.4,0-0.9-0.1-2.4-0.8
				c-0.8-0.4-1.8-0.6-2.8-0.6s-1.8,0.2-2.3,0.5s-0.5,0.6-0.5,0.8c0,0.1,0,0.4,0.5,0.8s1.2,0.8,2,1.1c0.9,0.4,1.9,0.8,3,1.4
				c1.1,0.6,2.1,1.2,3,1.9c1,0.7,1.9,1.8,2.5,3.1c0.7,1.3,1,2.8,1,4.4c0,2.9-1,5.2-3,6.9C267.8,31.4,265.3,32.2,262.2,32.2z"/>
			<path d="M263.5,2.8c0.7,0,1.3,0,2.1,0.1c0.7,0.1,1.5,0.2,2.4,0.5c0.9,0.2,1.6,0.6,2.2,1.1s0.9,1.1,0.9,1.8c0,0.7-0.2,1.4-0.6,2.1
				s-1,1.1-1.7,1.1c-0.3,0-0.9-0.2-1.9-0.7s-2.1-0.7-3.3-0.7c-1.3,0-2.2,0.2-2.8,0.7c-0.6,0.4-1,1-1,1.6s0.3,1.1,0.9,1.6
				s1.3,0.9,2.2,1.2c0.9,0.3,1.9,0.8,2.9,1.3c1.1,0.5,2,1.1,2.9,1.8c0.9,0.6,1.6,1.6,2.2,2.7s0.9,2.5,0.9,4c0,2.6-0.9,4.6-2.6,6.1
				s-4,2.2-6.9,2.2c-2.5,0-4.6-0.5-6.4-1.5s-2.7-2.2-2.7-3.4c0-0.7,0.3-1.4,0.8-2.1c0.5-0.7,1.1-1.1,1.8-1.1c0.4,0,0.8,0.2,1.3,0.5
				s0.9,0.6,1.3,1s0.9,0.7,1.7,1c0.7,0.3,1.5,0.5,2.2,0.5c1,0,1.8-0.2,2.6-0.6c0.7-0.4,1.1-1,1.1-1.9s-0.4-1.6-1.2-2.2
				c-0.8-0.6-1.8-1.2-3-1.7s-2.4-1.1-3.6-1.7c-1.2-0.6-2.2-1.6-3-2.8S254,12.7,254,11c0-2.7,1-4.7,2.9-6S260.8,2.8,263.5,2.8
				 M263.5,0.8c-3.1,0-5.8,0.8-8,2.4c-2.4,1.7-3.7,4.3-3.7,7.7c0,2.1,0.5,3.9,1.6,5.4c1,1.4,2.2,2.6,3.7,3.4
				c1.2,0.7,2.5,1.3,3.7,1.8c1,0.5,1.9,1,2.6,1.5c0.5,0.3,0.5,0.6,0.5,0.6v0.1c0,0,0,0-0.1,0.1c-0.4,0.2-1,0.4-1.6,0.4
				c-0.5,0-1-0.1-1.4-0.3c-0.6-0.3-0.9-0.5-1.1-0.6c-0.5-0.5-1-0.9-1.6-1.2c-0.8-0.5-1.6-0.8-2.4-0.8c-0.9,0-2.3,0.3-3.4,1.9
				c-0.8,1.1-1.2,2.2-1.2,3.3c0,2,1.3,3.8,3.8,5.2c2.1,1.2,4.6,1.8,7.4,1.8c3.3,0,6-0.9,8.2-2.6c2.2-1.8,3.3-4.4,3.3-7.6
				c0-1.8-0.4-3.5-1.1-4.9s-1.7-2.6-2.8-3.4c-1-0.7-2-1.4-3.2-1.9c-1.1-0.6-2.2-1.1-3.1-1.4c-0.7-0.3-1.3-0.6-1.7-0.9l0,0
				c0.1-0.1,0.6-0.3,1.7-0.3c0.9,0,1.7,0.2,2.4,0.5c1.6,0.8,2.3,0.9,2.8,0.9c1.5,0,2.7-0.7,3.5-2.1c0.6-1,0.9-2.1,0.9-3.1
				c0-1.3-0.5-2.4-1.5-3.3c-0.8-0.7-1.8-1.2-3-1.5c-1-0.2-1.9-0.4-2.7-0.5C265,0.9,264.2,0.8,263.5,0.8L263.5,0.8z"/>
		</g>
		<g>
			<path class="st0" d="M291.1,32c-2.9,0-5.4-0.8-7.2-2.4C282,28,281,25.4,281,22V12c0-3.4,1-5.9,2.9-7.6c1.9-1.6,4.3-2.4,7.2-2.4
				c3,0,5.5,0.7,7.5,2.2s3.1,3.7,3.1,6.3c0,1.4-0.3,2.4-1,3c-0.6,0.6-1.6,0.8-2.9,0.8c-3.3,0-3.9-1.7-4-2.7
				c-0.1-1.8-0.8-2.5-2.4-2.5c-1.3,0-2.4,0.3-2.4,2.8V22c0,2.5,1.2,2.8,2.5,2.8c0.6,0,1-0.1,1.3-0.2c0.3-0.1,0.4-0.3,0.5-0.5
				c0.2-0.5,0.3-0.8,0.3-1c0.1-0.3,0.1-0.6,0.2-1.1c0.1-1,0.7-2.7,3.9-2.7c1.3,0,2.3,0.3,3,0.8c0.7,0.6,1,1.6,1,3c0,2.8-1,5-3.1,6.6
				C296.6,31.3,294.1,32,291.1,32z"/>
			<path d="M291.1,3c2.8,0,5.1,0.7,6.9,2s2.7,3.2,2.7,5.5c0,1.1-0.2,1.8-0.7,2.2s-1.2,0.6-2.3,0.6c-1.9,0-2.9-0.6-3-1.8
				c-0.1-2.3-1.2-3.4-3.4-3.4c-2.3,0-3.4,1.3-3.4,3.8V22c0,2.5,1.2,3.8,3.5,3.8c0.7,0,1.3-0.1,1.8-0.3s0.8-0.6,1-1
				c0.2-0.5,0.3-0.9,0.4-1.2s0.1-0.7,0.2-1.3c0.1-1.2,1.1-1.8,2.9-1.8c1.1,0,1.9,0.2,2.3,0.6s0.7,1.1,0.7,2.2c0,2.5-0.9,4.4-2.7,5.8
				c-1.8,1.4-4.1,2.1-6.9,2.1c-2.7,0-4.9-0.7-6.6-2.2c-1.7-1.4-2.5-3.7-2.5-6.8V12c0-3.1,0.8-5.4,2.5-6.8C286.1,3.8,288.3,3,291.1,3
				 M291.1,1c-3.2,0-5.8,0.9-7.9,2.6c-2.1,1.8-3.2,4.6-3.2,8.3V22c0,3.7,1.1,6.5,3.2,8.3c2,1.8,4.7,2.6,7.9,2.6c3.2,0,6-0.9,8.1-2.6
				c2.3-1.8,3.4-4.3,3.4-7.4c0-1.7-0.5-3-1.4-3.7c-0.8-0.7-2-1.1-3.6-1.1c-4.3,0-4.8,2.8-4.9,3.6c-0.1,0.6-0.1,0.9-0.1,1
				s-0.1,0.3-0.3,0.8l0,0c-0.1,0.1-0.4,0.1-0.9,0.1c-0.9,0-1.5-0.1-1.5-1.8V12c0-1.8,0.6-1.8,1.4-1.8c0.9,0,1.3,0.1,1.4,1.5
				c0,0,0,0,0,0.1c0.1,0.9,0.6,3.7,5,3.7c1.6,0,2.7-0.4,3.6-1.1c0.9-0.8,1.4-2,1.4-3.7c0-3-1.2-5.4-3.5-7.1C297,1.9,294.3,1,291.1,1
				L291.1,1z"/>
		</g>
		<g>
			<path class="st0" d="M314.2,31.8c-1,0-1.8-0.2-2.6-0.6c-0.9-0.5-1.4-1.3-1.4-2.2V4.8c0-1,0.5-1.7,1.4-2.2
				c0.7-0.4,1.6-0.6,2.6-0.6s1.8,0.2,2.6,0.6c0.9,0.5,1.4,1.3,1.4,2.2V29c0,0.9-0.5,1.7-1.4,2.2C316,31.6,315.1,31.8,314.2,31.8z"/>
			<path d="M314.2,3c0.8,0,1.5,0.2,2.1,0.5s0.9,0.7,0.9,1.3V29c0,0.6-0.3,1-0.9,1.3s-1.3,0.5-2.1,0.5c-0.8,0-1.5-0.2-2.1-0.5
				s-0.9-0.8-0.9-1.3V4.8c0-0.6,0.3-1,0.9-1.3C312.6,3.2,313.3,3,314.2,3 M314.2,1c-1.1,0-2.1,0.2-3,0.7c-1.2,0.6-1.9,1.8-1.9,3.1
				V29c0,1.3,0.7,2.4,1.9,3.1c0.9,0.5,1.9,0.7,3,0.7s2.2-0.2,3-0.7c1.2-0.7,1.9-1.8,1.9-3.1V4.8c0-1.3-0.7-2.5-1.9-3.1
				C316.3,1.3,315.3,1,314.2,1L314.2,1z"/>
		</g>
		<g>
			<path class="st0" d="M331.4,31.8c-0.9,0-1.7-0.2-2.4-0.6c-0.8-0.5-1.2-1.3-1.2-2.2V4.9c0-0.9,0.4-1.7,1.2-2.2
				c0.7-0.4,1.5-0.6,2.4-0.6h13.5c0.9,0,1.7,0.4,2.2,1.2c0.4,0.7,0.6,1.4,0.6,2.3s-0.2,1.7-0.6,2.4c-0.5,0.8-1.3,1.2-2.2,1.2h-9.2
				v4.4h4.7c0.9,0,1.6,0.4,2.1,1.1c0.4,0.6,0.7,1.4,0.7,2.2s-0.2,1.5-0.6,2.1c-0.5,0.7-1.2,1.1-2.2,1.1h-4.7v4.5h9.2
				c0.9,0,1.7,0.4,2.2,1.2c0.4,0.7,0.6,1.5,0.6,2.4s-0.2,1.6-0.6,2.3c-0.5,0.8-1.3,1.2-2.2,1.2h-13.5V31.8z"/>
			<path d="M344.9,3c0.6,0,1,0.3,1.3,0.8s0.5,1.1,0.5,1.8c0,0.7-0.2,1.4-0.5,1.9s-0.8,0.8-1.3,0.8h-10.2v6.4h5.7
				c0.6,0,1,0.2,1.3,0.7s0.5,1,0.5,1.6s-0.2,1.1-0.5,1.6s-0.7,0.7-1.3,0.7h-5.7v6.5h10.2c0.6,0,1,0.3,1.3,0.8s0.5,1.1,0.5,1.9
				c0,0.7-0.2,1.3-0.5,1.8s-0.7,0.8-1.3,0.8h-13.5c-0.7,0-1.3-0.2-1.8-0.5s-0.8-0.8-0.8-1.3V4.9c0-0.6,0.3-1,0.8-1.3
				s1.1-0.5,1.8-0.5h13.5 M344.9,1h-13.5c-1.1,0-2.1,0.3-2.9,0.8c-1.1,0.7-1.7,1.8-1.7,3V29c0,1.3,0.6,2.4,1.7,3
				c0.8,0.5,1.8,0.8,2.9,0.8h13.5c1.3,0,2.4-0.6,3-1.7c0.5-0.8,0.7-1.8,0.7-2.8c0-1.1-0.3-2.1-0.8-2.9c-0.7-1.1-1.8-1.7-3-1.7h-8.2
				v-2.5h3.7c1.3,0,2.3-0.6,3-1.6c0.5-0.8,0.8-1.7,0.8-2.7s-0.3-2-0.8-2.8c-0.7-1-1.7-1.5-3-1.5h-3.7v-2.4h8.2c1.3,0,2.3-0.6,3-1.7
				c0.5-0.8,0.8-1.8,0.8-2.9c0-1-0.2-2-0.7-2.8C347.3,1.7,346.2,1,344.9,1L344.9,1z"/>
		</g>
		<g>
			<path class="st0" d="M373.4,31.8c-2.5,0-3.7-1.2-4.2-2.1l-5.3-9.7v9c0,0.9-0.5,1.7-1.4,2.2c-0.7,0.4-1.6,0.6-2.6,0.6
				s-1.8-0.2-2.6-0.6c-0.9-0.5-1.4-1.3-1.4-2.2V4.9c0-0.9,0.5-1.7,1.4-2.2c0.7-0.4,1.6-0.6,2.6-0.6c1.3,0,2.3,0.2,3,0.6
				s1.4,1.3,2.2,2.9l4.3,8.1V4.8c0-1,0.5-1.7,1.4-2.2c0.7-0.4,1.6-0.6,2.6-0.6s1.8,0.2,2.6,0.6c0.9,0.5,1.4,1.3,1.4,2.2V29
				c0,0.9-0.5,1.7-1.4,2.2C375.2,31.6,374.3,31.8,373.4,31.8z"/>
			<path d="M373.4,3c0.8,0,1.5,0.2,2.1,0.5s0.9,0.7,0.9,1.3V29c0,0.6-0.3,1-0.9,1.3s-1.3,0.5-2.1,0.5c-1.6,0-2.7-0.5-3.3-1.6
				l-7.2-13.1V29c0,0.6-0.3,1-0.9,1.3s-1.3,0.5-2.1,0.5c-0.8,0-1.5-0.2-2.1-0.5s-0.9-0.8-0.9-1.3V4.9c0-0.6,0.3-1,0.9-1.3
				s1.3-0.5,2.1-0.5c1.1,0,2,0.2,2.5,0.5s1.2,1.2,1.8,2.5l6.2,11.7v-13c0-0.6,0.3-1,0.9-1.3S372.5,3,373.4,3 M373.4,1
				c-1.1,0-2.1,0.2-3,0.7c-1.2,0.6-1.9,1.8-1.9,3.1v4.8l-2.4-4.5c-0.9-1.7-1.7-2.7-2.6-3.3c-0.9-0.5-2-0.8-3.6-0.8
				c-1.1,0-2.2,0.2-3,0.7c-1.2,0.7-1.9,1.8-1.9,3.1V29c0,1.3,0.7,2.4,1.9,3.1c0.9,0.5,1.9,0.7,3,0.7s2.2-0.2,3-0.7
				c1.2-0.7,1.9-1.8,1.9-3.1v-5.1l3.5,6.3c0.7,1.2,2.1,2.6,5.1,2.6c1.1,0,2.2-0.2,3-0.7c1.2-0.7,1.9-1.8,1.9-3.1V4.8
				c0-1.3-0.7-2.5-1.9-3.1C375.5,1.3,374.5,1,373.4,1L373.4,1z"/>
		</g>
		<g>
			<path class="st0" d="M396.8,32c-2.9,0-5.4-0.8-7.2-2.4c-1.9-1.6-2.9-4.2-2.9-7.6V12c0-3.4,1-5.9,2.9-7.6c1.9-1.6,4.3-2.4,7.2-2.4
				c3,0,5.5,0.7,7.5,2.2s3.1,3.7,3.1,6.3c0,1.4-0.3,2.4-1,3c-0.6,0.6-1.6,0.8-2.9,0.8c-3.3,0-3.9-1.7-4-2.7
				c-0.1-1.8-0.8-2.5-2.4-2.5c-1.3,0-2.4,0.3-2.4,2.8V22c0,2.5,1.2,2.8,2.5,2.8c0.6,0,1-0.1,1.3-0.2c0.3-0.1,0.4-0.3,0.5-0.5
				c0.2-0.5,0.3-0.8,0.3-1c0.1-0.3,0.1-0.6,0.2-1.1c0.1-1,0.7-2.7,3.9-2.7c1.3,0,2.3,0.3,3,0.8c0.7,0.6,1,1.6,1,3c0,2.8-1,5-3.1,6.6
				C402.4,31.3,399.8,32,396.8,32z"/>
			<path d="M396.8,3c2.8,0,5.1,0.7,6.9,2s2.7,3.2,2.7,5.5c0,1.1-0.2,1.8-0.7,2.2s-1.2,0.6-2.3,0.6c-1.9,0-2.9-0.6-3-1.8
				c-0.1-2.3-1.2-3.4-3.4-3.4c-2.3,0-3.4,1.3-3.4,3.8V22c0,2.5,1.2,3.8,3.5,3.8c0.7,0,1.3-0.1,1.8-0.3s0.8-0.6,1-1
				c0.2-0.5,0.3-0.9,0.4-1.2s0.1-0.7,0.2-1.3c0.1-1.2,1.1-1.8,2.9-1.8c1.1,0,1.9,0.2,2.3,0.6s0.7,1.1,0.7,2.2c0,2.5-0.9,4.4-2.7,5.8
				c-1.8,1.4-4.1,2.1-6.9,2.1c-2.7,0-4.9-0.7-6.6-2.2c-1.7-1.4-2.5-3.7-2.5-6.8V12c0-3.1,0.8-5.4,2.5-6.8C391.9,3.8,394.1,3,396.8,3
				 M396.8,1c-3.2,0-5.8,0.9-7.9,2.6c-2.1,1.8-3.2,4.6-3.2,8.3V22c0,3.7,1.1,6.5,3.2,8.3c2,1.8,4.7,2.6,7.9,2.6c3.2,0,6-0.9,8.1-2.6
				c2.3-1.8,3.4-4.3,3.4-7.4c0-1.7-0.5-3-1.4-3.7c-0.8-0.7-2-1.1-3.6-1.1c-4.3,0-4.8,2.8-4.9,3.6c-0.1,0.6-0.1,0.9-0.1,1
				s-0.1,0.3-0.3,0.8l0,0c-0.1,0.1-0.4,0.1-0.9,0.1c-0.9,0-1.5-0.1-1.5-1.8V12c0-1.8,0.6-1.8,1.4-1.8c0.9,0,1.3,0.1,1.4,1.5
				c0,0,0,0,0,0.1c0.1,0.9,0.6,3.7,5,3.7c1.6,0,2.7-0.4,3.6-1.1c0.9-0.8,1.4-2,1.4-3.7c0-3-1.2-5.4-3.5-7.1
				C402.8,1.9,400.1,1,396.8,1L396.8,1z"/>
		</g>
		<g>
			<path class="st0" d="M419.6,31.8c-0.9,0-1.7-0.2-2.4-0.6c-0.8-0.5-1.2-1.3-1.2-2.2V4.9c0-0.9,0.4-1.7,1.2-2.2
				c0.7-0.4,1.5-0.6,2.4-0.6h13.5c0.9,0,1.7,0.4,2.2,1.2c0.4,0.7,0.6,1.4,0.6,2.3s-0.2,1.7-0.6,2.4c-0.5,0.8-1.3,1.2-2.2,1.2h-9.2
				v4.4h4.7c0.9,0,1.6,0.4,2.1,1.1c0.4,0.6,0.7,1.4,0.7,2.2s-0.2,1.5-0.6,2.1c-0.5,0.7-1.2,1.1-2.2,1.1h-4.7v4.5h9.2
				c0.9,0,1.7,0.4,2.2,1.2c0.4,0.7,0.6,1.5,0.6,2.4s-0.2,1.6-0.6,2.3c-0.5,0.8-1.3,1.2-2.2,1.2h-13.5V31.8z"/>
			<path d="M433.1,3c0.6,0,1,0.3,1.3,0.8s0.5,1.1,0.5,1.8c0,0.7-0.2,1.4-0.5,1.9s-0.8,0.8-1.3,0.8h-10.2v6.4h5.7
				c0.6,0,1,0.2,1.3,0.7s0.5,1,0.5,1.6s-0.2,1.1-0.5,1.6s-0.7,0.7-1.3,0.7h-5.7v6.5h10.2c0.6,0,1,0.3,1.3,0.8s0.5,1.1,0.5,1.9
				c0,0.7-0.2,1.3-0.5,1.8s-0.7,0.8-1.3,0.8h-13.5c-0.7,0-1.3-0.2-1.8-0.5s-0.8-0.8-0.8-1.3V4.9c0-0.6,0.3-1,0.8-1.3
				s1.1-0.5,1.8-0.5h13.5 M433.1,1h-13.5c-1.1,0-2.1,0.3-2.9,0.8c-1.1,0.7-1.7,1.8-1.7,3V29c0,1.3,0.6,2.4,1.7,3
				c0.8,0.5,1.8,0.8,2.9,0.8h13.5c1.3,0,2.4-0.6,3-1.7c0.5-0.8,0.7-1.8,0.7-2.8c0-1.1-0.3-2.1-0.8-2.9c-0.7-1.1-1.8-1.7-3-1.7h-8.2
				v-2.5h3.7c1.3,0,2.3-0.6,3-1.6c0.5-0.8,0.8-1.7,0.8-2.7s-0.3-2-0.8-2.8c-0.7-1-1.7-1.5-3-1.5h-3.7v-2.4h8.2c1.3,0,2.3-0.6,3-1.7
				c0.5-0.8,0.8-1.8,0.8-2.9c0-1-0.2-2-0.7-2.8C435.5,1.7,434.4,1,433.1,1L433.1,1z"/>
		</g>
	</g>
</g>
</svg>
