<?xml version="1.0" encoding="utf-8"?>
<!-- Generator: Adobe Illustrator 19.2.1, SVG Export Plug-In . SVG Version: 6.00 Build 0)  -->
<svg version="1.1" id="Layer_1" xmlns="http://www.w3.org/2000/svg" xmlns:xlink="http://www.w3.org/1999/xlink" x="0px" y="0px"
	 viewBox="0 0 185.7 138.5" style="enable-background:new 0 0 185.7 138.5;" xml:space="preserve">
<style type="text/css">
	.st0{fill:#FFFFFF;}
</style>
<g>
	<path d="M12.4,7c0.7,0,1.3,0,2.1,0.1c0.7,0.1,1.5,0.2,2.4,0.5c0.9,0.2,1.6,0.6,2.2,1.1c0.6,0.5,0.9,1.1,0.9,1.8
		c0,0.7-0.2,1.4-0.6,2.1s-1,1.1-1.7,1.1c-0.3,0-0.9-0.2-1.9-0.7s-2.1-0.7-3.3-0.7c-1.3,0-2.2,0.2-2.8,0.7c-0.6,0.4-1,1-1,1.6
		s0.3,1.1,0.9,1.6c0.6,0.5,1.3,0.9,2.2,1.2s1.9,0.8,2.9,1.3c1.1,0.5,2,1.1,2.9,1.8c0.9,0.6,1.6,1.6,2.2,2.7c0.6,1.2,0.9,2.5,0.9,4
		c0,2.6-0.9,4.6-2.6,6.1c-1.7,1.5-4,2.2-6.9,2.2c-2.5,0-4.6-0.5-6.4-1.5s-2.7-2.2-2.7-3.4c0-0.7,0.3-1.4,0.8-2.1
		c0.5-0.7,1.1-1.1,1.8-1.1c0.4,0,0.8,0.2,1.3,0.5s0.9,0.6,1.3,1s0.9,0.7,1.7,1c0.7,0.3,1.5,0.5,2.2,0.5c1,0,1.8-0.2,2.6-0.6
		c0.7-0.4,1.1-1,1.1-1.9s-0.4-1.6-1.2-2.2c-0.8-0.6-1.8-1.2-3-1.7s-2.4-1.1-3.6-1.7c-1.2-0.6-2.2-1.6-3-2.8s-1.2-2.6-1.2-4.3
		c0-2.7,1-4.7,2.9-6C7.4,7.7,9.7,7,12.4,7 M12.4,5c-3.1,0-5.8,0.8-8,2.4C2,9.1,0.7,11.7,0.7,15.1c0,2.1,0.5,3.9,1.6,5.4
		c1,1.4,2.2,2.6,3.7,3.4c1.2,0.7,2.5,1.3,3.7,1.8c1,0.5,1.9,1,2.6,1.5c0.5,0.3,0.5,0.6,0.5,0.6v0.1c0,0,0,0-0.1,0.1
		c-0.4,0.2-1,0.4-1.6,0.4c-0.5,0-1-0.1-1.4-0.3c-0.6-0.3-0.9-0.5-1.1-0.6c-0.5-0.5-1-0.9-1.6-1.2c-0.8-0.5-1.6-0.8-2.4-0.8
		c-0.9,0-2.3,0.3-3.4,1.9C0.4,28.5,0,29.6,0,30.7c0,2,1.3,3.8,3.8,5.2c2.1,1.2,4.6,1.8,7.4,1.8c3.3,0,6-0.9,8.2-2.6
		c2.2-1.8,3.3-4.4,3.3-7.6c0-1.8-0.4-3.5-1.1-4.9c-0.7-1.4-1.7-2.6-2.8-3.4c-1-0.7-2-1.4-3.2-1.9c-1.1-0.6-2.2-1.1-3.1-1.4
		c-0.7-0.3-1.3-0.6-1.7-0.9l0,0c0.1-0.1,0.6-0.3,1.7-0.3c0.9,0,1.7,0.2,2.4,0.5c1.6,0.8,2.3,0.9,2.8,0.9c1.5,0,2.7-0.7,3.5-2.1
		c0.6-1,0.9-2.1,0.9-3.1c0-1.3-0.5-2.4-1.5-3.3c-0.8-0.7-1.8-1.2-3-1.5c-1-0.2-1.9-0.4-2.7-0.5C13.9,5.1,13.1,5,12.4,5L12.4,5z"/>
	<path d="M34.1,7.2c0.8,0,1.5,0.2,2.1,0.5s0.9,0.7,0.9,1.3v24.2c0,0.6-0.3,1-0.9,1.3c-0.6,0.3-1.3,0.5-2.1,0.5
		c-0.8,0-1.5-0.2-2.1-0.5c-0.6-0.3-0.8-0.7-0.8-1.3V9c0-0.6,0.3-1,0.9-1.3C32.6,7.4,33.3,7.2,34.1,7.2 M34.1,5.2
		c-1.1,0-2.1,0.2-3,0.7c-1.2,0.6-1.9,1.8-1.9,3.1v24.2c0,1.3,0.7,2.4,1.9,3.1c0.9,0.5,1.9,0.7,3,0.7s2.2-0.2,3-0.7
		c1.2-0.7,1.9-1.8,1.9-3.1V9c0-1.3-0.7-2.5-1.9-3.1C36.3,5.5,35.2,5.2,34.1,5.2L34.1,5.2z"/>
	<path d="M57.6,7.2c2.8,0,5.1,0.7,6.9,2s2.7,3.2,2.7,5.5c0,1.1-0.2,1.8-0.7,2.2s-1.2,0.6-2.3,0.6c-2,0-2.9-0.6-3-1.8
		c0-0.4,0-0.7,0-0.9s-0.1-0.5-0.2-0.9s-0.3-0.6-0.5-0.8s-0.6-0.4-1-0.6c-0.4-0.2-1-0.2-1.6-0.2c-2.3,0-3.4,1.3-3.4,3.8v10.1
		c0,2.5,1.1,3.8,3.4,3.8s3.4-1.3,3.4-3.8v-1.3h-2.2c-0.6,0-1-0.2-1.3-0.7c-0.3-0.4-0.5-1-0.5-1.6s0.2-1.1,0.5-1.6s0.8-0.7,1.3-0.7
		h6.4c0.6,0,1,0.2,1.3,0.6c0.3,0.4,0.5,0.8,0.5,1.3v4c0,3.1-0.8,5.4-2.5,6.8c-1.7,1.4-4,2.2-6.8,2.2s-5.1-0.7-6.8-2.2
		c-1.7-1.4-2.5-3.7-2.5-6.8v-10c0-3.1,0.8-5.4,2.5-6.8C52.7,8,54.9,7.2,57.6,7.2 M57.6,5.2c-3.2,0-5.8,0.9-7.9,2.6
		c-2.1,1.8-3.2,4.6-3.2,8.3v10.1c0,3.7,1.1,6.5,3.3,8.3c2.1,1.8,4.8,2.6,8.1,2.6c3.3,0,6-0.9,8.1-2.6c2.2-1.8,3.2-4.6,3.2-8.3v-4
		c0-1-0.3-1.9-1-2.6c-0.3-0.3-0.6-0.6-0.9-0.8c0.2-0.1,0.3-0.2,0.5-0.4c0.9-0.8,1.4-2,1.4-3.7c0-3-1.2-5.4-3.5-7.1
		C63.5,6.1,60.8,5.2,57.6,5.2L57.6,5.2z M56.4,19.5v-3.3c0-1.8,0.6-1.8,1.4-1.8c0.5,0,0.7,0.1,0.9,0.1c0.2,0.1,0.3,0.1,0.3,0.2l0,0
		c0.1,0.3,0.1,0.4,0.1,0.4c0,0.1,0,0.3,0,0.7c0,0.5,0.2,1.7,1.1,2.6h-1.4C58,18.4,57.1,18.8,56.4,19.5L56.4,19.5z M57.8,28.1
		c-0.8,0-1.4,0-1.4-1.8V26c0.7,0.7,1.6,1.1,2.6,1.1h0.2C59,28.1,58.5,28.1,57.8,28.1L57.8,28.1z"/>
	<path d="M94.6,7.2c0.8,0,1.5,0.2,2.1,0.5s0.9,0.7,0.9,1.3v24.2c0,0.6-0.3,1-0.9,1.3S95.4,35,94.6,35c-1.6,0-2.7-0.5-3.3-1.6
		l-7.2-13.1v12.9c0,0.6-0.3,1-0.9,1.3S81.9,35,81.1,35c-0.8,0-1.5-0.2-2.1-0.5s-0.9-0.8-0.9-1.3V9.1c0-0.6,0.3-1,0.9-1.3
		s1.3-0.5,2.1-0.5c1.1,0,2,0.2,2.5,0.5s1.2,1.2,1.8,2.5L91.6,22V9c0-0.6,0.3-1,0.9-1.3S93.8,7.2,94.6,7.2 M94.6,5.2
		c-1.1,0-2.1,0.2-3,0.7c-1.2,0.6-1.9,1.8-1.9,3.1v4.8l-2.4-4.5c-0.9-1.7-1.7-2.7-2.6-3.3c-0.9-0.5-2-0.8-3.6-0.8
		c-1.1,0-2.2,0.2-3,0.7c-1.2,0.7-1.9,1.8-1.9,3.1v24.2c0,1.3,0.7,2.4,1.9,3.1c0.9,0.5,1.9,0.7,3,0.7s2.2-0.2,3-0.7
		c1.2-0.7,1.9-1.8,1.9-3.1v-5.1l3.5,6.3c0.7,1.2,2.1,2.6,5.1,2.6c1.1,0,2.2-0.2,3-0.7c1.2-0.7,1.9-1.8,1.9-3.1V9
		c0-1.3-0.7-2.5-1.9-3.1C96.8,5.5,95.7,5.2,94.6,5.2L94.6,5.2z"/>
	<path d="M118.4,7c0.7,0,1.3,0,2.1,0.1c0.7,0.1,1.5,0.2,2.4,0.5c0.9,0.2,1.6,0.6,2.2,1.1c0.6,0.5,0.9,1.1,0.9,1.8
		c0,0.7-0.2,1.4-0.6,2.1c-0.4,0.7-1,1.1-1.7,1.1c-0.3,0-0.9-0.2-1.9-0.7s-2.1-0.7-3.3-0.7c-1.3,0-2.2,0.2-2.8,0.7
		c-0.6,0.4-1,1-1,1.6s0.3,1.1,0.9,1.6c0.6,0.5,1.3,0.9,2.2,1.2s1.9,0.8,2.9,1.3c1.1,0.5,2,1.1,2.9,1.8c0.9,0.6,1.6,1.6,2.2,2.7
		s0.9,2.5,0.9,4c0,2.6-0.9,4.6-2.6,6.1c-1.7,1.5-4,2.2-6.9,2.2c-2.5,0-4.6-0.5-6.4-1.5c-1.8-1-2.7-2.2-2.7-3.4
		c0-0.7,0.3-1.4,0.8-2.1c0.5-0.7,1.1-1.1,1.8-1.1c0.4,0,0.8,0.2,1.3,0.5s0.9,0.6,1.3,1c0.4,0.4,0.9,0.7,1.7,1
		c0.7,0.3,1.5,0.5,2.2,0.5c1,0,1.8-0.2,2.6-0.6c0.7-0.4,1.1-1,1.1-1.9s-0.4-1.6-1.2-2.2c-0.8-0.6-1.8-1.2-3-1.7s-2.4-1.1-3.6-1.7
		c-1.2-0.6-2.2-1.6-3-2.8s-1.2-2.6-1.2-4.3c0-2.7,1-4.7,2.9-6C113.4,7.7,115.7,7,118.4,7 M118.4,5c-3.1,0-5.8,0.8-8,2.4
		c-2.4,1.7-3.7,4.3-3.7,7.7c0,2.1,0.5,3.9,1.6,5.4c1,1.4,2.2,2.6,3.7,3.4c1.2,0.7,2.5,1.3,3.7,1.8c1,0.5,1.9,1,2.6,1.5
		c0.5,0.3,0.5,0.6,0.5,0.6v0.1c0,0,0,0-0.1,0.1c-0.4,0.2-1,0.4-1.6,0.4c-0.5,0-1-0.1-1.4-0.3c-0.6-0.3-0.9-0.5-1.1-0.6
		c-0.5-0.5-1-0.9-1.6-1.2c-0.8-0.5-1.6-0.8-2.4-0.8c-0.9,0-2.3,0.3-3.4,1.9c-0.8,1.1-1.2,2.2-1.2,3.3c0,2,1.3,3.8,3.8,5.2
		c2.1,1.2,4.6,1.8,7.4,1.8c3.3,0,6-0.9,8.2-2.6c2.2-1.8,3.3-4.4,3.3-7.6c0-1.8-0.4-3.5-1.1-4.9c-0.7-1.4-1.7-2.6-2.8-3.4
		c-1-0.7-2-1.4-3.2-1.9c-1.1-0.6-2.2-1.1-3.1-1.4c-0.7-0.3-1.3-0.6-1.7-0.9l0,0c0.1-0.1,0.6-0.3,1.7-0.3c0.9,0,1.7,0.2,2.4,0.5
		c1.6,0.8,2.3,0.9,2.8,0.9c1.5,0,2.7-0.7,3.5-2.1c0.6-1,0.9-2.1,0.9-3.1c0-1.3-0.5-2.4-1.5-3.3c-0.8-0.7-1.8-1.2-3-1.5
		c-1-0.2-1.9-0.4-2.7-0.5C119.9,5.1,119.1,5,118.4,5L118.4,5z"/>
	<path class="st0" d="M11.1,31.4c-2.6,0-4.9-0.6-6.9-1.6c-2.2-1.2-3.3-2.6-3.3-4.3c0-0.9,0.3-1.8,1-2.7c0.9-1.2,1.9-1.5,2.6-1.5
		c0.6,0,1.2,0.2,1.8,0.6c0.5,0.3,1,0.7,1.4,1.1c0.3,0.3,0.8,0.6,1.4,0.8c0.6,0.3,1.2,0.4,1.8,0.4c0.8,0,1.5-0.2,2.1-0.5
		c0.4-0.2,0.6-0.5,0.6-1c0-0.3-0.1-0.8-0.8-1.4c-0.8-0.6-1.7-1.1-2.8-1.6c-1.2-0.5-2.4-1.1-3.6-1.8c-1.3-0.7-2.5-1.8-3.4-3.1
		c-0.9-1.4-1.4-3-1.4-4.8c0-3,1.1-5.3,3.3-6.8C7,1.8,9.5,1,12.4,1c0.7,0,1.4,0,2.2,0.1s1.6,0.2,2.6,0.5c1.1,0.3,1.9,0.7,2.6,1.3
		C20.6,3.6,21,4.5,21,5.5c0,0.8-0.3,1.7-0.8,2.6c-0.8,1.3-1.8,1.6-2.6,1.6c-0.4,0-0.9-0.1-2.4-0.8c-0.8-0.4-1.8-0.6-2.8-0.6
		s-1.8,0.2-2.3,0.5S9.6,9.4,9.6,9.6c0,0.1,0,0.4,0.5,0.8s1.2,0.8,2,1.1c0.9,0.4,1.9,0.8,3,1.4c1.1,0.6,2.1,1.2,3,1.9
		c1,0.7,1.9,1.8,2.5,3.1c0.7,1.3,1,2.8,1,4.4c0,2.9-1,5.2-3,6.9C16.7,30.6,14.2,31.4,11.1,31.4z"/>
	<path d="M12.4,2c0.7,0,1.3,0,2.1,0.1c0.7,0.1,1.5,0.2,2.4,0.5c0.9,0.2,1.6,0.6,2.2,1.1C19.7,4.2,20,4.8,20,5.5
		c0,0.7-0.2,1.4-0.6,2.1s-1,1.1-1.7,1.1c-0.3,0-0.9-0.2-1.9-0.7s-2.1-0.7-3.3-0.7c-1.3,0-2.2,0.2-2.8,0.7c-0.6,0.4-1,1-1,1.6
		s0.3,1.1,0.9,1.6c0.6,0.5,1.3,0.9,2.2,1.2s1.9,0.8,2.9,1.3c1.1,0.5,2,1.1,2.9,1.8c0.9,0.6,1.6,1.6,2.2,2.7c0.6,1.2,0.9,2.5,0.9,4
		c0,2.6-0.9,4.6-2.6,6.1c-1.7,1.5-4,2.2-6.9,2.2c-2.5,0-4.6-0.5-6.4-1.5s-2.7-2.2-2.7-3.4c0-0.7,0.3-1.4,0.8-2.1
		c0.5-0.7,1.1-1.1,1.8-1.1c0.4,0,0.8,0.2,1.3,0.5s0.9,0.6,1.3,1s0.9,0.7,1.7,1c0.7,0.3,1.5,0.5,2.2,0.5c1,0,1.8-0.2,2.6-0.6
		c0.7-0.4,1.1-1,1.1-1.9s-0.4-1.6-1.2-2.2c-0.8-0.6-1.8-1.2-3-1.7s-2.4-1.1-3.6-1.7c-1.2-0.6-2.2-1.6-3-2.8s-1.2-2.6-1.2-4.3
		c0-2.7,1-4.7,2.9-6C7.4,2.7,9.7,2,12.4,2 M12.4,0c-3.1,0-5.8,0.8-8,2.4C2,4.1,0.7,6.7,0.7,10.1c0,2.1,0.5,3.9,1.6,5.4
		c1,1.4,2.2,2.6,3.7,3.4c1.2,0.7,2.5,1.3,3.7,1.8c1,0.5,1.9,1,2.6,1.5c0.5,0.3,0.5,0.6,0.5,0.6v0.1c0,0,0,0-0.1,0.1
		c-0.4,0.2-1,0.4-1.6,0.4c-0.5,0-1-0.1-1.4-0.3c-0.6-0.3-0.9-0.5-1.1-0.6c-0.5-0.5-1-0.9-1.6-1.2c-0.8-0.5-1.6-0.8-2.4-0.8
		c-0.9,0-2.3,0.3-3.4,1.9C0.4,23.5,0,24.6,0,25.7c0,2,1.3,3.8,3.8,5.2c2.1,1.2,4.6,1.8,7.4,1.8c3.3,0,6-0.9,8.2-2.6
		c2.2-1.8,3.3-4.4,3.3-7.6c0-1.8-0.4-3.5-1.1-4.9c-0.7-1.4-1.7-2.6-2.8-3.4c-1-0.7-2-1.4-3.2-1.9c-1.1-0.6-2.2-1.1-3.1-1.4
		c-0.7-0.3-1.3-0.6-1.7-0.9l0,0c0.1-0.1,0.6-0.3,1.7-0.3c0.9,0,1.7,0.2,2.4,0.5c1.6,0.8,2.3,0.9,2.8,0.9c1.5,0,2.7-0.7,3.5-2.1
		c0.6-1,0.9-2.1,0.9-3.1c0-1.3-0.5-2.4-1.5-3.3c-0.8-0.7-1.8-1.2-3-1.5c-1-0.2-1.9-0.4-2.7-0.5C13.9,0.1,13.1,0,12.4,0L12.4,0z"/>
	<path class="st0" d="M34.1,31c-1,0-1.8-0.2-2.6-0.6c-0.9-0.5-1.3-1.3-1.3-2.2V4c0-1,0.5-1.7,1.4-2.2c0.7-0.4,1.6-0.6,2.6-0.6
		s1.8,0.2,2.6,0.6c0.9,0.5,1.4,1.3,1.4,2.2v24.2c0,0.9-0.5,1.7-1.4,2.2C36,30.8,35.1,31,34.1,31z"/>
	<path d="M34.1,2.2c0.8,0,1.5,0.2,2.1,0.5s0.9,0.7,0.9,1.3v24.2c0,0.6-0.3,1-0.9,1.3c-0.6,0.3-1.3,0.5-2.1,0.5
		c-0.8,0-1.5-0.2-2.1-0.5c-0.6-0.3-0.8-0.7-0.8-1.3V4c0-0.6,0.3-1,0.9-1.3C32.6,2.4,33.3,2.2,34.1,2.2 M34.1,0.2
		c-1.1,0-2.1,0.2-3,0.7c-1.2,0.6-1.9,1.8-1.9,3.1v24.2c0,1.3,0.7,2.4,1.9,3.1c0.9,0.5,1.9,0.7,3,0.7s2.2-0.2,3-0.7
		c1.2-0.7,1.9-1.8,1.9-3.1V4c0-1.3-0.7-2.5-1.9-3.1C36.3,0.5,35.2,0.2,34.1,0.2L34.1,0.2z"/>
	<path class="st0" d="M57.8,31.2c-3,0-5.5-0.8-7.4-2.4c-1.9-1.6-2.9-4.2-2.9-7.6v-10c0-3.4,1-5.9,2.9-7.6c1.9-1.6,4.3-2.4,7.2-2.4
		c3,0,5.5,0.7,7.5,2.2s3.1,3.7,3.1,6.3c0,1.4-0.3,2.4-1,3c-0.6,0.6-1.6,0.8-2.9,0.8c-3.4,0-3.9-1.7-4-2.8c0-0.3,0-0.6,0-0.8
		c0-0.1-0.1-0.3-0.2-0.7C60,9,59.9,8.9,59.8,8.8c-0.1-0.1-0.3-0.2-0.7-0.4c-0.3-0.1-0.7-0.2-1.2-0.2c-1.3,0-2.4,0.3-2.4,2.8v10.1
		c0,2.5,1.1,2.8,2.4,2.8s2.4-0.3,2.4-2.8v-0.3h-1.2c-0.9,0-1.6-0.4-2.1-1.1c-0.4-0.6-0.7-1.4-0.7-2.2s0.2-1.5,0.7-2.2
		s1.2-1.1,2.1-1.1h6.4c0.8,0,1.6,0.3,2.1,0.9c0.5,0.6,0.7,1.2,0.7,2v4c0,3.4-1,5.9-2.9,7.6C63.4,30.4,60.9,31.2,57.8,31.2z"/>
	<path d="M57.6,2.2c2.8,0,5.1,0.7,6.9,2s2.7,3.2,2.7,5.5c0,1.1-0.2,1.8-0.7,2.2s-1.2,0.6-2.3,0.6c-2,0-2.9-0.6-3-1.8
		c0-0.4,0-0.7,0-0.9c0-0.2-0.1-0.5-0.2-0.9s-0.3-0.6-0.5-0.8c-0.2-0.2-0.6-0.4-1-0.6s-1-0.2-1.6-0.2c-2.3,0-3.4,1.3-3.4,3.8v10.1
		c0,2.5,1.1,3.8,3.4,3.8s3.4-1.3,3.4-3.8v-1.3h-2.2c-0.6,0-1-0.2-1.3-0.7c-0.3-0.4-0.5-1-0.5-1.6s0.2-1.1,0.5-1.6s0.8-0.7,1.3-0.7
		h6.4c0.6,0,1,0.2,1.3,0.6c0.3,0.4,0.5,0.8,0.5,1.3v4c0,3.1-0.8,5.4-2.5,6.8c-1.7,1.4-4,2.2-6.8,2.2s-5.1-0.7-6.8-2.2
		c-1.7-1.4-2.5-3.7-2.5-6.8v-10c0-3.1,0.8-5.4,2.5-6.8C52.7,3,54.9,2.2,57.6,2.2 M57.6,0.2c-3.2,0-5.8,0.9-7.9,2.6
		c-2.1,1.8-3.2,4.6-3.2,8.3v10.1c0,3.7,1.1,6.5,3.3,8.3c2.1,1.8,4.8,2.6,8.1,2.6c3.3,0,6-0.9,8.1-2.6c2.2-1.8,3.2-4.6,3.2-8.3v-4
		c0-1-0.3-1.9-1-2.6c-0.3-0.3-0.6-0.6-0.9-0.8c0.2-0.1,0.3-0.2,0.5-0.4c0.9-0.8,1.4-2,1.4-3.7c0-3-1.2-5.4-3.5-7.1
		C63.5,1.1,60.8,0.2,57.6,0.2L57.6,0.2z M56.4,14.5v-3.3c0-1.8,0.6-1.8,1.4-1.8c0.5,0,0.7,0.1,0.9,0.1C58.9,9.6,59,9.6,59,9.7l0,0
		c0.1,0.3,0.1,0.4,0.1,0.4c0,0.1,0,0.3,0,0.7c0,0.5,0.2,1.7,1.1,2.6h-1.4C58,13.4,57.1,13.8,56.4,14.5L56.4,14.5z M57.8,23.1
		c-0.8,0-1.4,0-1.4-1.8V21c0.7,0.7,1.6,1.1,2.6,1.1h0.2C59,23.1,58.5,23.1,57.8,23.1L57.8,23.1z"/>
	<path class="st0" d="M94.6,31c-2.5,0-3.7-1.2-4.2-2.1l-5.3-9.7v9c0,0.9-0.5,1.7-1.4,2.2C83,30.8,82.1,31,81.1,31s-1.8-0.2-2.6-0.6
		c-0.9-0.5-1.4-1.3-1.4-2.2V4.1c0-0.9,0.5-1.7,1.4-2.2c0.7-0.4,1.6-0.6,2.6-0.6c1.3,0,2.3,0.2,3,0.6s1.4,1.3,2.2,2.9l4.3,8.1V4
		c0-1,0.5-1.7,1.4-2.2c0.7-0.4,1.6-0.6,2.6-0.6s1.8,0.2,2.6,0.6c0.9,0.5,1.4,1.3,1.4,2.2v24.2c0,0.9-0.5,1.7-1.4,2.2
		C96.4,30.8,95.6,31,94.6,31z"/>
	<path d="M94.6,2.2c0.8,0,1.5,0.2,2.1,0.5s0.9,0.7,0.9,1.3v24.2c0,0.6-0.3,1-0.9,1.3S95.4,30,94.6,30c-1.6,0-2.7-0.5-3.3-1.6
		l-7.2-13.1v12.9c0,0.6-0.3,1-0.9,1.3S81.9,30,81.1,30c-0.8,0-1.5-0.2-2.1-0.5s-0.9-0.8-0.9-1.3V4.1c0-0.6,0.3-1,0.9-1.3
		s1.3-0.5,2.1-0.5c1.1,0,2,0.2,2.5,0.5s1.2,1.2,1.8,2.5L91.6,17V4c0-0.6,0.3-1,0.9-1.3S93.8,2.2,94.6,2.2 M94.6,0.2
		c-1.1,0-2.1,0.2-3,0.7c-1.2,0.6-1.9,1.8-1.9,3.1v4.8l-2.4-4.5c-0.9-1.7-1.7-2.7-2.6-3.3c-0.9-0.5-2-0.8-3.6-0.8
		c-1.1,0-2.2,0.2-3,0.7c-1.2,0.7-1.9,1.8-1.9,3.1v24.2c0,1.3,0.7,2.4,1.9,3.1c0.9,0.5,1.9,0.7,3,0.7s2.2-0.2,3-0.7
		c1.2-0.7,1.9-1.8,1.9-3.1v-5.1l3.5,6.3c0.7,1.2,2.1,2.6,5.1,2.6c1.1,0,2.2-0.2,3-0.7c1.2-0.7,1.9-1.8,1.9-3.1V4
		c0-1.3-0.7-2.5-1.9-3.1C96.8,0.5,95.7,0.2,94.6,0.2L94.6,0.2z"/>
	<path class="st0" d="M117.1,31.4c-2.6,0-4.9-0.6-6.9-1.6c-2.2-1.2-3.3-2.6-3.3-4.3c0-0.9,0.3-1.8,1-2.7c0.9-1.2,1.9-1.5,2.6-1.5
		c0.6,0,1.2,0.2,1.8,0.6c0.5,0.3,1,0.7,1.4,1.1c0.3,0.3,0.8,0.6,1.4,0.8c0.6,0.3,1.2,0.4,1.8,0.4c0.8,0,1.5-0.2,2.1-0.5
		c0.4-0.2,0.6-0.5,0.6-1c0-0.3-0.1-0.8-0.8-1.4c-0.8-0.6-1.7-1.1-2.8-1.6c-1.2-0.5-2.4-1.1-3.6-1.8c-1.3-0.7-2.5-1.8-3.4-3.1
		c-0.9-1.4-1.4-3-1.4-4.8c0-3,1.1-5.3,3.3-6.8c2.1-1.4,4.6-2.2,7.5-2.2c0.7,0,1.4,0,2.2,0.1s1.6,0.2,2.6,0.5
		c1.1,0.3,1.9,0.7,2.6,1.3c0.8,0.7,1.2,1.6,1.2,2.6c0,0.8-0.3,1.7-0.8,2.6c-0.8,1.3-1.8,1.6-2.6,1.6c-0.4,0-0.9-0.1-2.4-0.8
		c-0.8-0.4-1.8-0.6-2.8-0.6s-1.8,0.2-2.3,0.5s-0.5,0.6-0.5,0.8c0,0.1,0,0.4,0.5,0.8s1.2,0.8,2,1.1c0.9,0.4,1.9,0.8,3,1.4
		c1.1,0.6,2.1,1.2,3,1.9c1,0.7,1.9,1.8,2.5,3.1c0.7,1.3,1,2.8,1,4.4c0,2.9-1,5.2-3,6.9C122.7,30.6,120.2,31.4,117.1,31.4z"/>
	<path d="M118.4,2c0.7,0,1.3,0,2.1,0.1c0.7,0.1,1.5,0.2,2.4,0.5c0.9,0.2,1.6,0.6,2.2,1.1c0.6,0.5,0.9,1.1,0.9,1.8
		c0,0.7-0.2,1.4-0.6,2.1c-0.4,0.7-1,1.1-1.7,1.1c-0.3,0-0.9-0.2-1.9-0.7s-2.1-0.7-3.3-0.7c-1.3,0-2.2,0.2-2.8,0.7
		c-0.6,0.4-1,1-1,1.6s0.3,1.1,0.9,1.6c0.6,0.5,1.3,0.9,2.2,1.2s1.9,0.8,2.9,1.3c1.1,0.5,2,1.1,2.9,1.8c0.9,0.6,1.6,1.6,2.2,2.7
		s0.9,2.5,0.9,4c0,2.6-0.9,4.6-2.6,6.1c-1.7,1.5-4,2.2-6.9,2.2c-2.5,0-4.6-0.5-6.4-1.5c-1.8-1-2.7-2.2-2.7-3.4
		c0-0.7,0.3-1.4,0.8-2.1c0.5-0.7,1.1-1.1,1.8-1.1c0.4,0,0.8,0.2,1.3,0.5s0.9,0.6,1.3,1c0.4,0.4,0.9,0.7,1.7,1
		c0.7,0.3,1.5,0.5,2.2,0.5c1,0,1.8-0.2,2.6-0.6c0.7-0.4,1.1-1,1.1-1.9s-0.4-1.6-1.2-2.2c-0.8-0.6-1.8-1.2-3-1.7s-2.4-1.1-3.6-1.7
		c-1.2-0.6-2.2-1.6-3-2.8s-1.2-2.6-1.2-4.3c0-2.7,1-4.7,2.9-6C113.4,2.7,115.7,2,118.4,2 M118.4,0c-3.1,0-5.8,0.8-8,2.4
		c-2.4,1.7-3.7,4.3-3.7,7.7c0,2.1,0.5,3.9,1.6,5.4c1,1.4,2.2,2.6,3.7,3.4c1.2,0.7,2.5,1.3,3.7,1.8c1,0.5,1.9,1,2.6,1.5
		c0.5,0.3,0.5,0.6,0.5,0.6v0.1c0,0,0,0-0.1,0.1c-0.4,0.2-1,0.4-1.6,0.4c-0.5,0-1-0.1-1.4-0.3c-0.6-0.3-0.9-0.5-1.1-0.6
		c-0.5-0.5-1-0.9-1.6-1.2c-0.8-0.5-1.6-0.8-2.4-0.8c-0.9,0-2.3,0.3-3.4,1.9c-0.8,1.1-1.2,2.2-1.2,3.3c0,2,1.3,3.8,3.8,5.2
		c2.1,1.2,4.6,1.8,7.4,1.8c3.3,0,6-0.9,8.2-2.6c2.2-1.8,3.3-4.4,3.3-7.6c0-1.8-0.4-3.5-1.1-4.9c-0.7-1.4-1.7-2.6-2.8-3.4
		c-1-0.7-2-1.4-3.2-1.9c-1.1-0.6-2.2-1.1-3.1-1.4c-0.7-0.3-1.3-0.6-1.7-0.9l0,0c0.1-0.1,0.6-0.3,1.7-0.3c0.9,0,1.7,0.2,2.4,0.5
		c1.6,0.8,2.3,0.9,2.8,0.9c1.5,0,2.7-0.7,3.5-2.1c0.6-1,0.9-2.1,0.9-3.1c0-1.3-0.5-2.4-1.5-3.3c-0.8-0.7-1.8-1.2-3-1.5
		c-1-0.2-1.9-0.4-2.7-0.5C119.9,0.1,119.1,0,118.4,0L118.4,0z"/>
</g>
<g>
	<path d="M17.8,57c0.6,0,1,0.3,1.3,0.8s0.5,1.1,0.5,1.8c0,0.7-0.2,1.4-0.5,1.9s-0.8,0.8-1.3,0.8H8v6.4h5.7c0.6,0,1,0.2,1.3,0.7
		s0.5,1,0.5,1.6s-0.2,1.1-0.5,1.6s-0.7,0.7-1.3,0.7H8V83c0,0.6-0.3,1-0.9,1.3c-0.6,0.3-1.3,0.5-2.1,0.5s-1.5-0.2-2.1-0.5
		C2.3,84,2,83.5,2,83V58.9c0-0.6,0.3-1,0.8-1.3c0.5-0.3,1.1-0.5,1.8-0.5L17.8,57 M17.8,55H4.6c-1.1,0-2.1,0.3-2.9,0.8
		c-1.1,0.7-1.7,1.8-1.7,3V83c0,1.3,0.7,2.4,1.9,3.1c0.9,0.5,1.9,0.7,3,0.7s2.2-0.2,3-0.7c1.2-0.7,1.9-1.8,1.9-3.1v-7.8h3.7
		c1.3,0,2.3-0.6,3-1.6c0.5-0.8,0.8-1.7,0.8-2.7s-0.3-2-0.8-2.8c-0.7-1-1.7-1.5-3-1.5H9.8v-2.4h7.8c1.3,0,2.3-0.6,3-1.7
		c0.5-0.8,0.8-1.8,0.8-2.9c0-1-0.2-2-0.7-2.8C20.2,55.7,19.1,55,17.8,55L17.8,55z"/>
	<path d="M37.9,57c2.8,0,5.1,0.7,6.8,2.2c1.7,1.4,2.5,3.7,2.5,6.8v10.1c0,3.1-0.8,5.4-2.5,6.8c-1.7,1.4-4,2.2-6.8,2.2
		s-5.1-0.7-6.8-2.2c-1.7-1.4-2.5-3.7-2.5-6.8V66c0-3.1,0.8-5.4,2.5-6.8C32.9,57.8,35.1,57,37.9,57 M37.9,79.9c2.3,0,3.4-1.3,3.4-3.8
		V66c0-2.5-1.1-3.8-3.4-3.8c-2.3,0-3.4,1.3-3.4,3.8v10.1C34.6,78.6,35.7,79.9,37.9,79.9 M37.9,55c-3.3,0-6,0.9-8.1,2.6
		c-2.2,1.8-3.3,4.6-3.3,8.3V76c0,3.7,1.1,6.5,3.3,8.3c2.1,1.8,4.8,2.6,8.1,2.6s6-0.9,8.1-2.6c2.2-1.8,3.2-4.6,3.2-8.3V66
		c0-3.7-1.1-6.5-3.2-8.3C44,55.9,41.3,55,37.9,55L37.9,55z M37.9,77.9c-0.8,0-1.4,0-1.4-1.8V66c0-1.8,0.6-1.8,1.4-1.8
		c0.8,0,1.4,0,1.4,1.8v10.1C39.4,77.9,38.8,77.9,37.9,77.9L37.9,77.9z"/>
	<path d="M68.4,57c6.2,0,9.3,2.7,9.3,8.1c0,4-1.5,6.5-4.6,7.7l4.6,8.4c0.1,0.2,0.2,0.4,0.2,0.7c0,0.7-0.4,1.4-1.2,2.1s-1.6,1-2.5,1
		s-1.5-0.4-1.9-1.1l-5.2-10.1h-2.5V83c0,0.6-0.3,1-0.9,1.3c-0.6,0.3-1.3,0.5-2.1,0.5s-1.5-0.2-2.1-0.5c-0.6-0.3-0.9-0.8-0.9-1.3
		V58.8c0-0.5,0.2-0.9,0.5-1.3s0.8-0.5,1.3-0.5H68.4 M64.6,69.3h3.8c1.1,0,2-0.3,2.5-0.8c0.6-0.5,0.9-1.4,0.9-2.7
		c0-1.3-0.3-2.2-0.9-2.7c-0.6-0.5-1.4-0.8-2.5-0.8h-3.8V69.3 M68.4,55h-7.9c-1.1,0-2,0.4-2.7,1.1c-0.7,0.7-1.1,1.6-1.1,2.6V83
		c0,1.3,0.7,2.4,1.9,3.1c0.9,0.5,1.9,0.7,3,0.7s2.2-0.2,3-0.7c1.2-0.7,1.9-1.8,1.9-3.1v-5.8l3.9,7.6c0.7,1.4,2,2.2,3.7,2.2
		c1.4,0,2.6-0.5,3.8-1.4c1.6-1.3,1.9-2.7,1.9-3.6c0-0.6-0.2-1.2-0.5-1.7l-3.6-6.6c2-1.4,3.9-4,3.9-8.5C79.7,56.4,72.6,55,68.4,55
		L68.4,55z M66.6,64.2h1.8c0.6,0,1,0.1,1.2,0.3c0.1,0.1,0.2,0.4,0.2,1.3c0,0.8-0.2,1.2-0.2,1.3c-0.2,0.2-0.6,0.3-1.2,0.3h-1.8V64.2
		L66.6,64.2z"/>
	<path class="st0" d="M5,80.8c-1,0-1.8-0.2-2.6-0.6C1.5,79.7,1,78.9,1,78V53.9c0-0.9,0.4-1.7,1.2-2.2c0.7-0.4,1.5-0.6,2.4-0.6h13.2
		c0.9,0,1.7,0.4,2.2,1.2c0.4,0.7,0.6,1.4,0.6,2.3S20.4,56.3,20,57c-0.5,0.8-1.2,1.2-2.2,1.2H9v4.4h4.7c0.9,0,1.6,0.4,2.1,1.1
		c0.4,0.6,0.7,1.4,0.7,2.2c0,0.8-0.2,1.5-0.6,2.1c-0.5,0.7-1.2,1.1-2.2,1.1H9V78c0,0.9-0.5,1.7-1.4,2.2C6.8,80.6,6,80.8,5,80.8z"/>
	<path d="M17.8,52c0.6,0,1,0.3,1.3,0.8s0.5,1.1,0.5,1.8c0,0.7-0.2,1.4-0.5,1.9s-0.8,0.8-1.3,0.8H8v6.4h5.7c0.6,0,1,0.2,1.3,0.7
		c0.3,0.5,0.5,1,0.5,1.6c0,0.6-0.2,1.1-0.5,1.6s-0.7,0.7-1.3,0.7H8V78c0,0.6-0.3,1-0.9,1.3c-0.6,0.3-1.3,0.5-2.1,0.5
		s-1.5-0.2-2.1-0.5C2.3,79,2,78.5,2,78V53.9c0-0.6,0.3-1,0.8-1.3c0.5-0.3,1.1-0.5,1.8-0.5L17.8,52 M17.8,50H4.6
		c-1.1,0-2.1,0.3-2.9,0.8c-1.1,0.7-1.7,1.8-1.7,3V78c0,1.3,0.7,2.4,1.9,3.1c0.9,0.5,1.9,0.7,3,0.7s2.2-0.2,3-0.7
		c1.2-0.7,1.9-1.8,1.9-3.1v-7.8h3.7c1.3,0,2.3-0.6,3-1.6c0.5-0.8,0.8-1.7,0.8-2.7s-0.3-2-0.8-2.8c-0.7-1-1.7-1.5-3-1.5H9.8v-2.4h7.8
		c1.3,0,2.3-0.6,3-1.7c0.5-0.8,0.8-1.8,0.8-2.9c0-1-0.2-2-0.7-2.8C20.2,50.7,19.1,50,17.8,50L17.8,50z"/>
	<path class="st0" d="M37.9,81c-3,0-5.5-0.8-7.4-2.4s-2.9-4.2-2.9-7.6V61c0-3.4,1-5.9,2.9-7.6c1.9-1.6,4.4-2.4,7.4-2.4
		c3.1,0,5.6,0.8,7.4,2.4c1.9,1.6,2.9,4.2,2.9,7.6v10.1c0,3.4-1,5.9-2.9,7.6C43.5,80.2,41,81,37.9,81z M37.9,58.2
		c-1.2,0-2.4,0.3-2.4,2.8v10.1c0,2.5,1.1,2.8,2.4,2.8c1.3,0,2.4-0.3,2.4-2.8V61C40.4,58.5,39.2,58.2,37.9,58.2z"/>
	<path d="M37.9,52c2.8,0,5.1,0.7,6.8,2.2c1.7,1.4,2.5,3.7,2.5,6.8v10.1c0,3.1-0.8,5.4-2.5,6.8c-1.7,1.4-4,2.2-6.8,2.2
		s-5.1-0.7-6.8-2.2c-1.7-1.4-2.5-3.7-2.5-6.8V61c0-3.1,0.8-5.4,2.5-6.8C32.9,52.8,35.1,52,37.9,52 M37.9,74.9c2.3,0,3.4-1.3,3.4-3.8
		V61c0-2.5-1.1-3.8-3.4-3.8c-2.3,0-3.4,1.3-3.4,3.8v10.1C34.6,73.6,35.7,74.9,37.9,74.9 M37.9,50c-3.3,0-6,0.9-8.1,2.6
		c-2.2,1.8-3.3,4.6-3.3,8.3V71c0,3.7,1.1,6.5,3.3,8.3c2.1,1.8,4.8,2.6,8.1,2.6s6-0.9,8.1-2.6c2.2-1.8,3.2-4.6,3.2-8.3V61
		c0-3.7-1.1-6.5-3.2-8.3C44,50.9,41.3,50,37.9,50L37.9,50z M37.9,72.9c-0.8,0-1.4,0-1.4-1.8V61c0-1.8,0.6-1.8,1.4-1.8
		c0.8,0,1.4,0,1.4,1.8v10.1C39.4,72.9,38.8,72.9,37.9,72.9L37.9,72.9z"/>
	<path class="st0" d="M74.2,81c-1.3,0-2.2-0.6-2.8-1.6l-4.9-9.6h-0.9V78c0,0.9-0.5,1.7-1.4,2.2c-0.7,0.4-1.6,0.6-2.6,0.6
		s-1.8-0.2-2.6-0.6c-0.9-0.5-1.4-1.3-1.4-2.2V53.8c0-0.7,0.3-1.4,0.8-1.9s1.2-0.8,2-0.8h7.9c8.6,0,10.3,5,10.3,9.1
		c0,3.9-1.4,6.7-4.2,8.2l4.1,7.4c0.2,0.3,0.3,0.7,0.3,1.2c0,1-0.5,2-1.6,2.9C76.4,80.6,75.4,81,74.2,81z M68.4,63.3
		c0.8,0,1.5-0.2,1.9-0.5c0.5-0.4,0.6-1.3,0.6-2s-0.1-1.6-0.6-2c-0.4-0.4-1-0.5-1.9-0.5h-2.8v5.1L68.4,63.3L68.4,63.3z"/>
	<path d="M68.4,52c6.2,0,9.3,2.7,9.3,8.1c0,4-1.5,6.5-4.6,7.7l4.6,8.4c0.1,0.2,0.2,0.4,0.2,0.7c0,0.7-0.4,1.4-1.2,2.1s-1.6,1-2.5,1
		s-1.5-0.4-1.9-1.1l-5.2-10.1h-2.5V78c0,0.6-0.3,1-0.9,1.3c-0.6,0.3-1.3,0.5-2.1,0.5s-1.5-0.2-2.1-0.5c-0.6-0.3-0.9-0.8-0.9-1.3
		V53.8c0-0.5,0.2-0.9,0.5-1.3s0.8-0.5,1.3-0.5H68.4 M64.6,64.3h3.8c1.1,0,2-0.3,2.5-0.8c0.6-0.5,0.9-1.4,0.9-2.7s-0.3-2.2-0.9-2.7
		c-0.6-0.5-1.4-0.8-2.5-0.8h-3.8V64.3 M68.4,50h-7.9c-1.1,0-2,0.4-2.7,1.1c-0.7,0.7-1.1,1.6-1.1,2.6V78c0,1.3,0.7,2.4,1.9,3.1
		c0.9,0.5,1.9,0.7,3,0.7s2.2-0.2,3-0.7c1.2-0.7,1.9-1.8,1.9-3.1v-5.8l3.9,7.6c0.7,1.4,2,2.2,3.7,2.2c1.4,0,2.6-0.5,3.8-1.4
		c1.6-1.3,1.9-2.7,1.9-3.6c0-0.6-0.2-1.2-0.5-1.7l-3.6-6.6c2-1.4,3.9-4,3.9-8.5C79.7,51.4,72.6,50,68.4,50L68.4,50z M66.6,59.2h1.8
		c0.6,0,1,0.1,1.2,0.3c0.1,0.1,0.2,0.4,0.2,1.3c0,0.8-0.2,1.2-0.2,1.3c-0.2,0.2-0.6,0.3-1.2,0.3h-1.8V59.2L66.6,59.2z"/>
</g>
<g>
	<path d="M12.4,108.5c0.7,0,1.3,0,2.1,0.1c0.7,0.1,1.5,0.2,2.4,0.5c0.9,0.2,1.6,0.6,2.2,1.1s0.9,1.1,0.9,1.8c0,0.7-0.2,1.4-0.6,2.1
		s-1,1.1-1.7,1.1c-0.3,0-0.9-0.2-1.9-0.7s-2.1-0.7-3.3-0.7c-1.3,0-2.2,0.2-2.8,0.7c-0.6,0.4-1,1-1,1.6c0,0.6,0.3,1.1,0.9,1.6
		s1.3,0.9,2.2,1.2c0.9,0.3,1.9,0.8,2.9,1.3c1.1,0.5,2,1.1,2.9,1.8c0.9,0.6,1.6,1.6,2.2,2.7c0.6,1.1,0.9,2.5,0.9,4
		c0,2.6-0.9,4.6-2.6,6.1s-4,2.2-6.9,2.2c-2.5,0-4.6-0.5-6.4-1.5s-2.7-2.2-2.7-3.4c0-0.7,0.3-1.4,0.8-2.1s1.1-1.1,1.8-1.1
		c0.4,0,0.8,0.2,1.3,0.5c0.5,0.3,0.9,0.6,1.3,1c0.4,0.4,0.9,0.7,1.7,1c0.7,0.3,1.5,0.5,2.2,0.5c1,0,1.8-0.2,2.6-0.6
		c0.7-0.4,1.1-1,1.1-1.9c0-0.9-0.4-1.6-1.2-2.2c-0.8-0.6-1.8-1.2-3-1.7s-2.4-1.1-3.6-1.7c-1.2-0.6-2.2-1.6-3-2.8s-1.2-2.6-1.2-4.3
		c0-2.7,1-4.7,2.9-6C7.4,109.2,9.7,108.5,12.4,108.5 M12.4,106.5c-3.1,0-5.8,0.8-8,2.4c-2.4,1.7-3.7,4.3-3.7,7.7
		c0,2.1,0.5,3.9,1.6,5.4c1,1.4,2.2,2.6,3.7,3.4c1.2,0.7,2.5,1.3,3.7,1.8c1,0.5,1.9,1,2.6,1.5c0.5,0.3,0.5,0.6,0.5,0.6v0.1
		c0,0,0,0-0.1,0.1c-0.4,0.2-1,0.4-1.6,0.4c-0.5,0-1-0.1-1.4-0.3c-0.6-0.3-0.9-0.5-1.1-0.6c-0.5-0.5-1-0.9-1.6-1.2
		c-0.8-0.5-1.6-0.8-2.4-0.8c-0.9,0-2.3,0.3-3.4,1.9C0.4,130,0,131.1,0,132.2c0,2,1.3,3.8,3.8,5.2c2.1,1.2,4.6,1.8,7.4,1.8
		c3.3,0,6-0.9,8.2-2.6c2.2-1.8,3.3-4.4,3.3-7.6c0-1.8-0.4-3.5-1.1-4.9c-0.7-1.4-1.7-2.6-2.8-3.4c-1-0.7-2-1.4-3.2-1.9
		c-1.1-0.6-2.2-1.1-3.1-1.4c-0.7-0.3-1.3-0.6-1.7-0.9l0,0c0.1-0.1,0.6-0.3,1.7-0.3c0.9,0,1.7,0.2,2.4,0.5c1.6,0.8,2.3,0.9,2.8,0.9
		c1.5,0,2.7-0.7,3.5-2.1c0.6-1,0.9-2.1,0.9-3.1c0-1.3-0.5-2.4-1.5-3.3c-0.8-0.7-1.8-1.2-3-1.5c-1-0.2-1.9-0.4-2.7-0.5
		C13.9,106.6,13.1,106.5,12.4,106.5L12.4,106.5z"/>
	<path d="M40,108.7c2.8,0,5.1,0.7,6.9,2c1.8,1.3,2.7,3.2,2.7,5.5c0,1.1-0.2,1.8-0.7,2.2s-1.2,0.6-2.3,0.6c-1.9,0-2.9-0.6-3-1.8
		c-0.1-2.3-1.2-3.4-3.4-3.4c-2.3,0-3.4,1.3-3.4,3.8v10.1c0,2.5,1.2,3.8,3.5,3.8c0.7,0,1.3-0.1,1.8-0.3c0.5-0.2,0.8-0.6,1-1
		c0.2-0.5,0.3-0.9,0.4-1.2c0.1-0.3,0.1-0.7,0.2-1.3c0.1-1.2,1.1-1.8,2.9-1.8c1.1,0,1.9,0.2,2.3,0.6s0.7,1.1,0.7,2.2
		c0,2.5-0.9,4.4-2.7,5.8c-1.8,1.4-4.1,2.1-6.9,2.1c-2.7,0-4.9-0.7-6.6-2.2c-1.7-1.4-2.5-3.7-2.5-6.8v-9.9c0-3.1,0.8-5.4,2.5-6.8
		C35,109.5,37.2,108.7,40,108.7 M40,106.7c-3.2,0-5.8,0.9-7.9,2.6c-2.1,1.8-3.2,4.6-3.2,8.3v10.1c0,3.7,1.1,6.5,3.2,8.3
		c2,1.8,4.7,2.6,7.9,2.6c3.2,0,6-0.9,8.1-2.6c2.3-1.8,3.4-4.3,3.4-7.4c0-1.7-0.5-3-1.4-3.7c-0.8-0.7-2-1.1-3.6-1.1
		c-4.3,0-4.8,2.8-4.9,3.6c-0.1,0.6-0.1,0.9-0.1,1c0,0.1-0.1,0.3-0.3,0.8l0,0c-0.1,0.1-0.4,0.1-0.9,0.1c-0.9,0-1.5-0.1-1.5-1.8v-9.8
		c0-1.8,0.6-1.8,1.4-1.8c0.9,0,1.3,0.1,1.4,1.5c0,0,0,0,0,0.1c0.1,0.9,0.6,3.7,5,3.7c1.6,0,2.7-0.4,3.6-1.1c0.9-0.8,1.4-2,1.4-3.7
		c0-3-1.2-5.4-3.5-7.1C45.9,107.6,43.2,106.7,40,106.7L40,106.7z"/>
	<path d="M63.1,108.7c0.8,0,1.5,0.2,2.1,0.5c0.6,0.3,0.9,0.7,0.9,1.3v24.2c0,0.6-0.3,1-0.9,1.3c-0.6,0.3-1.3,0.5-2.1,0.5
		c-0.8,0-1.5-0.2-2.1-0.5c-0.6-0.3-0.9-0.8-0.9-1.3v-24.2c0-0.6,0.3-1,0.9-1.3C61.5,108.9,62.2,108.7,63.1,108.7 M63.1,106.7
		c-1.1,0-2.1,0.2-3,0.7c-1.2,0.6-1.9,1.8-1.9,3.1v24.2c0,1.3,0.7,2.4,1.9,3.1c0.9,0.5,1.9,0.7,3,0.7s2.2-0.2,3-0.7
		c1.2-0.7,1.9-1.8,1.9-3.1v-24.2c0-1.3-0.7-2.5-1.9-3.1C65.2,107,64.2,106.7,63.1,106.7L63.1,106.7z"/>
	<path d="M93.8,108.7c0.6,0,1,0.3,1.3,0.8s0.5,1.1,0.5,1.8c0,0.7-0.2,1.4-0.5,1.9s-0.8,0.8-1.3,0.8H83.6v6.4h5.7
		c0.6,0,1,0.2,1.3,0.7s0.5,1,0.5,1.6c0,0.6-0.2,1.1-0.5,1.6s-0.7,0.7-1.3,0.7h-5.7v6.5h10.2c0.6,0,1,0.3,1.3,0.8s0.5,1.1,0.5,1.9
		c0,0.7-0.2,1.3-0.5,1.8s-0.7,0.8-1.3,0.8H80.3c-0.7,0-1.3-0.2-1.8-0.5s-0.8-0.8-0.8-1.3v-24.4c0-0.6,0.3-1,0.8-1.3
		c0.5-0.3,1.1-0.5,1.8-0.5L93.8,108.7 M93.8,106.7H80.3c-1.1,0-2.1,0.3-2.9,0.8c-1.1,0.7-1.7,1.8-1.7,3v24.2c0,1.3,0.6,2.4,1.7,3
		c0.8,0.5,1.8,0.8,2.9,0.8h13.5c1.3,0,2.4-0.6,3-1.7c0.5-0.8,0.7-1.8,0.7-2.8c0-1.1-0.3-2.1-0.8-2.9c-0.7-1.1-1.8-1.7-3-1.7h-8.2
		v-2.5h3.7c1.3,0,2.3-0.6,3-1.6c0.5-0.8,0.8-1.7,0.8-2.7s-0.3-2-0.8-2.8c-0.7-1-1.7-1.5-3-1.5h-3.7v-2.4h8.2c1.3,0,2.3-0.6,3-1.7
		c0.5-0.8,0.8-1.8,0.8-2.9c0-1-0.2-2-0.7-2.8C96.2,107.4,95.1,106.7,93.8,106.7L93.8,106.7z"/>
	<path d="M122.3,108.7c0.8,0,1.5,0.2,2.1,0.5c0.6,0.3,0.9,0.7,0.9,1.3v24.2c0,0.6-0.3,1-0.9,1.3c-0.6,0.3-1.3,0.5-2.1,0.5
		c-1.6,0-2.7-0.5-3.3-1.6l-7.2-13.1v12.9c0,0.6-0.3,1-0.9,1.3c-0.6,0.3-1.3,0.5-2.1,0.5c-0.8,0-1.5-0.2-2.1-0.5
		c-0.6-0.3-0.9-0.8-0.9-1.3v-24.1c0-0.6,0.3-1,0.9-1.3c0.6-0.3,1.3-0.5,2.1-0.5c1.1,0,2,0.2,2.5,0.5c0.5,0.3,1.2,1.2,1.8,2.5
		l6.2,11.7v-13c0-0.6,0.3-1,0.9-1.3C120.8,108.9,121.4,108.7,122.3,108.7 M122.3,106.7c-1.1,0-2.1,0.2-3,0.7
		c-1.2,0.6-1.9,1.8-1.9,3.1v4.8l-2.4-4.5c-0.9-1.7-1.7-2.7-2.6-3.3c-0.9-0.5-2-0.8-3.6-0.8c-1.1,0-2.2,0.2-3,0.7
		c-1.2,0.7-1.9,1.8-1.9,3.1v24.2c0,1.3,0.7,2.4,1.9,3.1c0.9,0.5,1.9,0.7,3,0.7s2.2-0.2,3-0.7c1.2-0.7,1.9-1.8,1.9-3.1v-5.1l3.5,6.3
		c0.7,1.2,2.1,2.6,5.1,2.6c1.1,0,2.2-0.2,3-0.7c1.2-0.7,1.9-1.8,1.9-3.1v-24.2c0-1.3-0.7-2.5-1.9-3.1
		C124.4,107,123.4,106.7,122.3,106.7L122.3,106.7z"/>
	<path d="M145.7,108.7c2.8,0,5.1,0.7,6.9,2c1.8,1.3,2.7,3.2,2.7,5.5c0,1.1-0.2,1.8-0.7,2.2s-1.2,0.6-2.3,0.6c-1.9,0-2.9-0.6-3-1.8
		c-0.1-2.3-1.2-3.4-3.4-3.4c-2.3,0-3.4,1.3-3.4,3.8v10.1c0,2.5,1.2,3.8,3.5,3.8c0.7,0,1.3-0.1,1.8-0.3c0.5-0.2,0.8-0.6,1-1
		c0.2-0.5,0.3-0.9,0.4-1.2c0.1-0.3,0.1-0.7,0.2-1.3c0.1-1.2,1.1-1.8,2.9-1.8c1.1,0,1.9,0.2,2.3,0.6s0.7,1.1,0.7,2.2
		c0,2.5-0.9,4.4-2.7,5.8c-1.8,1.4-4.1,2.1-6.9,2.1c-2.7,0-4.9-0.7-6.6-2.2c-1.7-1.4-2.5-3.7-2.5-6.8v-9.9c0-3.1,0.8-5.4,2.5-6.8
		C140.8,109.5,143,108.7,145.7,108.7 M145.7,106.7c-3.2,0-5.8,0.9-7.9,2.6c-2.1,1.8-3.2,4.6-3.2,8.3v10.1c0,3.7,1.1,6.5,3.2,8.3
		c2,1.8,4.7,2.6,7.9,2.6c3.2,0,6-0.9,8.1-2.6c2.3-1.8,3.4-4.3,3.4-7.4c0-1.7-0.5-3-1.4-3.7c-0.8-0.7-2-1.1-3.6-1.1
		c-4.3,0-4.8,2.8-4.9,3.6c-0.1,0.6-0.1,0.9-0.1,1c0,0.1-0.1,0.3-0.3,0.8l0,0c-0.1,0.1-0.4,0.1-0.9,0.1c-0.9,0-1.5-0.1-1.5-1.8v-9.8
		c0-1.8,0.6-1.8,1.4-1.8c0.9,0,1.3,0.1,1.4,1.5c0,0,0,0,0,0.1c0.1,0.9,0.6,3.7,5,3.7c1.6,0,2.7-0.4,3.6-1.1c0.9-0.8,1.4-2,1.4-3.7
		c0-3-1.2-5.4-3.5-7.1C151.7,107.6,149,106.7,145.7,106.7L145.7,106.7z"/>
	<path d="M182,108.7c0.6,0,1,0.3,1.3,0.8s0.5,1.1,0.5,1.8c0,0.7-0.2,1.4-0.5,1.9s-0.8,0.8-1.3,0.8h-10.2v6.4h5.7
		c0.6,0,1,0.2,1.3,0.7s0.5,1,0.5,1.6c0,0.6-0.2,1.1-0.5,1.6s-0.7,0.7-1.3,0.7h-5.7v6.5H182c0.6,0,1,0.3,1.3,0.8s0.5,1.1,0.5,1.9
		c0,0.7-0.2,1.3-0.5,1.8s-0.7,0.8-1.3,0.8h-13.5c-0.7,0-1.3-0.2-1.8-0.5s-0.8-0.8-0.8-1.3v-24.4c0-0.6,0.3-1,0.8-1.3
		c0.5-0.3,1.1-0.5,1.8-0.5L182,108.7 M182,106.7h-13.5c-1.1,0-2.1,0.3-2.9,0.8c-1.1,0.7-1.7,1.8-1.7,3v24.2c0,1.3,0.6,2.4,1.7,3
		c0.8,0.5,1.8,0.8,2.9,0.8H182c1.3,0,2.4-0.6,3-1.7c0.5-0.8,0.7-1.8,0.7-2.8c0-1.1-0.3-2.1-0.8-2.9c-0.7-1.1-1.8-1.7-3-1.7h-8.2
		v-2.5h3.7c1.3,0,2.3-0.6,3-1.6c0.5-0.8,0.8-1.7,0.8-2.7s-0.3-2-0.8-2.8c-0.7-1-1.7-1.5-3-1.5h-3.7v-2.4h8.2c1.3,0,2.3-0.6,3-1.7
		c0.5-0.8,0.8-1.8,0.8-2.9c0-1-0.2-2-0.7-2.8C184.4,107.4,183.3,106.7,182,106.7L182,106.7z"/>
	<path class="st0" d="M11.1,132.9c-2.6,0-4.9-0.6-6.9-1.6c-2.2-1.2-3.3-2.6-3.3-4.3c0-0.9,0.3-1.8,1-2.7c0.9-1.2,1.9-1.5,2.6-1.5
		c0.6,0,1.2,0.2,1.8,0.6c0.5,0.3,1,0.7,1.4,1.1c0.3,0.3,0.8,0.6,1.4,0.8c0.6,0.3,1.2,0.4,1.8,0.4c0.8,0,1.5-0.2,2.1-0.5
		c0.4-0.2,0.6-0.5,0.6-1c0-0.3-0.1-0.8-0.8-1.4c-0.8-0.6-1.7-1.1-2.8-1.6c-1.2-0.5-2.4-1.1-3.6-1.8c-1.3-0.7-2.5-1.8-3.4-3.1
		c-0.9-1.4-1.4-3-1.4-4.8c0-3,1.1-5.3,3.3-6.8c2.1-1.4,4.6-2.2,7.5-2.2c0.7,0,1.4,0,2.2,0.1c0.8,0.1,1.6,0.2,2.6,0.5
		c1.1,0.3,1.9,0.7,2.6,1.3c0.8,0.7,1.2,1.6,1.2,2.6c0,0.8-0.3,1.7-0.8,2.6c-0.8,1.3-1.8,1.6-2.6,1.6c-0.4,0-0.9-0.1-2.4-0.8
		c-0.8-0.4-1.8-0.6-2.8-0.6s-1.8,0.2-2.3,0.5c-0.5,0.3-0.5,0.6-0.5,0.8c0,0.1,0,0.4,0.5,0.8c0.5,0.4,1.2,0.8,2,1.1
		c0.9,0.4,1.9,0.8,3,1.4c1.1,0.6,2.1,1.2,3,1.9c1,0.7,1.9,1.8,2.5,3.1c0.7,1.3,1,2.8,1,4.4c0,2.9-1,5.2-3,6.9
		C16.7,132.1,14.2,132.9,11.1,132.9z"/>
	<path d="M12.4,103.5c0.7,0,1.3,0,2.1,0.1c0.7,0.1,1.5,0.2,2.4,0.5c0.9,0.2,1.6,0.6,2.2,1.1s0.9,1.1,0.9,1.8c0,0.7-0.2,1.4-0.6,2.1
		c-0.4,0.7-1,1.1-1.7,1.1c-0.3,0-0.9-0.2-1.9-0.7s-2.1-0.7-3.3-0.7c-1.3,0-2.2,0.2-2.8,0.7c-0.6,0.4-1,1-1,1.6
		c0,0.6,0.3,1.1,0.9,1.6s1.3,0.9,2.2,1.2c0.9,0.3,1.9,0.8,2.9,1.3c1.1,0.5,2,1.1,2.9,1.8c0.9,0.6,1.6,1.6,2.2,2.7
		c0.6,1.1,0.9,2.5,0.9,4c0,2.6-0.9,4.6-2.6,6.1s-4,2.2-6.9,2.2c-2.5,0-4.6-0.5-6.4-1.5s-2.7-2.2-2.7-3.4c0-0.7,0.3-1.4,0.8-2.1
		c0.5-0.7,1.1-1.1,1.8-1.1c0.4,0,0.8,0.2,1.3,0.5s0.9,0.6,1.3,1s0.9,0.7,1.7,1c0.7,0.3,1.5,0.5,2.2,0.5c1,0,1.8-0.2,2.6-0.6
		c0.7-0.4,1.1-1,1.1-1.9s-0.4-1.6-1.2-2.2c-0.8-0.6-1.8-1.2-3-1.7s-2.4-1.1-3.6-1.7c-1.2-0.6-2.2-1.6-3-2.8s-1.2-2.6-1.2-4.3
		c0-2.7,1-4.7,2.9-6C7.7,104.4,9.7,103.5,12.4,103.5 M12.4,101.5c-3.1,0-5.8,0.8-8,2.4c-2.4,1.7-3.7,4.3-3.7,7.7
		c0,2.1,0.5,3.9,1.6,5.4c1,1.4,2.2,2.6,3.7,3.4c1.2,0.7,2.5,1.3,3.7,1.8c1,0.5,1.9,1,2.6,1.5c0.5,0.3,0.5,0.6,0.5,0.6v0.1
		c0,0,0,0-0.1,0.1c-0.4,0.2-1,0.4-1.6,0.4c-0.5,0-1-0.1-1.4-0.3c-0.6-0.3-0.9-0.5-1.1-0.6c-0.5-0.5-1-0.9-1.6-1.2
		c-0.8-0.5-1.6-0.8-2.4-0.8c-0.9,0-2.3,0.3-3.4,1.9C0.4,125,0,126.1,0,127.2c0,2,1.3,3.8,3.8,5.2c2.1,1.2,4.6,1.8,7.4,1.8
		c3.3,0,6-0.9,8.2-2.6c2.2-1.8,3.3-4.4,3.3-7.6c0-1.8-0.4-3.5-1.1-4.9c-0.7-1.4-1.7-2.6-2.8-3.4c-1-0.7-2-1.4-3.2-1.9
		c-1.1-0.6-2.2-1.1-3.1-1.4c-0.7-0.3-1.3-0.6-1.7-0.9l0,0c0.1-0.1,0.6-0.3,1.7-0.3c0.9,0,1.7,0.2,2.4,0.5c1.6,0.8,2.3,0.9,2.8,0.9
		c1.5,0,2.7-0.7,3.5-2.1c0.6-1,0.9-2.1,0.9-3.1c0-1.3-0.5-2.4-1.5-3.3c-0.8-0.7-1.8-1.2-3-1.5c-1-0.2-1.9-0.4-2.7-0.5
		C13.9,101.6,13.1,101.5,12.4,101.5L12.4,101.5z"/>
	<path class="st0" d="M40,132.7c-2.9,0-5.4-0.8-7.2-2.4c-1.9-1.6-2.9-4.2-2.9-7.6v-10c0-3.4,1-5.9,2.9-7.6c1.9-1.6,4.3-2.4,7.2-2.4
		c3,0,5.5,0.7,7.5,2.2s3.1,3.7,3.1,6.3c0,1.4-0.3,2.4-1,3c-0.6,0.6-1.6,0.8-2.9,0.8c-3.3,0-3.9-1.7-4-2.7c-0.1-1.8-0.8-2.5-2.4-2.5
		c-1.3,0-2.4,0.3-2.4,2.8v10.1c0,2.5,1.2,2.8,2.5,2.8c0.6,0,1-0.1,1.3-0.2c0.3-0.1,0.4-0.3,0.5-0.5c0.2-0.5,0.3-0.8,0.3-1
		c0.1-0.3,0.1-0.6,0.2-1.1c0.1-1,0.7-2.7,3.9-2.7c1.3,0,2.3,0.3,3,0.8c0.7,0.6,1,1.6,1,3c0,2.8-1,5-3.1,6.6
		C45.5,132,43,132.7,40,132.7z"/>
	<path d="M40,103.7c2.8,0,5.1,0.7,6.9,2c1.8,1.3,2.7,3.2,2.7,5.5c0,1.1-0.2,1.8-0.7,2.2s-1.2,0.6-2.3,0.6c-1.9,0-2.9-0.6-3-1.8
		c-0.1-2.3-1.2-3.4-3.4-3.4c-2.3,0-3.4,1.3-3.4,3.8v10.1c0,2.5,1.2,3.8,3.5,3.8c0.7,0,1.3-0.1,1.8-0.3c0.5-0.2,0.8-0.6,1-1
		c0.2-0.5,0.3-0.9,0.4-1.2s0.1-0.7,0.2-1.3c0.1-1.2,1.1-1.8,2.9-1.8c1.1,0,1.9,0.2,2.3,0.6s0.7,1.1,0.7,2.2c0,2.5-0.9,4.4-2.7,5.8
		c-1.8,1.4-4.1,2.1-6.9,2.1c-2.7,0-4.9-0.7-6.6-2.2c-1.7-1.4-2.5-3.7-2.5-6.8v-9.9c0-3.1,0.8-5.4,2.5-6.8
		C35,104.5,37.2,103.7,40,103.7 M40,101.7c-3.2,0-5.8,0.9-7.9,2.6c-2.1,1.8-3.2,4.6-3.2,8.3v10.1c0,3.7,1.1,6.5,3.2,8.3
		c2,1.8,4.7,2.6,7.9,2.6c3.2,0,6-0.9,8.1-2.6c2.3-1.8,3.4-4.3,3.4-7.4c0-1.7-0.5-3-1.4-3.7c-0.8-0.7-2-1.1-3.6-1.1
		c-4.3,0-4.8,2.8-4.9,3.6c-0.1,0.6-0.1,0.9-0.1,1c0,0.1-0.1,0.3-0.3,0.8l0,0c-0.1,0.1-0.4,0.1-0.9,0.1c-0.9,0-1.5-0.1-1.5-1.8v-9.8
		c0-1.8,0.6-1.8,1.4-1.8c0.9,0,1.3,0.1,1.4,1.5c0,0,0,0,0,0.1c0.1,0.9,0.6,3.7,5,3.7c1.6,0,2.7-0.4,3.6-1.1c0.9-0.8,1.4-2,1.4-3.7
		c0-3-1.2-5.4-3.5-7.1C45.9,102.6,43.2,101.7,40,101.7L40,101.7z"/>
	<path class="st0" d="M63.1,132.5c-1,0-1.8-0.2-2.6-0.6c-0.9-0.5-1.4-1.3-1.4-2.2v-24.2c0-1,0.5-1.7,1.4-2.2
		c0.7-0.4,1.6-0.6,2.6-0.6s1.8,0.2,2.6,0.6c0.9,0.5,1.4,1.3,1.4,2.2v24.2c0,0.9-0.5,1.7-1.4,2.2C64.9,132.3,64,132.5,63.1,132.5z"/>
	<path d="M63.1,103.7c0.8,0,1.5,0.2,2.1,0.5c0.6,0.3,0.9,0.7,0.9,1.3v24.2c0,0.6-0.3,1-0.9,1.3c-0.6,0.3-1.3,0.5-2.1,0.5
		c-0.8,0-1.5-0.2-2.1-0.5c-0.6-0.3-0.9-0.8-0.9-1.3v-24.2c0-0.6,0.3-1,0.9-1.3C61.5,103.9,62.2,103.7,63.1,103.7 M63.1,101.7
		c-1.1,0-2.1,0.2-3,0.7c-1.2,0.6-1.9,1.8-1.9,3.1v24.2c0,1.3,0.7,2.4,1.9,3.1c0.9,0.5,1.9,0.7,3,0.7s2.2-0.2,3-0.7
		c1.2-0.7,1.9-1.8,1.9-3.1v-24.2c0-1.3-0.7-2.5-1.9-3.1C65.2,102,64.2,101.7,63.1,101.7L63.1,101.7z"/>
	<path class="st0" d="M80.3,132.5c-0.9,0-1.7-0.2-2.4-0.6c-0.8-0.5-1.2-1.3-1.2-2.2v-24.1c0-0.9,0.4-1.7,1.2-2.2
		c0.7-0.4,1.5-0.6,2.4-0.6h13.5c0.9,0,1.7,0.4,2.2,1.2c0.4,0.7,0.6,1.4,0.6,2.3c0,0.9-0.2,1.7-0.6,2.4c-0.5,0.8-1.3,1.2-2.2,1.2
		h-9.2v4.4h4.7c0.9,0,1.6,0.4,2.1,1.1c0.4,0.6,0.7,1.4,0.7,2.2s-0.2,1.5-0.6,2.1c-0.5,0.7-1.2,1.1-2.2,1.1h-4.7v4.5h9.2
		c0.9,0,1.7,0.4,2.2,1.2c0.4,0.7,0.6,1.5,0.6,2.4c0,0.9-0.2,1.6-0.6,2.3c-0.5,0.8-1.3,1.2-2.2,1.2L80.3,132.5L80.3,132.5z"/>
	<path d="M93.8,103.7c0.6,0,1,0.3,1.3,0.8s0.5,1.1,0.5,1.8c0,0.7-0.2,1.4-0.5,1.9s-0.8,0.8-1.3,0.8H83.6v6.4h5.7
		c0.6,0,1,0.2,1.3,0.7s0.5,1,0.5,1.6s-0.2,1.1-0.5,1.6s-0.7,0.7-1.3,0.7h-5.7v6.5h10.2c0.6,0,1,0.3,1.3,0.8s0.5,1.1,0.5,1.9
		c0,0.7-0.2,1.3-0.5,1.8s-0.7,0.8-1.3,0.8H80.3c-0.7,0-1.3-0.2-1.8-0.5s-0.8-0.8-0.8-1.3v-24.4c0-0.6,0.3-1,0.8-1.3
		c0.5-0.3,1.1-0.5,1.8-0.5L93.8,103.7 M93.8,101.7H80.3c-1.1,0-2.1,0.3-2.9,0.8c-1.1,0.7-1.7,1.8-1.7,3v24.2c0,1.3,0.6,2.4,1.7,3
		c0.8,0.5,1.8,0.8,2.9,0.8h13.5c1.3,0,2.4-0.6,3-1.7c0.5-0.8,0.7-1.8,0.7-2.8c0-1.1-0.3-2.1-0.8-2.9c-0.7-1.1-1.8-1.7-3-1.7h-8.2
		v-2.5h3.7c1.3,0,2.3-0.6,3-1.6c0.5-0.8,0.8-1.7,0.8-2.7s-0.3-2-0.8-2.8c-0.7-1-1.7-1.5-3-1.5h-3.7v-2.4h8.2c1.3,0,2.3-0.6,3-1.7
		c0.5-0.8,0.8-1.8,0.8-2.9c0-1-0.2-2-0.7-2.8C96.2,102.4,95.1,101.7,93.8,101.7L93.8,101.7z"/>
	<path class="st0" d="M122.3,132.5c-2.5,0-3.7-1.2-4.2-2.1l-5.3-9.7v9c0,0.9-0.5,1.7-1.4,2.2c-0.7,0.4-1.6,0.6-2.6,0.6
		s-1.8-0.2-2.6-0.6c-0.9-0.5-1.4-1.3-1.4-2.2v-24.1c0-0.9,0.5-1.7,1.4-2.2c0.7-0.4,1.6-0.6,2.6-0.6c1.3,0,2.3,0.2,3,0.6
		c0.7,0.4,1.4,1.3,2.2,2.9l4.3,8.1v-8.9c0-1,0.5-1.7,1.4-2.2c0.7-0.4,1.6-0.6,2.6-0.6s1.8,0.2,2.6,0.6c0.9,0.5,1.4,1.3,1.4,2.2v24.2
		c0,0.9-0.5,1.7-1.4,2.2C124.1,132.3,123.2,132.5,122.3,132.5z"/>
	<path d="M122.3,103.7c0.8,0,1.5,0.2,2.1,0.5c0.6,0.3,0.9,0.7,0.9,1.3v24.2c0,0.6-0.3,1-0.9,1.3c-0.6,0.3-1.3,0.5-2.1,0.5
		c-1.6,0-2.7-0.5-3.3-1.6l-7.2-13.1v12.9c0,0.6-0.3,1-0.9,1.3c-0.6,0.3-1.3,0.5-2.1,0.5c-0.8,0-1.5-0.2-2.1-0.5
		c-0.6-0.3-0.9-0.8-0.9-1.3v-24.1c0-0.6,0.3-1,0.9-1.3c0.6-0.3,1.3-0.5,2.1-0.5c1.1,0,2,0.2,2.5,0.5c0.5,0.3,1.2,1.2,1.8,2.5
		l6.2,11.7v-13c0-0.6,0.3-1,0.9-1.3C120.8,103.9,121.4,103.7,122.3,103.7 M122.3,101.7c-1.1,0-2.1,0.2-3,0.7
		c-1.2,0.6-1.9,1.8-1.9,3.1v4.8l-2.4-4.5c-0.9-1.7-1.7-2.7-2.6-3.3c-0.9-0.5-2-0.8-3.6-0.8c-1.1,0-2.2,0.2-3,0.7
		c-1.2,0.7-1.9,1.8-1.9,3.1v24.2c0,1.3,0.7,2.4,1.9,3.1c0.9,0.5,1.9,0.7,3,0.7s2.2-0.2,3-0.7c1.2-0.7,1.9-1.8,1.9-3.1v-5.1l3.5,6.3
		c0.7,1.2,2.1,2.6,5.1,2.6c1.1,0,2.2-0.2,3-0.7c1.2-0.7,1.9-1.8,1.9-3.1v-24.2c0-1.3-0.7-2.5-1.9-3.1
		C124.4,102,123.4,101.7,122.3,101.7L122.3,101.7z"/>
	<path class="st0" d="M145.7,132.7c-2.9,0-5.4-0.8-7.2-2.4c-1.9-1.6-2.9-4.2-2.9-7.6v-10c0-3.4,1-5.9,2.9-7.6
		c1.9-1.6,4.3-2.4,7.2-2.4c3,0,5.5,0.7,7.5,2.2s3.1,3.7,3.1,6.3c0,1.4-0.3,2.4-1,3c-0.6,0.6-1.6,0.8-2.9,0.8c-3.3,0-3.9-1.7-4-2.7
		c-0.1-1.8-0.8-2.5-2.4-2.5c-1.3,0-2.4,0.3-2.4,2.8v10.1c0,2.5,1.2,2.8,2.5,2.8c0.6,0,1-0.1,1.3-0.2c0.3-0.1,0.4-0.3,0.5-0.5
		c0.2-0.5,0.3-0.8,0.3-1c0.1-0.3,0.1-0.6,0.2-1.1c0.1-1,0.7-2.7,3.9-2.7c1.3,0,2.3,0.3,3,0.8c0.7,0.6,1,1.6,1,3c0,2.8-1,5-3.1,6.6
		C151.3,132,148.7,132.7,145.7,132.7z"/>
	<path d="M145.7,103.7c2.8,0,5.1,0.7,6.9,2c1.8,1.3,2.7,3.2,2.7,5.5c0,1.1-0.2,1.8-0.7,2.2s-1.2,0.6-2.3,0.6c-1.9,0-2.9-0.6-3-1.8
		c-0.1-2.3-1.2-3.4-3.4-3.4c-2.3,0-3.4,1.3-3.4,3.8v10.1c0,2.5,1.2,3.8,3.5,3.8c0.7,0,1.3-0.1,1.8-0.3c0.5-0.2,0.8-0.6,1-1
		c0.2-0.5,0.3-0.9,0.4-1.2s0.1-0.7,0.2-1.3c0.1-1.2,1.1-1.8,2.9-1.8c1.1,0,1.9,0.2,2.3,0.6s0.7,1.1,0.7,2.2c0,2.5-0.9,4.4-2.7,5.8
		c-1.8,1.4-4.1,2.1-6.9,2.1c-2.7,0-4.9-0.7-6.6-2.2c-1.7-1.4-2.5-3.7-2.5-6.8v-9.9c0-3.1,0.8-5.4,2.5-6.8
		C140.8,104.5,143,103.7,145.7,103.7 M145.7,101.7c-3.2,0-5.8,0.9-7.9,2.6c-2.1,1.8-3.2,4.6-3.2,8.3v10.1c0,3.7,1.1,6.5,3.2,8.3
		c2,1.8,4.7,2.6,7.9,2.6c3.2,0,6-0.9,8.1-2.6c2.3-1.8,3.4-4.3,3.4-7.4c0-1.7-0.5-3-1.4-3.7c-0.8-0.7-2-1.1-3.6-1.1
		c-4.3,0-4.8,2.8-4.9,3.6c-0.1,0.6-0.1,0.9-0.1,1c0,0.1-0.1,0.3-0.3,0.8l0,0c-0.1,0.1-0.4,0.1-0.9,0.1c-0.9,0-1.5-0.1-1.5-1.8v-9.8
		c0-1.8,0.6-1.8,1.4-1.8c0.9,0,1.3,0.1,1.4,1.5c0,0,0,0,0,0.1c0.1,0.9,0.6,3.7,5,3.7c1.6,0,2.7-0.4,3.6-1.1c0.9-0.8,1.4-2,1.4-3.7
		c0-3-1.2-5.4-3.5-7.1C151.7,102.6,149,101.7,145.7,101.7L145.7,101.7z"/>
	<path class="st0" d="M168.5,132.5c-0.9,0-1.7-0.2-2.4-0.6c-0.8-0.5-1.2-1.3-1.2-2.2v-24.1c0-0.9,0.4-1.7,1.2-2.2
		c0.7-0.4,1.5-0.6,2.4-0.6H182c0.9,0,1.7,0.4,2.2,1.2c0.4,0.7,0.6,1.4,0.6,2.3c0,0.9-0.2,1.7-0.6,2.4c-0.5,0.8-1.3,1.2-2.2,1.2h-9.2
		v4.4h4.7c0.9,0,1.6,0.4,2.1,1.1c0.4,0.6,0.7,1.4,0.7,2.2s-0.2,1.5-0.6,2.1c-0.5,0.7-1.2,1.1-2.2,1.1h-4.7v4.5h9.2
		c0.9,0,1.7,0.4,2.2,1.2c0.4,0.7,0.6,1.5,0.6,2.4c0,0.9-0.2,1.6-0.6,2.3c-0.5,0.8-1.3,1.2-2.2,1.2L168.5,132.5L168.5,132.5z"/>
	<path d="M182,103.7c0.6,0,1,0.3,1.3,0.8s0.5,1.1,0.5,1.8c0,0.7-0.2,1.4-0.5,1.9s-0.8,0.8-1.3,0.8h-10.2v6.4h5.7
		c0.6,0,1,0.2,1.3,0.7s0.5,1,0.5,1.6s-0.2,1.1-0.5,1.6s-0.7,0.7-1.3,0.7h-5.7v6.5H182c0.6,0,1,0.3,1.3,0.8s0.5,1.1,0.5,1.9
		c0,0.7-0.2,1.3-0.5,1.8s-0.7,0.8-1.3,0.8h-13.5c-0.7,0-1.3-0.2-1.8-0.5s-0.8-0.8-0.8-1.3v-24.4c0-0.6,0.3-1,0.8-1.3
		c0.5-0.3,1.1-0.5,1.8-0.5L182,103.7 M182,101.7h-13.5c-1.1,0-2.1,0.3-2.9,0.8c-1.1,0.7-1.7,1.8-1.7,3v24.2c0,1.3,0.6,2.4,1.7,3
		c0.8,0.5,1.8,0.8,2.9,0.8H182c1.3,0,2.4-0.6,3-1.7c0.5-0.8,0.7-1.8,0.7-2.8c0-1.1-0.3-2.1-0.8-2.9c-0.7-1.1-1.8-1.7-3-1.7h-8.2
		v-2.5h3.7c1.3,0,2.3-0.6,3-1.6c0.5-0.8,0.8-1.7,0.8-2.7s-0.3-2-0.8-2.8c-0.7-1-1.7-1.5-3-1.5h-3.7v-2.4h8.2c1.3,0,2.3-0.6,3-1.7
		c0.5-0.8,0.8-1.8,0.8-2.9c0-1-0.2-2-0.7-2.8C184.4,102.4,183.3,101.7,182,101.7L182,101.7z"/>
</g>
</svg>
