<?xml version="1.0" encoding="utf-8"?>
<!-- Generator: Adobe Illustrator 19.2.1, SVG Export Plug-In . SVG Version: 6.00 Build 0)  -->
<svg version="1.1" id="Layer_1" xmlns="http://www.w3.org/2000/svg" xmlns:xlink="http://www.w3.org/1999/xlink" x="0px" y="0px"
	 viewBox="0 0 486 81" style="enable-background:new 0 0 486 81;" xml:space="preserve">
<style type="text/css">
	.st0{fill:#FFFFFF;}
</style>
<g>
	<g>
		<g>
			<path d="M37.2,28.8c0.7,0,1.3,0,2.1,0.1c0.7,0.1,1.5,0.2,2.4,0.5c0.9,0.2,1.6,0.6,2.2,1.1c0.6,0.5,0.9,1.1,0.9,1.8
				c0,0.7-0.2,1.4-0.6,2.1s-1,1.1-1.7,1.1c-0.3,0-0.9-0.2-1.9-0.7c-1-0.5-2.1-0.7-3.3-0.7c-1.3,0-2.2,0.2-2.8,0.7
				c-0.6,0.4-1,1-1,1.6c0,0.6,0.3,1.1,0.9,1.6c0.6,0.5,1.3,0.9,2.2,1.2c0.9,0.3,1.9,0.8,2.9,1.3c1.1,0.5,2,1.1,2.9,1.8
				c0.9,0.6,1.6,1.6,2.2,2.7c0.6,1.2,0.9,2.5,0.9,4c0,2.6-0.9,4.6-2.6,6.1c-1.7,1.5-4,2.2-6.9,2.2c-2.5,0-4.6-0.5-6.4-1.5
				c-1.8-1-2.7-2.2-2.7-3.4c0-0.7,0.3-1.4,0.8-2.1c0.5-0.7,1.1-1.1,1.8-1.1c0.4,0,0.8,0.2,1.3,0.5c0.5,0.3,0.9,0.6,1.3,1
				c0.4,0.4,0.9,0.7,1.7,1c0.7,0.3,1.5,0.5,2.2,0.5c1,0,1.8-0.2,2.6-0.6c0.7-0.4,1.1-1,1.1-1.9s-0.4-1.6-1.2-2.2
				c-0.8-0.6-1.8-1.2-3-1.7c-1.2-0.5-2.4-1.1-3.6-1.7c-1.2-0.6-2.2-1.6-3-2.8c-0.8-1.2-1.2-2.6-1.2-4.3c0-2.7,1-4.7,2.9-6
				C32.2,29.5,34.5,28.8,37.2,28.8 M37.2,26.8c-3.1,0-5.8,0.8-8,2.4c-2.4,1.7-3.7,4.3-3.7,7.7c0,2.1,0.5,3.9,1.6,5.4
				c1,1.4,2.2,2.6,3.7,3.4c1.2,0.7,2.5,1.3,3.7,1.8c1,0.5,1.9,1,2.6,1.5c0.5,0.3,0.5,0.6,0.5,0.6c0,0,0,0.1,0,0.1c0,0,0,0-0.1,0.1
				c-0.4,0.2-1,0.4-1.6,0.4c-0.5,0-1-0.1-1.4-0.3c-0.6-0.3-0.9-0.5-1.1-0.6c-0.5-0.5-1-0.9-1.6-1.2c-0.8-0.5-1.6-0.8-2.4-0.8
				c-0.9,0-2.3,0.3-3.4,1.9c-0.8,1.1-1.2,2.2-1.2,3.3c0,2,1.3,3.8,3.8,5.2c2.1,1.2,4.6,1.8,7.4,1.8c3.3,0,6-0.9,8.2-2.6
				c2.2-1.8,3.3-4.4,3.3-7.6c0-1.8-0.4-3.5-1.1-4.9c-0.7-1.4-1.7-2.6-2.8-3.4c-1-0.7-2-1.4-3.2-1.9c-1.1-0.6-2.2-1.1-3.1-1.4
				c-0.7-0.3-1.3-0.6-1.7-0.9c0,0,0,0,0,0c0.1-0.1,0.6-0.3,1.7-0.3c0.9,0,1.7,0.2,2.4,0.5c1.6,0.8,2.3,0.9,2.8,0.9
				c1.5,0,2.7-0.7,3.5-2.1c0.6-1,0.9-2.1,0.9-3.1c0-1.3-0.5-2.4-1.5-3.3c-0.8-0.7-1.8-1.2-3-1.5c-1-0.2-1.9-0.4-2.7-0.5
				C38.7,26.9,37.9,26.8,37.2,26.8L37.2,26.8z"/>
		</g>
		<g>
			<path d="M58.9,29c0.8,0,1.5,0.2,2.1,0.5c0.6,0.3,0.9,0.7,0.9,1.3V55c0,0.6-0.3,1-0.9,1.3c-0.6,0.3-1.3,0.5-2.1,0.5
				c-0.8,0-1.5-0.2-2.1-0.5C56.2,56,56,55.6,56,55V30.8c0-0.6,0.3-1,0.9-1.3C57.4,29.2,58.1,29,58.9,29 M58.9,27
				c-1.1,0-2.1,0.2-3,0.7c-1.2,0.6-1.9,1.8-1.9,3.1V55c0,1.3,0.7,2.4,1.9,3.1c0.9,0.5,1.9,0.7,3,0.7c1.1,0,2.2-0.2,3-0.7
				c1.2-0.7,1.9-1.8,1.9-3.1V30.8c0-1.3-0.7-2.5-1.9-3.1C61.1,27.3,60,27,58.9,27L58.9,27z"/>
		</g>
		<g>
			<path d="M82.4,29c2.8,0,5.1,0.7,6.9,2c1.8,1.3,2.7,3.2,2.7,5.5c0,1.1-0.2,1.8-0.7,2.2c-0.5,0.4-1.2,0.6-2.3,0.6
				c-2,0-2.9-0.6-3-1.8c0-0.4,0-0.7,0-0.9c0-0.2-0.1-0.5-0.2-0.9c-0.1-0.4-0.3-0.6-0.5-0.8c-0.2-0.2-0.6-0.4-1-0.6
				c-0.4-0.2-1-0.2-1.6-0.2c-2.3,0-3.4,1.3-3.4,3.8v10.1c0,2.5,1.1,3.8,3.4,3.8c2.3,0,3.4-1.3,3.4-3.8v-1.3h-2.2
				c-0.6,0-1-0.2-1.3-0.7c-0.3-0.4-0.5-1-0.5-1.6c0-0.6,0.2-1.1,0.5-1.6c0.3-0.5,0.8-0.7,1.3-0.7h6.4c0.6,0,1,0.2,1.3,0.6
				c0.3,0.4,0.5,0.8,0.5,1.3v4c0,3.1-0.8,5.4-2.5,6.8c-1.7,1.4-4,2.2-6.8,2.2c-2.8,0-5.1-0.7-6.8-2.2c-1.7-1.4-2.5-3.7-2.5-6.8V38
				c0-3.1,0.8-5.4,2.5-6.8C77.5,29.8,79.7,29,82.4,29 M82.4,27c-3.2,0-5.8,0.9-7.9,2.6c-2.1,1.8-3.2,4.6-3.2,8.3v10.1
				c0,3.7,1.1,6.5,3.3,8.3c2.1,1.8,4.8,2.6,8.1,2.6c3.3,0,6-0.9,8.1-2.6c2.2-1.8,3.2-4.6,3.2-8.3v-4c0-1-0.3-1.9-1-2.6
				c-0.3-0.3-0.6-0.6-0.9-0.8c0.2-0.1,0.3-0.2,0.5-0.4c0.9-0.8,1.4-2,1.4-3.7c0-3-1.2-5.4-3.5-7.1C88.3,27.9,85.6,27,82.4,27
				L82.4,27z M81.2,41.3V38c0-1.8,0.6-1.8,1.4-1.8c0.5,0,0.7,0.1,0.9,0.1c0.2,0.1,0.3,0.1,0.3,0.2c0,0,0,0,0,0
				c0.1,0.3,0.1,0.4,0.1,0.4c0,0.1,0,0.3,0,0.7c0,0.5,0.2,1.7,1.1,2.6h-1.4C82.8,40.2,81.9,40.6,81.2,41.3L81.2,41.3z M82.6,49.9
				c-0.8,0-1.4,0-1.4-1.8v-0.3c0.7,0.7,1.6,1.1,2.6,1.1H84C83.8,49.9,83.3,49.9,82.6,49.9L82.6,49.9z"/>
		</g>
		<g>
			<path d="M119.4,29c0.8,0,1.5,0.2,2.1,0.5c0.6,0.3,0.9,0.7,0.9,1.3V55c0,0.6-0.3,1-0.9,1.3c-0.6,0.3-1.3,0.5-2.1,0.5
				c-1.6,0-2.7-0.5-3.3-1.6l-7.2-13.1V55c0,0.6-0.3,1-0.9,1.3c-0.6,0.3-1.3,0.5-2.1,0.5c-0.8,0-1.5-0.2-2.1-0.5
				c-0.6-0.3-0.9-0.8-0.9-1.3V30.9c0-0.6,0.3-1,0.9-1.3c0.6-0.3,1.3-0.5,2.1-0.5c1.1,0,2,0.2,2.5,0.5c0.5,0.3,1.2,1.2,1.8,2.5
				l6.2,11.7V30.8c0-0.6,0.3-1,0.9-1.3C117.9,29.2,118.6,29,119.4,29 M119.4,27c-1.1,0-2.1,0.2-3,0.7c-1.2,0.6-1.9,1.8-1.9,3.1v4.8
				l-2.4-4.5c-0.9-1.7-1.7-2.7-2.6-3.3c-0.9-0.5-2-0.8-3.6-0.8c-1.1,0-2.2,0.2-3,0.7c-1.2,0.7-1.9,1.8-1.9,3.1V55
				c0,1.3,0.7,2.4,1.9,3.1c0.9,0.5,1.9,0.7,3,0.7c1.1,0,2.2-0.2,3-0.7c1.2-0.7,1.9-1.8,1.9-3.1v-5.1l3.5,6.3
				c0.7,1.2,2.1,2.6,5.1,2.6c1.1,0,2.2-0.2,3-0.7c1.2-0.7,1.9-1.8,1.9-3.1V30.8c0-1.3-0.7-2.5-1.9-3.1C121.6,27.3,120.5,27,119.4,27
				L119.4,27z"/>
		</g>
		<g>
			<path d="M143.2,28.8c0.7,0,1.3,0,2.1,0.1c0.7,0.1,1.5,0.2,2.4,0.5c0.9,0.2,1.6,0.6,2.2,1.1c0.6,0.5,0.9,1.1,0.9,1.8
				c0,0.7-0.2,1.4-0.6,2.1c-0.4,0.7-1,1.1-1.7,1.1c-0.3,0-0.9-0.2-1.9-0.7c-1-0.5-2.1-0.7-3.3-0.7c-1.3,0-2.2,0.2-2.8,0.7
				c-0.6,0.4-1,1-1,1.6c0,0.6,0.3,1.1,0.9,1.6c0.6,0.5,1.3,0.9,2.2,1.2c0.9,0.3,1.9,0.8,2.9,1.3c1.1,0.5,2,1.1,2.9,1.8
				c0.9,0.6,1.6,1.6,2.2,2.7s0.9,2.5,0.9,4c0,2.6-0.9,4.6-2.6,6.1c-1.7,1.5-4,2.2-6.9,2.2c-2.5,0-4.6-0.5-6.4-1.5
				c-1.8-1-2.7-2.2-2.7-3.4c0-0.7,0.3-1.4,0.8-2.1c0.5-0.7,1.1-1.1,1.8-1.1c0.4,0,0.8,0.2,1.3,0.5c0.5,0.3,0.9,0.6,1.3,1
				c0.4,0.4,0.9,0.7,1.7,1c0.7,0.3,1.5,0.5,2.2,0.5c1,0,1.8-0.2,2.6-0.6c0.7-0.4,1.1-1,1.1-1.9s-0.4-1.6-1.2-2.2
				c-0.8-0.6-1.8-1.2-3-1.7c-1.2-0.5-2.4-1.1-3.6-1.7c-1.2-0.6-2.2-1.6-3-2.8c-0.8-1.2-1.2-2.6-1.2-4.3c0-2.7,1-4.7,2.9-6
				C138.2,29.5,140.5,28.8,143.2,28.8 M143.2,26.8c-3.1,0-5.8,0.8-8,2.4c-2.4,1.7-3.7,4.3-3.7,7.7c0,2.1,0.5,3.9,1.6,5.4
				c1,1.4,2.2,2.6,3.7,3.4c1.2,0.7,2.5,1.3,3.7,1.8c1,0.5,1.9,1,2.6,1.5c0.5,0.3,0.5,0.6,0.5,0.6c0,0,0,0.1,0,0.1c0,0,0,0-0.1,0.1
				c-0.4,0.2-1,0.4-1.6,0.4c-0.5,0-1-0.1-1.4-0.3c-0.6-0.3-0.9-0.5-1.1-0.6c-0.5-0.5-1-0.9-1.6-1.2c-0.8-0.5-1.6-0.8-2.4-0.8
				c-0.9,0-2.3,0.3-3.4,1.9c-0.8,1.1-1.2,2.2-1.2,3.3c0,2,1.3,3.8,3.8,5.2c2.1,1.2,4.6,1.8,7.4,1.8c3.3,0,6-0.9,8.2-2.6
				c2.2-1.8,3.3-4.4,3.3-7.6c0-1.8-0.4-3.5-1.1-4.9c-0.7-1.4-1.7-2.6-2.8-3.4c-1-0.7-2-1.4-3.2-1.9c-1.1-0.6-2.2-1.1-3.1-1.4
				c-0.7-0.3-1.3-0.6-1.7-0.9c0,0,0,0,0,0c0.1-0.1,0.6-0.3,1.7-0.3c0.9,0,1.7,0.2,2.4,0.5c1.6,0.8,2.3,0.9,2.8,0.9
				c1.5,0,2.7-0.7,3.5-2.1c0.6-1,0.9-2.1,0.9-3.1c0-1.3-0.5-2.4-1.5-3.3c-0.8-0.7-1.8-1.2-3-1.5c-1-0.2-1.9-0.4-2.7-0.5
				C144.7,26.9,143.9,26.8,143.2,26.8L143.2,26.8z"/>
		</g>
		<g>
			<path d="M192.9,29c0.6,0,1,0.3,1.3,0.8c0.3,0.5,0.5,1.1,0.5,1.8c0,0.7-0.2,1.4-0.5,1.9c-0.3,0.5-0.8,0.8-1.3,0.8h-9.8v6.4h5.7
				c0.6,0,1,0.2,1.3,0.7c0.3,0.5,0.5,1,0.5,1.6c0,0.6-0.2,1.1-0.5,1.6c-0.3,0.5-0.7,0.7-1.3,0.7h-5.7V55c0,0.6-0.3,1-0.9,1.3
				c-0.6,0.3-1.3,0.5-2.1,0.5c-0.8,0-1.5-0.2-2.1-0.5c-0.6-0.3-0.9-0.8-0.9-1.3V30.9c0-0.6,0.3-1,0.8-1.3c0.5-0.3,1.1-0.5,1.8-0.5
				H192.9 M192.9,27h-13.2c-1.1,0-2.1,0.3-2.9,0.8c-1.1,0.7-1.7,1.8-1.7,3V55c0,1.3,0.7,2.4,1.9,3.1c0.9,0.5,1.9,0.7,3,0.7
				c1.1,0,2.2-0.2,3-0.7c1.2-0.7,1.9-1.8,1.9-3.1v-7.8h3.7c1.3,0,2.3-0.6,3-1.6c0.5-0.8,0.8-1.7,0.8-2.7c0-1-0.3-2-0.8-2.8
				c-0.7-1-1.7-1.5-3-1.5h-3.7v-2.4h7.8c1.3,0,2.3-0.6,3-1.7c0.5-0.8,0.8-1.8,0.8-2.9c0-1-0.2-2-0.7-2.8
				C195.3,27.7,194.2,27,192.9,27L192.9,27z"/>
		</g>
		<g>
			<path d="M213,29c2.8,0,5.1,0.7,6.8,2.2c1.7,1.4,2.5,3.7,2.5,6.8v10.1c0,3.1-0.8,5.4-2.5,6.8c-1.7,1.4-4,2.2-6.8,2.2
				c-2.8,0-5.1-0.7-6.8-2.2c-1.7-1.4-2.5-3.7-2.5-6.8V38c0-3.1,0.8-5.4,2.5-6.8C208,29.8,210.2,29,213,29 M213,51.9
				c2.3,0,3.4-1.3,3.4-3.8V38c0-2.5-1.1-3.8-3.4-3.8c-2.3,0-3.4,1.3-3.4,3.8v10.1C209.7,50.6,210.8,51.9,213,51.9 M213,27
				c-3.3,0-6,0.9-8.1,2.6c-2.2,1.8-3.3,4.6-3.3,8.3v10.1c0,3.7,1.1,6.5,3.3,8.3c2.1,1.8,4.8,2.6,8.1,2.6c3.3,0,6-0.9,8.1-2.6
				c2.2-1.8,3.2-4.6,3.2-8.3V38c0-3.7-1.1-6.5-3.2-8.3C219.1,27.9,216.4,27,213,27L213,27z M213,49.9c-0.8,0-1.4,0-1.4-1.8V38
				c0-1.8,0.6-1.8,1.4-1.8c0.8,0,1.4,0,1.4,1.8v10.1C214.5,49.9,213.9,49.9,213,49.9L213,49.9z"/>
		</g>
		<g>
			<path d="M243.5,29c6.2,0,9.3,2.7,9.3,8.1c0,4-1.5,6.5-4.6,7.7l4.6,8.4c0.1,0.2,0.2,0.4,0.2,0.7c0,0.7-0.4,1.4-1.2,2.1
				s-1.6,1-2.5,1c-0.9,0-1.5-0.4-1.9-1.1l-5.2-10.1h-2.5V55c0,0.6-0.3,1-0.9,1.3c-0.6,0.3-1.3,0.5-2.1,0.5c-0.8,0-1.5-0.2-2.1-0.5
				c-0.6-0.3-0.9-0.8-0.9-1.3V30.8c0-0.5,0.2-0.9,0.5-1.3c0.3-0.4,0.8-0.5,1.3-0.5H243.5 M239.7,41.3h3.8c1.1,0,2-0.3,2.5-0.8
				c0.6-0.5,0.9-1.4,0.9-2.7c0-1.3-0.3-2.2-0.9-2.7c-0.6-0.5-1.4-0.8-2.5-0.8h-3.8V41.3 M243.5,27h-7.9c-1.1,0-2,0.4-2.7,1.1
				c-0.7,0.7-1.1,1.6-1.1,2.6V55c0,1.3,0.7,2.4,1.9,3.1c0.9,0.5,1.9,0.7,3,0.7c1.1,0,2.2-0.2,3-0.7c1.2-0.7,1.9-1.8,1.9-3.1v-5.8
				l3.9,7.6c0.7,1.4,2,2.2,3.7,2.2c1.4,0,2.6-0.5,3.8-1.4c1.6-1.3,1.9-2.7,1.9-3.6c0-0.6-0.2-1.2-0.5-1.7l-3.6-6.6
				c2-1.4,3.9-4,3.9-8.5C254.8,28.4,247.7,27,243.5,27L243.5,27z M241.7,36.2h1.8c0.6,0,1,0.1,1.2,0.3c0.1,0.1,0.2,0.4,0.2,1.3
				c0,0.8-0.2,1.2-0.2,1.3c-0.2,0.2-0.6,0.3-1.2,0.3h-1.8V36.2L241.7,36.2z"/>
		</g>
		<g>
			<path d="M287.9,28.8c0.7,0,1.3,0,2.1,0.1c0.7,0.1,1.5,0.2,2.4,0.5c0.9,0.2,1.6,0.6,2.2,1.1c0.6,0.5,0.9,1.1,0.9,1.8
				c0,0.7-0.2,1.4-0.6,2.1s-1,1.1-1.7,1.1c-0.3,0-0.9-0.2-1.9-0.7c-1-0.5-2.1-0.7-3.3-0.7c-1.3,0-2.2,0.2-2.8,0.7
				c-0.6,0.4-1,1-1,1.6c0,0.6,0.3,1.1,0.9,1.6c0.6,0.5,1.3,0.9,2.2,1.2c0.9,0.3,1.9,0.8,2.9,1.3c1.1,0.5,2,1.1,2.9,1.8
				c0.9,0.6,1.6,1.6,2.2,2.7s0.9,2.5,0.9,4c0,2.6-0.9,4.6-2.6,6.1s-4,2.2-6.9,2.2c-2.5,0-4.6-0.5-6.4-1.5c-1.8-1-2.7-2.2-2.7-3.4
				c0-0.7,0.3-1.4,0.8-2.1c0.5-0.7,1.1-1.1,1.8-1.1c0.4,0,0.8,0.2,1.3,0.5c0.5,0.3,0.9,0.6,1.3,1c0.4,0.4,0.9,0.7,1.7,1
				c0.7,0.3,1.5,0.5,2.2,0.5c1,0,1.8-0.2,2.6-0.6c0.7-0.4,1.1-1,1.1-1.9s-0.4-1.6-1.2-2.2c-0.8-0.6-1.8-1.2-3-1.7
				c-1.2-0.5-2.4-1.1-3.6-1.7c-1.2-0.6-2.2-1.6-3-2.8c-0.8-1.2-1.2-2.6-1.2-4.3c0-2.7,1-4.7,2.9-6C282.9,29.5,285.2,28.8,287.9,28.8
				 M287.9,26.8c-3.1,0-5.8,0.8-8,2.4c-2.4,1.7-3.7,4.3-3.7,7.7c0,2.1,0.5,3.9,1.6,5.4c1,1.4,2.2,2.6,3.7,3.4
				c1.2,0.7,2.5,1.3,3.7,1.8c1,0.5,1.9,1,2.6,1.5c0.5,0.3,0.5,0.6,0.5,0.6c0,0,0,0.1,0,0.1c0,0,0,0-0.1,0.1c-0.4,0.2-1,0.4-1.6,0.4
				c-0.5,0-1-0.1-1.4-0.3c-0.6-0.3-0.9-0.5-1.1-0.6c-0.5-0.5-1-0.9-1.6-1.2c-0.8-0.5-1.6-0.8-2.4-0.8c-0.9,0-2.3,0.3-3.4,1.9
				c-0.8,1.1-1.2,2.2-1.2,3.3c0,2,1.3,3.8,3.8,5.2c2.1,1.2,4.6,1.8,7.4,1.8c3.3,0,6-0.9,8.2-2.6c2.2-1.8,3.3-4.4,3.3-7.6
				c0-1.8-0.4-3.5-1.1-4.9c-0.7-1.4-1.7-2.6-2.8-3.4c-1-0.7-2-1.4-3.2-1.9c-1.1-0.6-2.2-1.1-3.1-1.4c-0.7-0.3-1.3-0.6-1.7-0.9
				c0,0,0,0,0,0c0.1-0.1,0.6-0.3,1.7-0.3c0.9,0,1.7,0.2,2.4,0.5c1.6,0.8,2.3,0.9,2.8,0.9c1.5,0,2.7-0.7,3.5-2.1
				c0.6-1,0.9-2.1,0.9-3.1c0-1.3-0.5-2.4-1.5-3.3c-0.8-0.7-1.8-1.2-3-1.5c-1-0.2-1.9-0.4-2.7-0.5C289.4,26.9,288.6,26.8,287.9,26.8
				L287.9,26.8z"/>
		</g>
		<g>
			<path d="M315.5,29c2.8,0,5.1,0.7,6.9,2c1.8,1.3,2.7,3.2,2.7,5.5c0,1.1-0.2,1.8-0.7,2.2c-0.5,0.4-1.2,0.6-2.3,0.6
				c-1.9,0-2.9-0.6-3-1.8c-0.1-2.3-1.2-3.4-3.4-3.4c-2.3,0-3.4,1.3-3.4,3.8v10.1c0,2.5,1.2,3.8,3.5,3.8c0.7,0,1.3-0.1,1.8-0.3
				c0.5-0.2,0.8-0.6,1-1c0.2-0.5,0.3-0.9,0.4-1.2c0.1-0.3,0.1-0.7,0.2-1.3c0.1-1.2,1.1-1.8,2.9-1.8c1.1,0,1.9,0.2,2.3,0.6
				s0.7,1.1,0.7,2.2c0,2.5-0.9,4.4-2.7,5.8c-1.8,1.4-4.1,2.1-6.9,2.1c-2.7,0-4.9-0.7-6.6-2.2c-1.7-1.4-2.5-3.7-2.5-6.8V38
				c0-3.1,0.8-5.4,2.5-6.8C310.5,29.8,312.7,29,315.5,29 M315.5,27c-3.2,0-5.8,0.9-7.9,2.6c-2.1,1.8-3.2,4.6-3.2,8.3v10.1
				c0,3.7,1.1,6.5,3.2,8.3c2,1.8,4.7,2.6,7.9,2.6c3.2,0,6-0.9,8.1-2.6c2.3-1.8,3.4-4.3,3.4-7.4c0-1.7-0.5-3-1.4-3.7
				c-0.8-0.7-2-1.1-3.6-1.1c-4.3,0-4.8,2.8-4.9,3.6c-0.1,0.6-0.1,0.9-0.1,1c0,0.1-0.1,0.3-0.3,0.8c0,0,0,0,0,0
				c-0.1,0.1-0.4,0.1-0.9,0.1c-0.9,0-1.5-0.1-1.5-1.8V38c0-1.8,0.6-1.8,1.4-1.8c0.9,0,1.3,0.1,1.4,1.5c0,0,0,0,0,0.1
				c0.1,0.9,0.6,3.7,5,3.7c1.6,0,2.7-0.4,3.6-1.1c0.9-0.8,1.4-2,1.4-3.7c0-3-1.2-5.4-3.5-7.1C321.4,27.9,318.7,27,315.5,27L315.5,27
				z"/>
		</g>
		<g>
			<path d="M338.6,29c0.8,0,1.5,0.2,2.1,0.5c0.6,0.3,0.9,0.7,0.9,1.3V55c0,0.6-0.3,1-0.9,1.3c-0.6,0.3-1.3,0.5-2.1,0.5
				c-0.8,0-1.5-0.2-2.1-0.5c-0.6-0.3-0.9-0.8-0.9-1.3V30.8c0-0.6,0.3-1,0.9-1.3C337,29.2,337.7,29,338.6,29 M338.6,27
				c-1.1,0-2.1,0.2-3,0.7c-1.2,0.6-1.9,1.8-1.9,3.1V55c0,1.3,0.7,2.4,1.9,3.1c0.9,0.5,1.9,0.7,3,0.7c1.1,0,2.2-0.2,3-0.7
				c1.2-0.7,1.9-1.8,1.9-3.1V30.8c0-1.3-0.7-2.5-1.9-3.1C340.7,27.3,339.7,27,338.6,27L338.6,27z"/>
		</g>
		<g>
			<path d="M369.3,29c0.6,0,1,0.3,1.3,0.8c0.3,0.5,0.5,1.1,0.5,1.8c0,0.7-0.2,1.4-0.5,1.9c-0.3,0.5-0.8,0.8-1.3,0.8h-10.2v6.4h5.7
				c0.6,0,1,0.2,1.3,0.7c0.3,0.5,0.5,1,0.5,1.6c0,0.6-0.2,1.1-0.5,1.6c-0.3,0.5-0.7,0.7-1.3,0.7h-5.7v6.5h10.2c0.6,0,1,0.3,1.3,0.8
				c0.3,0.5,0.5,1.1,0.5,1.9c0,0.7-0.2,1.3-0.5,1.8c-0.3,0.5-0.7,0.8-1.3,0.8h-13.5c-0.7,0-1.3-0.2-1.8-0.5
				c-0.5-0.3-0.8-0.8-0.8-1.3V30.9c0-0.6,0.3-1,0.8-1.3c0.5-0.3,1.1-0.5,1.8-0.5H369.3 M369.3,27h-13.5c-1.1,0-2.1,0.3-2.9,0.8
				c-1.1,0.7-1.7,1.8-1.7,3V55c0,1.3,0.6,2.4,1.7,3c0.8,0.5,1.8,0.8,2.9,0.8h13.5c1.3,0,2.4-0.6,3-1.7c0.5-0.8,0.7-1.8,0.7-2.8
				c0-1.1-0.3-2.1-0.8-2.9c-0.7-1.1-1.8-1.7-3-1.7h-8.2v-2.5h3.7c1.3,0,2.3-0.6,3-1.6c0.5-0.8,0.8-1.7,0.8-2.7c0-1-0.3-2-0.8-2.8
				c-0.7-1-1.7-1.5-3-1.5h-3.7v-2.4h8.2c1.3,0,2.3-0.6,3-1.7c0.5-0.8,0.8-1.8,0.8-2.9c0-1-0.2-2-0.7-2.8
				C371.7,27.7,370.6,27,369.3,27L369.3,27z"/>
		</g>
		<g>
			<path d="M397.8,29c0.8,0,1.5,0.2,2.1,0.5c0.6,0.3,0.9,0.7,0.9,1.3V55c0,0.6-0.3,1-0.9,1.3c-0.6,0.3-1.3,0.5-2.1,0.5
				c-1.6,0-2.7-0.5-3.3-1.6l-7.2-13.1V55c0,0.6-0.3,1-0.9,1.3c-0.6,0.3-1.3,0.5-2.1,0.5c-0.8,0-1.5-0.2-2.1-0.5
				c-0.6-0.3-0.9-0.8-0.9-1.3V30.9c0-0.6,0.3-1,0.9-1.3c0.6-0.3,1.3-0.5,2.1-0.5c1.1,0,2,0.2,2.5,0.5c0.5,0.3,1.2,1.2,1.8,2.5
				l6.2,11.7V30.8c0-0.6,0.3-1,0.9-1.3C396.3,29.2,396.9,29,397.8,29 M397.8,27c-1.1,0-2.1,0.2-3,0.7c-1.2,0.6-1.9,1.8-1.9,3.1v4.8
				l-2.4-4.5c-0.9-1.7-1.7-2.7-2.6-3.3c-0.9-0.5-2-0.8-3.6-0.8c-1.1,0-2.2,0.2-3,0.7c-1.2,0.7-1.9,1.8-1.9,3.1V55
				c0,1.3,0.7,2.4,1.9,3.1c0.9,0.5,1.9,0.7,3,0.7c1.1,0,2.2-0.2,3-0.7c1.2-0.7,1.9-1.8,1.9-3.1v-5.1l3.5,6.3
				c0.7,1.2,2.1,2.6,5.1,2.6c1.1,0,2.2-0.2,3-0.7c1.2-0.7,1.9-1.8,1.9-3.1V30.8c0-1.3-0.7-2.5-1.9-3.1C399.9,27.3,398.9,27,397.8,27
				L397.8,27z"/>
		</g>
		<g>
			<path d="M421.2,29c2.8,0,5.1,0.7,6.9,2c1.8,1.3,2.7,3.2,2.7,5.5c0,1.1-0.2,1.8-0.7,2.2c-0.5,0.4-1.2,0.6-2.3,0.6
				c-1.9,0-2.9-0.6-3-1.8c-0.1-2.3-1.2-3.4-3.4-3.4c-2.3,0-3.4,1.3-3.4,3.8v10.1c0,2.5,1.2,3.8,3.5,3.8c0.7,0,1.3-0.1,1.8-0.3
				c0.5-0.2,0.8-0.6,1-1c0.2-0.5,0.3-0.9,0.4-1.2c0.1-0.3,0.1-0.7,0.2-1.3c0.1-1.2,1.1-1.8,2.9-1.8c1.1,0,1.9,0.2,2.3,0.6
				s0.7,1.1,0.7,2.2c0,2.5-0.9,4.4-2.7,5.8c-1.8,1.4-4.1,2.1-6.9,2.1c-2.7,0-4.9-0.7-6.6-2.2c-1.7-1.4-2.5-3.7-2.5-6.8V38
				c0-3.1,0.8-5.4,2.5-6.8C416.3,29.8,418.5,29,421.2,29 M421.2,27c-3.2,0-5.8,0.9-7.9,2.6c-2.1,1.8-3.2,4.6-3.2,8.3v10.1
				c0,3.7,1.1,6.5,3.2,8.3c2,1.8,4.7,2.6,7.9,2.6c3.2,0,6-0.9,8.1-2.6c2.3-1.8,3.4-4.3,3.4-7.4c0-1.7-0.5-3-1.4-3.7
				c-0.8-0.7-2-1.1-3.6-1.1c-4.3,0-4.8,2.8-4.9,3.6c-0.1,0.6-0.1,0.9-0.1,1c0,0.1-0.1,0.3-0.3,0.8c0,0,0,0,0,0
				c-0.1,0.1-0.4,0.1-0.9,0.1c-0.9,0-1.5-0.1-1.5-1.8V38c0-1.8,0.6-1.8,1.4-1.8c0.9,0,1.3,0.1,1.4,1.5c0,0,0,0,0,0.1
				c0.1,0.9,0.6,3.7,5,3.7c1.6,0,2.7-0.4,3.6-1.1c0.9-0.8,1.4-2,1.4-3.7c0-3-1.2-5.4-3.5-7.1C427.2,27.9,424.5,27,421.2,27L421.2,27
				z"/>
		</g>
		<g>
			<path d="M457.5,29c0.6,0,1,0.3,1.3,0.8c0.3,0.5,0.5,1.1,0.5,1.8c0,0.7-0.2,1.4-0.5,1.9c-0.3,0.5-0.8,0.8-1.3,0.8h-10.2v6.4h5.7
				c0.6,0,1,0.2,1.3,0.7c0.3,0.5,0.5,1,0.5,1.6c0,0.6-0.2,1.1-0.5,1.6c-0.3,0.5-0.7,0.7-1.3,0.7h-5.7v6.5h10.2c0.6,0,1,0.3,1.3,0.8
				c0.3,0.5,0.5,1.1,0.5,1.9c0,0.7-0.2,1.3-0.5,1.8c-0.3,0.5-0.7,0.8-1.3,0.8H444c-0.7,0-1.3-0.2-1.8-0.5c-0.5-0.3-0.8-0.8-0.8-1.3
				V30.9c0-0.6,0.3-1,0.8-1.3c0.5-0.3,1.1-0.5,1.8-0.5H457.5 M457.5,27H444c-1.1,0-2.1,0.3-2.9,0.8c-1.1,0.7-1.7,1.8-1.7,3V55
				c0,1.3,0.6,2.4,1.7,3c0.8,0.5,1.8,0.8,2.9,0.8h13.5c1.3,0,2.4-0.6,3-1.7c0.5-0.8,0.7-1.8,0.7-2.8c0-1.1-0.3-2.1-0.8-2.9
				c-0.7-1.1-1.8-1.7-3-1.7h-8.2v-2.5h3.7c1.3,0,2.3-0.6,3-1.6c0.5-0.8,0.8-1.7,0.8-2.7c0-1-0.3-2-0.8-2.8c-0.7-1-1.7-1.5-3-1.5
				h-3.7v-2.4h8.2c1.3,0,2.3-0.6,3-1.7c0.5-0.8,0.8-1.8,0.8-2.9c0-1-0.2-2-0.7-2.8C459.9,27.7,458.8,27,457.5,27L457.5,27z"/>
		</g>
	</g>
	<g>
		<g>
			<path class="st0" d="M35.9,53.2c-2.6,0-4.9-0.6-6.9-1.6c-2.2-1.2-3.3-2.6-3.3-4.3c0-0.9,0.3-1.8,1-2.7c0.9-1.2,1.9-1.5,2.6-1.5
				c0.6,0,1.2,0.2,1.8,0.6c0.5,0.3,1,0.7,1.4,1.1c0.3,0.3,0.8,0.6,1.4,0.8c0.6,0.3,1.2,0.4,1.8,0.4c0.8,0,1.5-0.2,2.1-0.5
				c0.4-0.2,0.6-0.5,0.6-1c0-0.3-0.1-0.8-0.8-1.4c-0.8-0.6-1.7-1.1-2.8-1.6c-1.2-0.5-2.4-1.1-3.6-1.8c-1.3-0.7-2.5-1.8-3.4-3.1
				c-0.9-1.4-1.4-3-1.4-4.8c0-3,1.1-5.3,3.3-6.8c2.1-1.4,4.6-2.2,7.5-2.2c0.7,0,1.4,0,2.2,0.1c0.8,0.1,1.6,0.2,2.6,0.5
				c1.1,0.3,1.9,0.7,2.6,1.3c0.8,0.7,1.2,1.6,1.2,2.6c0,0.8-0.3,1.7-0.8,2.6c-0.8,1.3-1.8,1.6-2.6,1.6c-0.4,0-0.9-0.1-2.4-0.8
				c-0.8-0.4-1.8-0.6-2.8-0.6c-1,0-1.8,0.2-2.3,0.5c-0.5,0.3-0.5,0.6-0.5,0.8c0,0.1,0,0.4,0.5,0.8c0.5,0.4,1.2,0.8,2,1.1
				c0.9,0.4,1.9,0.8,3,1.4c1.1,0.6,2.1,1.2,3,1.9c1,0.7,1.9,1.8,2.5,3.1c0.7,1.3,1,2.8,1,4.4c0,2.9-1,5.2-3,6.9
				C41.5,52.4,39,53.2,35.9,53.2z"/>
			<path d="M37.2,23.8c0.7,0,1.3,0,2.1,0.1c0.7,0.1,1.5,0.2,2.4,0.5c0.9,0.2,1.6,0.6,2.2,1.1c0.6,0.5,0.9,1.1,0.9,1.8
				c0,0.7-0.2,1.4-0.6,2.1s-1,1.1-1.7,1.1c-0.3,0-0.9-0.2-1.9-0.7c-1-0.5-2.1-0.7-3.3-0.7c-1.3,0-2.2,0.2-2.8,0.7
				c-0.6,0.4-1,1-1,1.6c0,0.6,0.3,1.1,0.9,1.6c0.6,0.5,1.3,0.9,2.2,1.2c0.9,0.3,1.9,0.8,2.9,1.3c1.1,0.5,2,1.1,2.9,1.8
				c0.9,0.6,1.6,1.6,2.2,2.7c0.6,1.2,0.9,2.5,0.9,4c0,2.6-0.9,4.6-2.6,6.1c-1.7,1.5-4,2.2-6.9,2.2c-2.5,0-4.6-0.5-6.4-1.5
				c-1.8-1-2.7-2.2-2.7-3.4c0-0.7,0.3-1.4,0.8-2.1c0.5-0.7,1.1-1.1,1.8-1.1c0.4,0,0.8,0.2,1.3,0.5c0.5,0.3,0.9,0.6,1.3,1
				c0.4,0.4,0.9,0.7,1.7,1c0.7,0.3,1.5,0.5,2.2,0.5c1,0,1.8-0.2,2.6-0.6c0.7-0.4,1.1-1,1.1-1.9s-0.4-1.6-1.2-2.2
				c-0.8-0.6-1.8-1.2-3-1.7c-1.2-0.5-2.4-1.1-3.6-1.7c-1.2-0.6-2.2-1.6-3-2.8c-0.8-1.2-1.2-2.6-1.2-4.3c0-2.7,1-4.7,2.9-6
				C32.2,24.5,34.5,23.8,37.2,23.8 M37.2,21.8c-3.1,0-5.8,0.8-8,2.4c-2.4,1.7-3.7,4.3-3.7,7.7c0,2.1,0.5,3.9,1.6,5.4
				c1,1.4,2.2,2.6,3.7,3.4c1.2,0.7,2.5,1.3,3.7,1.8c1,0.5,1.9,1,2.6,1.5c0.5,0.3,0.5,0.6,0.5,0.6c0,0,0,0.1,0,0.1c0,0,0,0-0.1,0.1
				c-0.4,0.2-1,0.4-1.6,0.4c-0.5,0-1-0.1-1.4-0.3c-0.6-0.3-0.9-0.5-1.1-0.6c-0.5-0.5-1-0.9-1.6-1.2c-0.8-0.5-1.6-0.8-2.4-0.8
				c-0.9,0-2.3,0.3-3.4,1.9c-0.8,1.1-1.2,2.2-1.2,3.3c0,2,1.3,3.8,3.8,5.2c2.1,1.2,4.6,1.8,7.4,1.8c3.3,0,6-0.9,8.2-2.6
				c2.2-1.8,3.3-4.4,3.3-7.6c0-1.8-0.4-3.5-1.1-4.9c-0.7-1.4-1.7-2.6-2.8-3.4c-1-0.7-2-1.4-3.2-1.9c-1.1-0.6-2.2-1.1-3.1-1.4
				c-0.7-0.3-1.3-0.6-1.7-0.9c0,0,0,0,0,0c0.1-0.1,0.6-0.3,1.7-0.3c0.9,0,1.7,0.2,2.4,0.5c1.6,0.8,2.3,0.9,2.8,0.9
				c1.5,0,2.7-0.7,3.5-2.1c0.6-1,0.9-2.1,0.9-3.1c0-1.3-0.5-2.4-1.5-3.3c-0.8-0.7-1.8-1.2-3-1.5c-1-0.2-1.9-0.4-2.7-0.5
				C38.7,21.9,37.9,21.8,37.2,21.8L37.2,21.8z"/>
		</g>
		<g>
			<path class="st0" d="M58.9,52.8c-1,0-1.8-0.2-2.6-0.6C55.4,51.7,55,50.9,55,50V25.8c0-1,0.5-1.7,1.4-2.2c0.7-0.4,1.6-0.6,2.6-0.6
				c1,0,1.8,0.2,2.6,0.6c0.9,0.5,1.4,1.3,1.4,2.2V50c0,0.9-0.5,1.7-1.4,2.2C60.8,52.6,59.9,52.8,58.9,52.8z"/>
			<path d="M58.9,24c0.8,0,1.5,0.2,2.1,0.5c0.6,0.3,0.9,0.7,0.9,1.3V50c0,0.6-0.3,1-0.9,1.3c-0.6,0.3-1.3,0.5-2.1,0.5
				c-0.8,0-1.5-0.2-2.1-0.5C56.2,51,56,50.6,56,50V25.8c0-0.6,0.3-1,0.9-1.3C57.4,24.2,58.1,24,58.9,24 M58.9,22
				c-1.1,0-2.1,0.2-3,0.7c-1.2,0.6-1.9,1.8-1.9,3.1V50c0,1.3,0.7,2.4,1.9,3.1c0.9,0.5,1.9,0.7,3,0.7c1.1,0,2.2-0.2,3-0.7
				c1.2-0.7,1.9-1.8,1.9-3.1V25.8c0-1.3-0.7-2.5-1.9-3.1C61.1,22.3,60,22,58.9,22L58.9,22z"/>
		</g>
		<g>
			<path class="st0" d="M82.6,53c-3,0-5.5-0.8-7.4-2.4c-1.9-1.6-2.9-4.2-2.9-7.6V33c0-3.4,1-5.9,2.9-7.6c1.9-1.6,4.3-2.4,7.2-2.4
				c3,0,5.5,0.7,7.5,2.2c2,1.5,3.1,3.7,3.1,6.3c0,1.4-0.3,2.4-1,3c-0.6,0.6-1.6,0.8-2.9,0.8c-3.4,0-3.9-1.7-4-2.8c0-0.3,0-0.6,0-0.8
				c0-0.1-0.1-0.3-0.2-0.7c-0.1-0.2-0.2-0.3-0.3-0.4c-0.1-0.1-0.3-0.2-0.7-0.4c-0.3-0.1-0.7-0.2-1.2-0.2c-1.3,0-2.4,0.3-2.4,2.8
				v10.1c0,2.5,1.1,2.8,2.4,2.8c1.3,0,2.4-0.3,2.4-2.8v-0.3h-1.2c-0.9,0-1.6-0.4-2.1-1.1c-0.4-0.6-0.7-1.4-0.7-2.2
				c0-0.8,0.2-1.5,0.7-2.2c0.5-0.7,1.2-1.1,2.1-1.1h6.4c0.8,0,1.6,0.3,2.1,0.9c0.5,0.6,0.7,1.2,0.7,2v4c0,3.4-1,5.9-2.9,7.6
				C88.2,52.2,85.7,53,82.6,53z"/>
			<path d="M82.4,24c2.8,0,5.1,0.7,6.9,2c1.8,1.3,2.7,3.2,2.7,5.5c0,1.1-0.2,1.8-0.7,2.2c-0.5,0.4-1.2,0.6-2.3,0.6
				c-2,0-2.9-0.6-3-1.8c0-0.4,0-0.7,0-0.9c0-0.2-0.1-0.5-0.2-0.9c-0.1-0.4-0.3-0.6-0.5-0.8c-0.2-0.2-0.6-0.4-1-0.6
				c-0.4-0.2-1-0.2-1.6-0.2c-2.3,0-3.4,1.3-3.4,3.8v10.1c0,2.5,1.1,3.8,3.4,3.8c2.3,0,3.4-1.3,3.4-3.8v-1.3h-2.2
				c-0.6,0-1-0.2-1.3-0.7c-0.3-0.4-0.5-1-0.5-1.6c0-0.6,0.2-1.1,0.5-1.6c0.3-0.5,0.8-0.7,1.3-0.7h6.4c0.6,0,1,0.2,1.3,0.6
				c0.3,0.4,0.5,0.8,0.5,1.3v4c0,3.1-0.8,5.4-2.5,6.8c-1.7,1.4-4,2.2-6.8,2.2c-2.8,0-5.1-0.7-6.8-2.2c-1.7-1.4-2.5-3.7-2.5-6.8V33
				c0-3.1,0.8-5.4,2.5-6.8C77.5,24.8,79.7,24,82.4,24 M82.4,22c-3.2,0-5.8,0.9-7.9,2.6c-2.1,1.8-3.2,4.6-3.2,8.3v10.1
				c0,3.7,1.1,6.5,3.3,8.3c2.1,1.8,4.8,2.6,8.1,2.6c3.3,0,6-0.9,8.1-2.6c2.2-1.8,3.2-4.6,3.2-8.3v-4c0-1-0.3-1.9-1-2.6
				c-0.3-0.3-0.6-0.6-0.9-0.8c0.2-0.1,0.3-0.2,0.5-0.4c0.9-0.8,1.4-2,1.4-3.7c0-3-1.2-5.4-3.5-7.1C88.3,22.9,85.6,22,82.4,22
				L82.4,22z M81.2,36.3V33c0-1.8,0.6-1.8,1.4-1.8c0.5,0,0.7,0.1,0.9,0.1c0.2,0.1,0.3,0.1,0.3,0.2c0,0,0,0,0,0
				c0.1,0.3,0.1,0.4,0.1,0.4c0,0.1,0,0.3,0,0.7c0,0.5,0.2,1.7,1.1,2.6h-1.4C82.8,35.2,81.9,35.6,81.2,36.3L81.2,36.3z M82.6,44.9
				c-0.8,0-1.4,0-1.4-1.8v-0.3c0.7,0.7,1.6,1.1,2.6,1.1H84C83.8,44.9,83.3,44.9,82.6,44.9L82.6,44.9z"/>
		</g>
		<g>
			<path class="st0" d="M119.4,52.8c-2.5,0-3.7-1.2-4.2-2.1l-5.3-9.7v9c0,0.9-0.5,1.7-1.4,2.2c-0.7,0.4-1.6,0.6-2.6,0.6
				c-1,0-1.8-0.2-2.6-0.6c-0.9-0.5-1.4-1.3-1.4-2.2V25.9c0-0.9,0.5-1.7,1.4-2.2c0.7-0.4,1.6-0.6,2.6-0.6c1.3,0,2.3,0.2,3,0.6
				c0.7,0.4,1.4,1.3,2.2,2.9l4.3,8.1v-8.9c0-1,0.5-1.7,1.4-2.2c0.7-0.4,1.6-0.6,2.6-0.6c1,0,1.8,0.2,2.6,0.6
				c0.9,0.5,1.4,1.3,1.4,2.2V50c0,0.9-0.5,1.7-1.4,2.2C121.2,52.6,120.4,52.8,119.4,52.8z"/>
			<path d="M119.4,24c0.8,0,1.5,0.2,2.1,0.5c0.6,0.3,0.9,0.7,0.9,1.3V50c0,0.6-0.3,1-0.9,1.3c-0.6,0.3-1.3,0.5-2.1,0.5
				c-1.6,0-2.7-0.5-3.3-1.6l-7.2-13.1V50c0,0.6-0.3,1-0.9,1.3c-0.6,0.3-1.3,0.5-2.1,0.5c-0.8,0-1.5-0.2-2.1-0.5
				c-0.6-0.3-0.9-0.8-0.9-1.3V25.9c0-0.6,0.3-1,0.9-1.3c0.6-0.3,1.3-0.5,2.1-0.5c1.1,0,2,0.2,2.5,0.5c0.5,0.3,1.2,1.2,1.8,2.5
				l6.2,11.7V25.8c0-0.6,0.3-1,0.9-1.3C117.9,24.2,118.6,24,119.4,24 M119.4,22c-1.1,0-2.1,0.2-3,0.7c-1.2,0.6-1.9,1.8-1.9,3.1v4.8
				l-2.4-4.5c-0.9-1.7-1.7-2.7-2.6-3.3c-0.9-0.5-2-0.8-3.6-0.8c-1.1,0-2.2,0.2-3,0.7c-1.2,0.7-1.9,1.8-1.9,3.1V50
				c0,1.3,0.7,2.4,1.9,3.1c0.9,0.5,1.9,0.7,3,0.7c1.1,0,2.2-0.2,3-0.7c1.2-0.7,1.9-1.8,1.9-3.1v-5.1l3.5,6.3
				c0.7,1.2,2.1,2.6,5.1,2.6c1.1,0,2.2-0.2,3-0.7c1.2-0.7,1.9-1.8,1.9-3.1V25.8c0-1.3-0.7-2.5-1.9-3.1C121.6,22.3,120.5,22,119.4,22
				L119.4,22z"/>
		</g>
		<g>
			<path class="st0" d="M141.9,53.2c-2.6,0-4.9-0.6-6.9-1.6c-2.2-1.2-3.3-2.6-3.3-4.3c0-0.9,0.3-1.8,1-2.7c0.9-1.2,1.9-1.5,2.6-1.5
				c0.6,0,1.2,0.2,1.8,0.6c0.5,0.3,1,0.7,1.4,1.1c0.3,0.3,0.8,0.6,1.4,0.8c0.6,0.3,1.2,0.4,1.8,0.4c0.8,0,1.5-0.2,2.1-0.5
				c0.4-0.2,0.6-0.5,0.6-1c0-0.3-0.1-0.8-0.8-1.4c-0.8-0.6-1.7-1.1-2.8-1.6c-1.2-0.5-2.4-1.1-3.6-1.8c-1.3-0.7-2.5-1.8-3.4-3.1
				c-0.9-1.4-1.4-3-1.4-4.8c0-3,1.1-5.3,3.3-6.8c2.1-1.4,4.6-2.2,7.5-2.2c0.7,0,1.4,0,2.2,0.1c0.8,0.1,1.6,0.2,2.6,0.5
				c1.1,0.3,1.9,0.7,2.6,1.3c0.8,0.7,1.2,1.6,1.2,2.6c0,0.8-0.3,1.7-0.8,2.6c-0.8,1.3-1.8,1.6-2.6,1.6c-0.4,0-0.9-0.1-2.4-0.8
				c-0.8-0.4-1.8-0.6-2.8-0.6c-1,0-1.8,0.2-2.3,0.5c-0.5,0.3-0.5,0.6-0.5,0.8c0,0.1,0,0.4,0.5,0.8c0.5,0.4,1.2,0.8,2,1.1
				c0.9,0.4,1.9,0.8,3,1.4c1.1,0.6,2.1,1.2,3,1.9c1,0.7,1.9,1.8,2.5,3.1c0.7,1.3,1,2.8,1,4.4c0,2.9-1,5.2-3,6.9
				C147.5,52.4,145,53.2,141.9,53.2z"/>
			<path d="M143.2,23.8c0.7,0,1.3,0,2.1,0.1c0.7,0.1,1.5,0.2,2.4,0.5c0.9,0.2,1.6,0.6,2.2,1.1c0.6,0.5,0.9,1.1,0.9,1.8
				c0,0.7-0.2,1.4-0.6,2.1c-0.4,0.7-1,1.1-1.7,1.1c-0.3,0-0.9-0.2-1.9-0.7c-1-0.5-2.1-0.7-3.3-0.7c-1.3,0-2.2,0.2-2.8,0.7
				c-0.6,0.4-1,1-1,1.6c0,0.6,0.3,1.1,0.9,1.6c0.6,0.5,1.3,0.9,2.2,1.2c0.9,0.3,1.9,0.8,2.9,1.3c1.1,0.5,2,1.1,2.9,1.8
				c0.9,0.6,1.6,1.6,2.2,2.7s0.9,2.5,0.9,4c0,2.6-0.9,4.6-2.6,6.1c-1.7,1.5-4,2.2-6.9,2.2c-2.5,0-4.6-0.5-6.4-1.5
				c-1.8-1-2.7-2.2-2.7-3.4c0-0.7,0.3-1.4,0.8-2.1c0.5-0.7,1.1-1.1,1.8-1.1c0.4,0,0.8,0.2,1.3,0.5c0.5,0.3,0.9,0.6,1.3,1
				c0.4,0.4,0.9,0.7,1.7,1c0.7,0.3,1.5,0.5,2.2,0.5c1,0,1.8-0.2,2.6-0.6c0.7-0.4,1.1-1,1.1-1.9s-0.4-1.6-1.2-2.2
				c-0.8-0.6-1.8-1.2-3-1.7c-1.2-0.5-2.4-1.1-3.6-1.7c-1.2-0.6-2.2-1.6-3-2.8c-0.8-1.2-1.2-2.6-1.2-4.3c0-2.7,1-4.7,2.9-6
				C138.2,24.5,140.5,23.8,143.2,23.8 M143.2,21.8c-3.1,0-5.8,0.8-8,2.4c-2.4,1.7-3.7,4.3-3.7,7.7c0,2.1,0.5,3.9,1.6,5.4
				c1,1.4,2.2,2.6,3.7,3.4c1.2,0.7,2.5,1.3,3.7,1.8c1,0.5,1.9,1,2.6,1.5c0.5,0.3,0.5,0.6,0.5,0.6c0,0,0,0.1,0,0.1c0,0,0,0-0.1,0.1
				c-0.4,0.2-1,0.4-1.6,0.4c-0.5,0-1-0.1-1.4-0.3c-0.6-0.3-0.9-0.5-1.1-0.6c-0.5-0.5-1-0.9-1.6-1.2c-0.8-0.5-1.6-0.8-2.4-0.8
				c-0.9,0-2.3,0.3-3.4,1.9c-0.8,1.1-1.2,2.2-1.2,3.3c0,2,1.3,3.8,3.8,5.2c2.1,1.2,4.6,1.8,7.4,1.8c3.3,0,6-0.9,8.2-2.6
				c2.2-1.8,3.3-4.4,3.3-7.6c0-1.8-0.4-3.5-1.1-4.9c-0.7-1.4-1.7-2.6-2.8-3.4c-1-0.7-2-1.4-3.2-1.9c-1.1-0.6-2.2-1.1-3.1-1.4
				c-0.7-0.3-1.3-0.6-1.7-0.9c0,0,0,0,0,0c0.1-0.1,0.6-0.3,1.7-0.3c0.9,0,1.7,0.2,2.4,0.5c1.6,0.8,2.3,0.9,2.8,0.9
				c1.5,0,2.7-0.7,3.5-2.1c0.6-1,0.9-2.1,0.9-3.1c0-1.3-0.5-2.4-1.5-3.3c-0.8-0.7-1.8-1.2-3-1.5c-1-0.2-1.9-0.4-2.7-0.5
				C144.7,21.9,143.9,21.8,143.2,21.8L143.2,21.8z"/>
		</g>
		<g>
			<path class="st0" d="M180.1,52.8c-1,0-1.8-0.2-2.6-0.6c-0.9-0.5-1.4-1.3-1.4-2.2V25.9c0-0.9,0.4-1.7,1.2-2.2
				c0.7-0.4,1.5-0.6,2.4-0.6h13.2c0.9,0,1.7,0.4,2.2,1.2c0.4,0.7,0.6,1.4,0.6,2.3c0,0.9-0.2,1.7-0.6,2.4c-0.5,0.8-1.2,1.2-2.2,1.2
				h-8.8v4.4h4.7c0.9,0,1.6,0.4,2.1,1.1c0.4,0.6,0.7,1.4,0.7,2.2c0,0.8-0.2,1.5-0.6,2.1c-0.5,0.7-1.2,1.1-2.2,1.1h-4.7V50
				c0,0.9-0.5,1.7-1.4,2.2C181.9,52.6,181.1,52.8,180.1,52.8z"/>
			<path d="M192.9,24c0.6,0,1,0.3,1.3,0.8c0.3,0.5,0.5,1.1,0.5,1.8c0,0.7-0.2,1.4-0.5,1.9c-0.3,0.5-0.8,0.8-1.3,0.8h-9.8v6.4h5.7
				c0.6,0,1,0.2,1.3,0.7c0.3,0.5,0.5,1,0.5,1.6c0,0.6-0.2,1.1-0.5,1.6c-0.3,0.5-0.7,0.7-1.3,0.7h-5.7V50c0,0.6-0.3,1-0.9,1.3
				c-0.6,0.3-1.3,0.5-2.1,0.5c-0.8,0-1.5-0.2-2.1-0.5c-0.6-0.3-0.9-0.8-0.9-1.3V25.9c0-0.6,0.3-1,0.8-1.3c0.5-0.3,1.1-0.5,1.8-0.5
				H192.9 M192.9,22h-13.2c-1.1,0-2.1,0.3-2.9,0.8c-1.1,0.7-1.7,1.8-1.7,3V50c0,1.3,0.7,2.4,1.9,3.1c0.9,0.5,1.9,0.7,3,0.7
				c1.1,0,2.2-0.2,3-0.7c1.2-0.7,1.9-1.8,1.9-3.1v-7.8h3.7c1.3,0,2.3-0.6,3-1.6c0.5-0.8,0.8-1.7,0.8-2.7c0-1-0.3-2-0.8-2.8
				c-0.7-1-1.7-1.5-3-1.5h-3.7v-2.4h7.8c1.3,0,2.3-0.6,3-1.7c0.5-0.8,0.8-1.8,0.8-2.9c0-1-0.2-2-0.7-2.8
				C195.3,22.7,194.2,22,192.9,22L192.9,22z"/>
		</g>
		<g>
			<path class="st0" d="M213,53c-3,0-5.5-0.8-7.4-2.4c-1.9-1.6-2.9-4.2-2.9-7.6V33c0-3.4,1-5.9,2.9-7.6c1.9-1.6,4.4-2.4,7.4-2.4
				c3.1,0,5.6,0.8,7.4,2.4c1.9,1.6,2.9,4.2,2.9,7.6v10.1c0,3.4-1,5.9-2.9,7.6C218.6,52.2,216.1,53,213,53z M213,30.2
				c-1.2,0-2.4,0.3-2.4,2.8v10.1c0,2.5,1.1,2.8,2.4,2.8c1.3,0,2.4-0.3,2.4-2.8V33C215.5,30.5,214.3,30.2,213,30.2z"/>
			<path d="M213,24c2.8,0,5.1,0.7,6.8,2.2c1.7,1.4,2.5,3.7,2.5,6.8v10.1c0,3.1-0.8,5.4-2.5,6.8c-1.7,1.4-4,2.2-6.8,2.2
				c-2.8,0-5.1-0.7-6.8-2.2c-1.7-1.4-2.5-3.7-2.5-6.8V33c0-3.1,0.8-5.4,2.5-6.8C208,24.8,210.2,24,213,24 M213,46.9
				c2.3,0,3.4-1.3,3.4-3.8V33c0-2.5-1.1-3.8-3.4-3.8c-2.3,0-3.4,1.3-3.4,3.8v10.1C209.7,45.6,210.8,46.9,213,46.9 M213,22
				c-3.3,0-6,0.9-8.1,2.6c-2.2,1.8-3.3,4.6-3.3,8.3v10.1c0,3.7,1.1,6.5,3.3,8.3c2.1,1.8,4.8,2.6,8.1,2.6c3.3,0,6-0.9,8.1-2.6
				c2.2-1.8,3.2-4.6,3.2-8.3V33c0-3.7-1.1-6.5-3.2-8.3C219.1,22.9,216.4,22,213,22L213,22z M213,44.9c-0.8,0-1.4,0-1.4-1.8V33
				c0-1.8,0.6-1.8,1.4-1.8c0.8,0,1.4,0,1.4,1.8v10.1C214.5,44.9,213.9,44.9,213,44.9L213,44.9z"/>
		</g>
		<g>
			<path class="st0" d="M249.3,53c-1.3,0-2.2-0.6-2.8-1.6l-4.9-9.6h-0.9V50c0,0.9-0.5,1.7-1.4,2.2c-0.7,0.4-1.6,0.6-2.6,0.6
				c-1,0-1.8-0.2-2.6-0.6c-0.9-0.5-1.4-1.3-1.4-2.2V25.8c0-0.7,0.3-1.4,0.8-1.9c0.5-0.5,1.2-0.8,2-0.8h7.9c8.6,0,10.3,5,10.3,9.1
				c0,3.9-1.4,6.7-4.2,8.2l4.1,7.4c0.2,0.3,0.3,0.7,0.3,1.2c0,1-0.5,2-1.6,2.9C251.5,52.6,250.5,53,249.3,53z M243.5,35.3
				c0.8,0,1.5-0.2,1.9-0.5c0.5-0.4,0.6-1.3,0.6-2c0-0.7-0.1-1.6-0.6-2c-0.4-0.4-1-0.5-1.9-0.5h-2.8v5.1H243.5z"/>
			<path d="M243.5,24c6.2,0,9.3,2.7,9.3,8.1c0,4-1.5,6.5-4.6,7.7l4.6,8.4c0.1,0.2,0.2,0.4,0.2,0.7c0,0.7-0.4,1.4-1.2,2.1
				s-1.6,1-2.5,1c-0.9,0-1.5-0.4-1.9-1.1l-5.2-10.1h-2.5V50c0,0.6-0.3,1-0.9,1.3c-0.6,0.3-1.3,0.5-2.1,0.5c-0.8,0-1.5-0.2-2.1-0.5
				c-0.6-0.3-0.9-0.8-0.9-1.3V25.8c0-0.5,0.2-0.9,0.5-1.3c0.3-0.4,0.8-0.5,1.3-0.5H243.5 M239.7,36.3h3.8c1.1,0,2-0.3,2.5-0.8
				c0.6-0.5,0.9-1.4,0.9-2.7c0-1.3-0.3-2.2-0.9-2.7c-0.6-0.5-1.4-0.8-2.5-0.8h-3.8V36.3 M243.5,22h-7.9c-1.1,0-2,0.4-2.7,1.1
				c-0.7,0.7-1.1,1.6-1.1,2.6V50c0,1.3,0.7,2.4,1.9,3.1c0.9,0.5,1.9,0.7,3,0.7c1.1,0,2.2-0.2,3-0.7c1.2-0.7,1.9-1.8,1.9-3.1v-5.8
				l3.9,7.6c0.7,1.4,2,2.2,3.7,2.2c1.4,0,2.6-0.5,3.8-1.4c1.6-1.3,1.9-2.7,1.9-3.6c0-0.6-0.2-1.2-0.5-1.7l-3.6-6.6
				c2-1.4,3.9-4,3.9-8.5C254.8,23.4,247.7,22,243.5,22L243.5,22z M241.7,31.2h1.8c0.6,0,1,0.1,1.2,0.3c0.1,0.1,0.2,0.4,0.2,1.3
				c0,0.8-0.2,1.2-0.2,1.3c-0.2,0.2-0.6,0.3-1.2,0.3h-1.8V31.2L241.7,31.2z"/>
		</g>
		<g>
			<path class="st0" d="M286.6,53.2c-2.6,0-4.9-0.6-6.9-1.6c-2.2-1.2-3.3-2.6-3.3-4.3c0-0.9,0.3-1.8,1-2.7c0.9-1.2,1.9-1.5,2.6-1.5
				c0.6,0,1.2,0.2,1.8,0.6c0.5,0.3,1,0.7,1.4,1.1c0.3,0.3,0.8,0.6,1.4,0.8c0.6,0.3,1.2,0.4,1.8,0.4c0.8,0,1.5-0.2,2.1-0.5
				c0.4-0.2,0.6-0.5,0.6-1c0-0.3-0.1-0.8-0.8-1.4c-0.8-0.6-1.7-1.1-2.8-1.6c-1.2-0.5-2.4-1.1-3.6-1.8c-1.3-0.7-2.5-1.8-3.4-3.1
				c-0.9-1.4-1.4-3-1.4-4.8c0-3,1.1-5.3,3.3-6.8c2.1-1.4,4.6-2.2,7.5-2.2c0.7,0,1.4,0,2.2,0.1c0.8,0.1,1.6,0.2,2.6,0.5
				c1.1,0.3,1.9,0.7,2.6,1.3c0.8,0.7,1.2,1.6,1.2,2.6c0,0.8-0.3,1.7-0.8,2.6c-0.8,1.3-1.8,1.6-2.6,1.6c-0.4,0-0.9-0.1-2.4-0.8
				c-0.8-0.4-1.8-0.6-2.8-0.6c-1,0-1.8,0.2-2.3,0.5c-0.5,0.3-0.5,0.6-0.5,0.8c0,0.1,0,0.4,0.5,0.8c0.5,0.4,1.2,0.8,2,1.1
				c0.9,0.4,1.9,0.8,3,1.4c1.1,0.6,2.1,1.2,3,1.9c1,0.7,1.9,1.8,2.5,3.1c0.7,1.3,1,2.8,1,4.4c0,2.9-1,5.2-3,6.9
				C292.2,52.4,289.7,53.2,286.6,53.2z"/>
			<path d="M287.9,23.8c0.7,0,1.3,0,2.1,0.1c0.7,0.1,1.5,0.2,2.4,0.5c0.9,0.2,1.6,0.6,2.2,1.1c0.6,0.5,0.9,1.1,0.9,1.8
				c0,0.7-0.2,1.4-0.6,2.1s-1,1.1-1.7,1.1c-0.3,0-0.9-0.2-1.9-0.7c-1-0.5-2.1-0.7-3.3-0.7c-1.3,0-2.2,0.2-2.8,0.7
				c-0.6,0.4-1,1-1,1.6c0,0.6,0.3,1.1,0.9,1.6c0.6,0.5,1.3,0.9,2.2,1.2c0.9,0.3,1.9,0.8,2.9,1.3c1.1,0.5,2,1.1,2.9,1.8
				c0.9,0.6,1.6,1.6,2.2,2.7s0.9,2.5,0.9,4c0,2.6-0.9,4.6-2.6,6.1s-4,2.2-6.9,2.2c-2.5,0-4.6-0.5-6.4-1.5c-1.8-1-2.7-2.2-2.7-3.4
				c0-0.7,0.3-1.4,0.8-2.1c0.5-0.7,1.1-1.1,1.8-1.1c0.4,0,0.8,0.2,1.3,0.5c0.5,0.3,0.9,0.6,1.3,1c0.4,0.4,0.9,0.7,1.7,1
				c0.7,0.3,1.5,0.5,2.2,0.5c1,0,1.8-0.2,2.6-0.6c0.7-0.4,1.1-1,1.1-1.9s-0.4-1.6-1.2-2.2c-0.8-0.6-1.8-1.2-3-1.7
				c-1.2-0.5-2.4-1.1-3.6-1.7c-1.2-0.6-2.2-1.6-3-2.8c-0.8-1.2-1.2-2.6-1.2-4.3c0-2.7,1-4.7,2.9-6S285.2,23.8,287.9,23.8
				 M287.9,21.8c-3.1,0-5.8,0.8-8,2.4c-2.4,1.7-3.7,4.3-3.7,7.7c0,2.1,0.5,3.9,1.6,5.4c1,1.4,2.2,2.6,3.7,3.4
				c1.2,0.7,2.5,1.3,3.7,1.8c1,0.5,1.9,1,2.6,1.5c0.5,0.3,0.5,0.6,0.5,0.6c0,0,0,0.1,0,0.1c0,0,0,0-0.1,0.1c-0.4,0.2-1,0.4-1.6,0.4
				c-0.5,0-1-0.1-1.4-0.3c-0.6-0.3-0.9-0.5-1.1-0.6c-0.5-0.5-1-0.9-1.6-1.2c-0.8-0.5-1.6-0.8-2.4-0.8c-0.9,0-2.3,0.3-3.4,1.9
				c-0.8,1.1-1.2,2.2-1.2,3.3c0,2,1.3,3.8,3.8,5.2c2.1,1.2,4.6,1.8,7.4,1.8c3.3,0,6-0.9,8.2-2.6c2.2-1.8,3.3-4.4,3.3-7.6
				c0-1.8-0.4-3.5-1.1-4.9c-0.7-1.4-1.7-2.6-2.8-3.4c-1-0.7-2-1.4-3.2-1.9c-1.1-0.6-2.2-1.1-3.1-1.4c-0.7-0.3-1.3-0.6-1.7-0.9
				c0,0,0,0,0,0c0.1-0.1,0.6-0.3,1.7-0.3c0.9,0,1.7,0.2,2.4,0.5c1.6,0.8,2.3,0.9,2.8,0.9c1.5,0,2.7-0.7,3.5-2.1
				c0.6-1,0.9-2.1,0.9-3.1c0-1.3-0.5-2.4-1.5-3.3c-0.8-0.7-1.8-1.2-3-1.5c-1-0.2-1.9-0.4-2.7-0.5C289.4,21.9,288.6,21.8,287.9,21.8
				L287.9,21.8z"/>
		</g>
		<g>
			<path class="st0" d="M315.5,53c-2.9,0-5.4-0.8-7.2-2.4c-1.9-1.6-2.9-4.2-2.9-7.6V33c0-3.4,1-5.9,2.9-7.6c1.9-1.6,4.3-2.4,7.2-2.4
				c3,0,5.5,0.7,7.5,2.2c2,1.5,3.1,3.7,3.1,6.3c0,1.4-0.3,2.4-1,3c-0.6,0.6-1.6,0.8-2.9,0.8c-3.3,0-3.9-1.7-4-2.7
				c-0.1-1.8-0.8-2.5-2.4-2.5c-1.3,0-2.4,0.3-2.4,2.8v10.1c0,2.5,1.2,2.8,2.5,2.8c0.6,0,1-0.1,1.3-0.2c0.3-0.1,0.4-0.3,0.5-0.5
				c0.2-0.5,0.3-0.8,0.3-1c0.1-0.3,0.1-0.6,0.2-1.1c0.1-1,0.7-2.7,3.9-2.7c1.3,0,2.3,0.3,3,0.8c0.7,0.6,1,1.6,1,3c0,2.8-1,5-3.1,6.6
				C321,52.3,318.5,53,315.5,53z"/>
			<path d="M315.5,24c2.8,0,5.1,0.7,6.9,2s2.7,3.2,2.7,5.5c0,1.1-0.2,1.8-0.7,2.2c-0.5,0.4-1.2,0.6-2.3,0.6c-1.9,0-2.9-0.6-3-1.8
				c-0.1-2.3-1.2-3.4-3.4-3.4c-2.3,0-3.4,1.3-3.4,3.8v10.1c0,2.5,1.2,3.8,3.5,3.8c0.7,0,1.3-0.1,1.8-0.3c0.5-0.2,0.8-0.6,1-1
				c0.2-0.5,0.3-0.9,0.4-1.2c0.1-0.3,0.1-0.7,0.2-1.3c0.1-1.2,1.1-1.8,2.9-1.8c1.1,0,1.9,0.2,2.3,0.6s0.7,1.1,0.7,2.2
				c0,2.5-0.9,4.4-2.7,5.8c-1.8,1.4-4.1,2.1-6.9,2.1c-2.7,0-4.9-0.7-6.6-2.2c-1.7-1.4-2.5-3.7-2.5-6.8V33c0-3.1,0.8-5.4,2.5-6.8
				C310.5,24.8,312.7,24,315.5,24 M315.5,22c-3.2,0-5.8,0.9-7.9,2.6c-2.1,1.8-3.2,4.6-3.2,8.3v10.1c0,3.7,1.1,6.5,3.2,8.3
				c2,1.8,4.7,2.6,7.9,2.6c3.2,0,6-0.9,8.1-2.6c2.3-1.8,3.4-4.3,3.4-7.4c0-1.7-0.5-3-1.4-3.7c-0.8-0.7-2-1.1-3.6-1.1
				c-4.3,0-4.8,2.8-4.9,3.6c-0.1,0.6-0.1,0.9-0.1,1c0,0.1-0.1,0.3-0.3,0.8c0,0,0,0,0,0c-0.1,0.1-0.4,0.1-0.9,0.1
				c-0.9,0-1.5-0.1-1.5-1.8V33c0-1.8,0.6-1.8,1.4-1.8c0.9,0,1.3,0.1,1.4,1.5c0,0,0,0,0,0.1c0.1,0.9,0.6,3.7,5,3.7
				c1.6,0,2.7-0.4,3.6-1.1c0.9-0.8,1.4-2,1.4-3.7c0-3-1.2-5.4-3.5-7.1C321.4,22.9,318.7,22,315.5,22L315.5,22z"/>
		</g>
		<g>
			<path class="st0" d="M338.6,52.8c-1,0-1.8-0.2-2.6-0.6c-0.9-0.5-1.4-1.3-1.4-2.2V25.8c0-1,0.5-1.7,1.4-2.2
				c0.7-0.4,1.6-0.6,2.6-0.6c1,0,1.8,0.2,2.6,0.6c0.9,0.5,1.4,1.3,1.4,2.2V50c0,0.9-0.5,1.7-1.4,2.2
				C340.4,52.6,339.5,52.8,338.6,52.8z"/>
			<path d="M338.6,24c0.8,0,1.5,0.2,2.1,0.5c0.6,0.3,0.9,0.7,0.9,1.3V50c0,0.6-0.3,1-0.9,1.3c-0.6,0.3-1.3,0.5-2.1,0.5
				c-0.8,0-1.5-0.2-2.1-0.5c-0.6-0.3-0.9-0.8-0.9-1.3V25.8c0-0.6,0.3-1,0.9-1.3C337,24.2,337.7,24,338.6,24 M338.6,22
				c-1.1,0-2.1,0.2-3,0.7c-1.2,0.6-1.9,1.8-1.9,3.1V50c0,1.3,0.7,2.4,1.9,3.1c0.9,0.5,1.9,0.7,3,0.7c1.1,0,2.2-0.2,3-0.7
				c1.2-0.7,1.9-1.8,1.9-3.1V25.8c0-1.3-0.7-2.5-1.9-3.1C340.7,22.3,339.7,22,338.6,22L338.6,22z"/>
		</g>
		<g>
			<path class="st0" d="M355.8,52.8c-0.9,0-1.7-0.2-2.4-0.6c-0.8-0.5-1.2-1.3-1.2-2.2V25.9c0-0.9,0.4-1.7,1.2-2.2
				c0.7-0.4,1.5-0.6,2.4-0.6h13.5c0.9,0,1.7,0.4,2.2,1.2c0.4,0.7,0.6,1.4,0.6,2.3c0,0.9-0.2,1.7-0.6,2.4c-0.5,0.8-1.3,1.2-2.2,1.2
				h-9.2v4.4h4.7c0.9,0,1.6,0.4,2.1,1.1c0.4,0.6,0.7,1.4,0.7,2.2c0,0.8-0.2,1.5-0.6,2.1c-0.5,0.7-1.2,1.1-2.2,1.1h-4.7v4.5h9.2
				c0.9,0,1.7,0.4,2.2,1.2c0.4,0.7,0.6,1.5,0.6,2.4c0,0.9-0.2,1.6-0.6,2.3c-0.5,0.8-1.3,1.2-2.2,1.2H355.8z"/>
			<path d="M369.3,24c0.6,0,1,0.3,1.3,0.8c0.3,0.5,0.5,1.1,0.5,1.8c0,0.7-0.2,1.4-0.5,1.9c-0.3,0.5-0.8,0.8-1.3,0.8h-10.2v6.4h5.7
				c0.6,0,1,0.2,1.3,0.7c0.3,0.5,0.5,1,0.5,1.6c0,0.6-0.2,1.1-0.5,1.6c-0.3,0.5-0.7,0.7-1.3,0.7h-5.7v6.5h10.2c0.6,0,1,0.3,1.3,0.8
				c0.3,0.5,0.5,1.1,0.5,1.9c0,0.7-0.2,1.3-0.5,1.8c-0.3,0.5-0.7,0.8-1.3,0.8h-13.5c-0.7,0-1.3-0.2-1.8-0.5
				c-0.5-0.3-0.8-0.8-0.8-1.3V25.9c0-0.6,0.3-1,0.8-1.3c0.5-0.3,1.1-0.5,1.8-0.5H369.3 M369.3,22h-13.5c-1.1,0-2.1,0.3-2.9,0.8
				c-1.1,0.7-1.7,1.8-1.7,3V50c0,1.3,0.6,2.4,1.7,3c0.8,0.5,1.8,0.8,2.9,0.8h13.5c1.3,0,2.4-0.6,3-1.7c0.5-0.8,0.7-1.8,0.7-2.8
				c0-1.1-0.3-2.1-0.8-2.9c-0.7-1.1-1.8-1.7-3-1.7h-8.2v-2.5h3.7c1.3,0,2.3-0.6,3-1.6c0.5-0.8,0.8-1.7,0.8-2.7c0-1-0.3-2-0.8-2.8
				c-0.7-1-1.7-1.5-3-1.5h-3.7v-2.4h8.2c1.3,0,2.3-0.6,3-1.7c0.5-0.8,0.8-1.8,0.8-2.9c0-1-0.2-2-0.7-2.8
				C371.7,22.7,370.6,22,369.3,22L369.3,22z"/>
		</g>
		<g>
			<path class="st0" d="M397.8,52.8c-2.5,0-3.7-1.2-4.2-2.1l-5.3-9.7v9c0,0.9-0.5,1.7-1.4,2.2c-0.7,0.4-1.6,0.6-2.6,0.6
				c-1,0-1.8-0.2-2.6-0.6c-0.9-0.5-1.4-1.3-1.4-2.2V25.9c0-0.9,0.5-1.7,1.4-2.2c0.7-0.4,1.6-0.6,2.6-0.6c1.3,0,2.3,0.2,3,0.6
				c0.7,0.4,1.4,1.3,2.2,2.9l4.3,8.1v-8.9c0-1,0.5-1.7,1.4-2.2c0.7-0.4,1.6-0.6,2.6-0.6c1,0,1.8,0.2,2.6,0.6
				c0.9,0.5,1.4,1.3,1.4,2.2V50c0,0.9-0.5,1.7-1.4,2.2C399.6,52.6,398.7,52.8,397.8,52.8z"/>
			<path d="M397.8,24c0.8,0,1.5,0.2,2.1,0.5c0.6,0.3,0.9,0.7,0.9,1.3V50c0,0.6-0.3,1-0.9,1.3c-0.6,0.3-1.3,0.5-2.1,0.5
				c-1.6,0-2.7-0.5-3.3-1.6l-7.2-13.1V50c0,0.6-0.3,1-0.9,1.3c-0.6,0.3-1.3,0.5-2.1,0.5c-0.8,0-1.5-0.2-2.1-0.5
				c-0.6-0.3-0.9-0.8-0.9-1.3V25.9c0-0.6,0.3-1,0.9-1.3c0.6-0.3,1.3-0.5,2.1-0.5c1.1,0,2,0.2,2.5,0.5c0.5,0.3,1.2,1.2,1.8,2.5
				l6.2,11.7V25.8c0-0.6,0.3-1,0.9-1.3C396.3,24.2,396.9,24,397.8,24 M397.8,22c-1.1,0-2.1,0.2-3,0.7c-1.2,0.6-1.9,1.8-1.9,3.1v4.8
				l-2.4-4.5c-0.9-1.7-1.7-2.7-2.6-3.3c-0.9-0.5-2-0.8-3.6-0.8c-1.1,0-2.2,0.2-3,0.7c-1.2,0.7-1.9,1.8-1.9,3.1V50
				c0,1.3,0.7,2.4,1.9,3.1c0.9,0.5,1.9,0.7,3,0.7c1.1,0,2.2-0.2,3-0.7c1.2-0.7,1.9-1.8,1.9-3.1v-5.1l3.5,6.3
				c0.7,1.2,2.1,2.6,5.1,2.6c1.1,0,2.2-0.2,3-0.7c1.2-0.7,1.9-1.8,1.9-3.1V25.8c0-1.3-0.7-2.5-1.9-3.1C399.9,22.3,398.9,22,397.8,22
				L397.8,22z"/>
		</g>
		<g>
			<path class="st0" d="M421.2,53c-2.9,0-5.4-0.8-7.2-2.4c-1.9-1.6-2.9-4.2-2.9-7.6V33c0-3.4,1-5.9,2.9-7.6c1.9-1.6,4.3-2.4,7.2-2.4
				c3,0,5.5,0.7,7.5,2.2c2,1.5,3.1,3.7,3.1,6.3c0,1.4-0.3,2.4-1,3c-0.6,0.6-1.6,0.8-2.9,0.8c-3.3,0-3.9-1.7-4-2.7
				c-0.1-1.8-0.8-2.5-2.4-2.5c-1.3,0-2.4,0.3-2.4,2.8v10.1c0,2.5,1.2,2.8,2.5,2.8c0.6,0,1-0.1,1.3-0.2c0.3-0.1,0.4-0.3,0.5-0.5
				c0.2-0.5,0.3-0.8,0.3-1c0.1-0.3,0.1-0.6,0.2-1.1c0.1-1,0.7-2.7,3.9-2.7c1.3,0,2.3,0.3,3,0.8c0.7,0.6,1,1.6,1,3c0,2.8-1,5-3.1,6.6
				C426.8,52.3,424.2,53,421.2,53z"/>
			<path d="M421.2,24c2.8,0,5.1,0.7,6.9,2s2.7,3.2,2.7,5.5c0,1.1-0.2,1.8-0.7,2.2c-0.5,0.4-1.2,0.6-2.3,0.6c-1.9,0-2.9-0.6-3-1.8
				c-0.1-2.3-1.2-3.4-3.4-3.4c-2.3,0-3.4,1.3-3.4,3.8v10.1c0,2.5,1.2,3.8,3.5,3.8c0.7,0,1.3-0.1,1.8-0.3c0.5-0.2,0.8-0.6,1-1
				c0.2-0.5,0.3-0.9,0.4-1.2c0.1-0.3,0.1-0.7,0.2-1.3c0.1-1.2,1.1-1.8,2.9-1.8c1.1,0,1.9,0.2,2.3,0.6s0.7,1.1,0.7,2.2
				c0,2.5-0.9,4.4-2.7,5.8c-1.8,1.4-4.1,2.1-6.9,2.1c-2.7,0-4.9-0.7-6.6-2.2c-1.7-1.4-2.5-3.7-2.5-6.8V33c0-3.1,0.8-5.4,2.5-6.8
				C416.3,24.8,418.5,24,421.2,24 M421.2,22c-3.2,0-5.8,0.9-7.9,2.6c-2.1,1.8-3.2,4.6-3.2,8.3v10.1c0,3.7,1.1,6.5,3.2,8.3
				c2,1.8,4.7,2.6,7.9,2.6c3.2,0,6-0.9,8.1-2.6c2.3-1.8,3.4-4.3,3.4-7.4c0-1.7-0.5-3-1.4-3.7c-0.8-0.7-2-1.1-3.6-1.1
				c-4.3,0-4.8,2.8-4.9,3.6c-0.1,0.6-0.1,0.9-0.1,1c0,0.1-0.1,0.3-0.3,0.8c0,0,0,0,0,0c-0.1,0.1-0.4,0.1-0.9,0.1
				c-0.9,0-1.5-0.1-1.5-1.8V33c0-1.8,0.6-1.8,1.4-1.8c0.9,0,1.3,0.1,1.4,1.5c0,0,0,0,0,0.1c0.1,0.9,0.6,3.7,5,3.7
				c1.6,0,2.7-0.4,3.6-1.1c0.9-0.8,1.4-2,1.4-3.7c0-3-1.2-5.4-3.5-7.1C427.2,22.9,424.5,22,421.2,22L421.2,22z"/>
		</g>
		<g>
			<path class="st0" d="M444,52.8c-0.9,0-1.7-0.2-2.4-0.6c-0.8-0.5-1.2-1.3-1.2-2.2V25.9c0-0.9,0.4-1.7,1.2-2.2
				c0.7-0.4,1.5-0.6,2.4-0.6h13.5c0.9,0,1.7,0.4,2.2,1.2c0.4,0.7,0.6,1.4,0.6,2.3c0,0.9-0.2,1.7-0.6,2.4c-0.5,0.8-1.3,1.2-2.2,1.2
				h-9.2v4.4h4.7c0.9,0,1.6,0.4,2.1,1.1c0.4,0.6,0.7,1.4,0.7,2.2c0,0.8-0.2,1.5-0.6,2.1c-0.5,0.7-1.2,1.1-2.2,1.1h-4.7v4.5h9.2
				c0.9,0,1.7,0.4,2.2,1.2c0.4,0.7,0.6,1.5,0.6,2.4c0,0.9-0.2,1.6-0.6,2.3c-0.5,0.8-1.3,1.2-2.2,1.2H444z"/>
			<path d="M457.5,24c0.6,0,1,0.3,1.3,0.8c0.3,0.5,0.5,1.1,0.5,1.8c0,0.7-0.2,1.4-0.5,1.9c-0.3,0.5-0.8,0.8-1.3,0.8h-10.2v6.4h5.7
				c0.6,0,1,0.2,1.3,0.7c0.3,0.5,0.5,1,0.5,1.6c0,0.6-0.2,1.1-0.5,1.6c-0.3,0.5-0.7,0.7-1.3,0.7h-5.7v6.5h10.2c0.6,0,1,0.3,1.3,0.8
				c0.3,0.5,0.5,1.1,0.5,1.9c0,0.7-0.2,1.3-0.5,1.8c-0.3,0.5-0.7,0.8-1.3,0.8H444c-0.7,0-1.3-0.2-1.8-0.5c-0.5-0.3-0.8-0.8-0.8-1.3
				V25.9c0-0.6,0.3-1,0.8-1.3c0.5-0.3,1.1-0.5,1.8-0.5H457.5 M457.5,22H444c-1.1,0-2.1,0.3-2.9,0.8c-1.1,0.7-1.7,1.8-1.7,3V50
				c0,1.3,0.6,2.4,1.7,3c0.8,0.5,1.8,0.8,2.9,0.8h13.5c1.3,0,2.4-0.6,3-1.7c0.5-0.8,0.7-1.8,0.7-2.8c0-1.1-0.3-2.1-0.8-2.9
				c-0.7-1.1-1.8-1.7-3-1.7h-8.2v-2.5h3.7c1.3,0,2.3-0.6,3-1.6c0.5-0.8,0.8-1.7,0.8-2.7c0-1-0.3-2-0.8-2.8c-0.7-1-1.7-1.5-3-1.5
				h-3.7v-2.4h8.2c1.3,0,2.3-0.6,3-1.7c0.5-0.8,0.8-1.8,0.8-2.9c0-1-0.2-2-0.7-2.8C459.9,22.7,458.8,22,457.5,22L457.5,22z"/>
		</g>
	</g>
</g>
</svg>
