<?xml version="1.0" encoding="utf-8"?>
<!-- Generator: Adobe Illustrator 19.2.1, SVG Export Plug-In . SVG Version: 6.00 Build 0)  -->
<svg version="1.1" id="Layer_1" xmlns="http://www.w3.org/2000/svg" xmlns:xlink="http://www.w3.org/1999/xlink" x="0px" y="0px"
	 viewBox="0 0 594.5 20.7" style="enable-background:new 0 0 594.5 20.7;" xml:space="preserve">
<style type="text/css">
	.st0{fill:none;stroke:#FFFFFF;stroke-width:2;stroke-linecap:round;stroke-linejoin:round;stroke-miterlimit:10;}
</style>
<path class="st0" d="M22.2,10l-3.5,1.4c-0.6,0.2-1.4,0.2-1.9,0L13.3,10c-0.6-0.2-1.4-0.2-1.9,0l-3.3,1.3c-0.6,0.2-1.4,0.2-1.9,0
	L2.8,10"/>
<path class="st0" d="M42.6,10l-3.5,1.4c-0.6,0.2-1.4,0.2-1.9,0L33.7,10c-0.6-0.2-1.4-0.2-1.9,0l-3.3,1.3c-0.6,0.2-1.4,0.2-1.9,0
	L23.2,10"/>
<path class="st0" d="M63,10l-3.5,1.4c-0.6,0.2-1.4,0.2-1.9,0L54.1,10c-0.6-0.2-1.4-0.2-1.9,0l-3.3,1.3c-0.6,0.2-1.4,0.2-1.9,0
	L43.6,10"/>
<path class="st0" d="M83.3,10l-3.5,1.4c-0.6,0.2-1.4,0.2-1.9,0L74.4,10c-0.6-0.2-1.4-0.2-1.9,0l-3.3,1.3c-0.6,0.2-1.4,0.2-1.9,0
	L64,10"/>
<path class="st0" d="M103.7,10l-3.5,1.4c-0.6,0.2-1.4,0.2-1.9,0L94.8,10c-0.6-0.2-1.4-0.2-1.9,0l-3.3,1.3c-0.6,0.2-1.4,0.2-1.9,0
	L84.3,10"/>
<path class="st0" d="M124.1,10l-3.5,1.4c-0.6,0.2-1.4,0.2-1.9,0l-3.5-1.4c-0.6-0.2-1.4-0.2-1.9,0l-3.3,1.3c-0.6,0.2-1.4,0.2-1.9,0
	l-3.4-1.3"/>
<path class="st0" d="M144.5,10l-3.5,1.4c-0.6,0.2-1.4,0.2-1.9,0l-3.5-1.4c-0.6-0.2-1.4-0.2-1.9,0l-3.3,1.3c-0.6,0.2-1.4,0.2-1.9,0
	l-3.3-1.3"/>
<path class="st0" d="M164.9,10l-3.5,1.4c-0.6,0.2-1.4,0.2-1.9,0L156,10c-0.6-0.2-1.4-0.2-1.9,0l-3.3,1.3c-0.6,0.2-1.4,0.2-1.9,0
	l-3.3-1.3"/>
<path class="st0" d="M185.3,10l-3.5,1.4c-0.6,0.2-1.4,0.2-1.9,0l-3.5-1.4c-0.6-0.2-1.4-0.2-1.9,0l-3.3,1.3c-0.6,0.2-1.4,0.2-1.9,0
	L166,10"/>
<path class="st0" d="M205.6,10l-3.5,1.4c-0.6,0.2-1.4,0.2-1.9,0l-3.5-1.4c-0.6-0.2-1.4-0.2-1.9,0l-3.3,1.3c-0.6,0.2-1.4,0.2-1.9,0
	l-3.3-1.3"/>
<path class="st0" d="M226,10l-3.5,1.4c-0.6,0.2-1.4,0.2-1.9,0l-3.5-1.4c-0.6-0.2-1.4-0.2-1.9,0l-3.3,1.3c-0.6,0.2-1.4,0.2-1.9,0
	l-3.3-1.3"/>
<path class="st0" d="M246.4,10l-3.5,1.4c-0.6,0.2-1.4,0.2-1.9,0l-3.5-1.4c-0.6-0.2-1.4-0.2-1.9,0l-3.3,1.3c-0.6,0.2-1.4,0.2-1.9,0
	l-3.3-1.3"/>
<path class="st0" d="M266.8,10l-3.5,1.4c-0.6,0.2-1.4,0.2-1.9,0l-3.5-1.4c-0.6-0.2-1.4-0.2-1.9,0l-3.3,1.3c-0.6,0.2-1.4,0.2-1.9,0
	l-3.3-1.3"/>
<path class="st0" d="M287.2,10l-3.5,1.4c-0.6,0.2-1.4,0.2-1.9,0l-3.5-1.4c-0.6-0.2-1.4-0.2-1.9,0l-3.3,1.3c-0.6,0.2-1.4,0.2-1.9,0
	l-3.3-1.3"/>
<path class="st0" d="M307.6,10l-3.5,1.4c-0.6,0.2-1.4,0.2-1.9,0l-3.5-1.4c-0.6-0.2-1.4-0.2-1.9,0l-3.3,1.3c-0.6,0.2-1.4,0.2-1.9,0
	l-3.3-1.3"/>
<path class="st0" d="M328,10l-3.5,1.4c-0.6,0.2-1.4,0.2-1.9,0l-3.5-1.4c-0.6-0.2-1.4-0.2-1.9,0l-3.3,1.3c-0.6,0.2-1.4,0.2-1.9,0
	l-3.3-1.3"/>
<path class="st0" d="M348.3,10l-3.5,1.4c-0.6,0.2-1.4,0.2-1.9,0l-3.5-1.4c-0.6-0.2-1.4-0.2-1.9,0l-3.3,1.3c-0.6,0.2-1.4,0.2-1.9,0
	L329,10"/>
<path class="st0" d="M368.7,10l-3.5,1.4c-0.6,0.2-1.4,0.2-1.9,0l-3.5-1.4c-0.6-0.2-1.4-0.2-1.9,0l-3.3,1.3c-0.6,0.2-1.4,0.2-1.9,0
	l-3.3-1.3"/>
<path class="st0" d="M389.1,10l-3.5,1.4c-0.6,0.2-1.4,0.2-1.9,0l-3.5-1.4c-0.6-0.2-1.4-0.2-1.9,0l-3.3,1.3c-0.6,0.2-1.4,0.2-1.9,0
	l-3.4-1.3"/>
<path class="st0" d="M409.5,10l-3.5,1.4c-0.6,0.2-1.4,0.2-1.9,0l-3.5-1.4c-0.6-0.2-1.4-0.2-1.9,0l-3.3,1.3c-0.6,0.2-1.4,0.2-1.9,0
	l-3.3-1.3"/>
<path class="st0" d="M429.9,10l-3.5,1.4c-0.6,0.2-1.4,0.2-1.9,0L421,10c-0.6-0.2-1.4-0.2-1.9,0l-3.3,1.3c-0.6,0.2-1.4,0.2-1.9,0
	l-3.3-1.3"/>
<path class="st0" d="M450.3,10l-3.5,1.4c-0.6,0.2-1.4,0.2-1.9,0l-3.5-1.4c-0.6-0.2-1.4-0.2-1.9,0l-3.3,1.3c-0.6,0.2-1.4,0.2-1.9,0
	L431,10"/>
<path class="st0" d="M470.6,10l-3.5,1.4c-0.6,0.2-1.4,0.2-1.9,0l-3.5-1.4c-0.6-0.2-1.4-0.2-1.9,0l-3.3,1.3c-0.6,0.2-1.4,0.2-1.9,0
	l-3.3-1.3"/>
<path class="st0" d="M491,10l-3.5,1.4c-0.6,0.2-1.4,0.2-1.9,0l-3.5-1.4c-0.6-0.2-1.4-0.2-1.9,0l-3.3,1.3c-0.6,0.2-1.4,0.2-1.9,0
	l-3.3-1.3"/>
<path class="st0" d="M510.9,10l-3.5,1.4c-0.6,0.2-1.4,0.2-1.9,0L502,10c-0.6-0.2-1.4-0.2-1.9,0l-3.3,1.3c-0.6,0.2-1.4,0.2-1.9,0
	l-3.3-1.3"/>
<path class="st0" d="M531.3,10l-3.5,1.4c-0.6,0.2-1.4,0.2-1.9,0l-3.5-1.4c-0.6-0.2-1.4-0.2-1.9,0l-3.3,1.3c-0.6,0.2-1.4,0.2-1.9,0
	L512,10"/>
<path class="st0" d="M551.7,10l-3.5,1.4c-0.6,0.2-1.4,0.2-1.9,0l-3.5-1.4c-0.6-0.2-1.4-0.2-1.9,0l-3.3,1.3c-0.6,0.2-1.4,0.2-1.9,0
	l-3.3-1.3"/>
<path class="st0" d="M572,10l-3.5,1.4c-0.6,0.2-1.4,0.2-1.9,0l-3.5-1.4c-0.6-0.2-1.4-0.2-1.9,0l-3.3,1.3c-0.6,0.2-1.4,0.2-1.9,0
	l-3.3-1.3"/>
<path class="st0" d="M592.4,10l-3.5,1.4c-0.6,0.2-1.4,0.2-1.9,0l-3.5-1.4c-0.6-0.2-1.4-0.2-1.9,0l-3.3,1.3c-0.6,0.2-1.4,0.2-1.9,0
	l-3.3-1.3"/>
</svg>
