<?xml version="1.0" encoding="utf-8"?>
<!-- Generator: Adobe Illustrator 19.2.1, SVG Export Plug-In . SVG Version: 6.00 Build 0)  -->
<svg version="1.1" id="Layer_1" xmlns="http://www.w3.org/2000/svg" xmlns:xlink="http://www.w3.org/1999/xlink" x="0px" y="0px"
	 viewBox="0 0 502 20.7" style="enable-background:new 0 0 502 20.7;" xml:space="preserve">
<style type="text/css">
	.st0{fill:none;stroke:#FFFFFF;stroke-width:2;stroke-linecap:round;stroke-linejoin:round;stroke-miterlimit:10;}
</style>
<path class="st0" d="M26.5,10L23,11.4c-0.6,0.2-1.4,0.2-1.9,0L17.6,10c-0.6-0.2-1.4-0.2-1.9,0l-3.3,1.3c-0.6,0.2-1.4,0.2-1.9,0
	L7.1,10"/>
<path class="st0" d="M46.9,10l-3.5,1.4c-0.6,0.2-1.4,0.2-1.9,0L38,10c-0.6-0.2-1.4-0.2-1.9,0l-3.3,1.3c-0.6,0.2-1.4,0.2-1.9,0
	L27.5,10"/>
<path class="st0" d="M67.3,10l-3.5,1.4c-0.6,0.2-1.4,0.2-1.9,0L58.4,10c-0.6-0.2-1.4-0.2-1.9,0l-3.3,1.3c-0.6,0.2-1.4,0.2-1.9,0
	L47.9,10"/>
<path class="st0" d="M87.6,10l-3.5,1.4c-0.6,0.2-1.4,0.2-1.9,0L78.7,10c-0.6-0.2-1.4-0.2-1.9,0l-3.3,1.3c-0.6,0.2-1.4,0.2-1.9,0
	L68.3,10"/>
<path class="st0" d="M108,10l-3.5,1.4c-0.6,0.2-1.4,0.2-1.9,0L99.1,10c-0.6-0.2-1.4-0.2-1.9,0l-3.3,1.3c-0.6,0.2-1.4,0.2-1.9,0
	L88.6,10"/>
<path class="st0" d="M128.4,10l-3.5,1.4c-0.6,0.2-1.4,0.2-1.9,0l-3.5-1.4c-0.6-0.2-1.4-0.2-1.9,0l-3.3,1.3c-0.6,0.2-1.4,0.2-1.9,0
	L109,10"/>
<path class="st0" d="M148.8,10l-3.5,1.4c-0.6,0.2-1.4,0.2-1.9,0l-3.5-1.4c-0.6-0.2-1.4-0.2-1.9,0l-3.3,1.3c-0.6,0.2-1.4,0.2-1.9,0
	l-3.3-1.3"/>
<path class="st0" d="M169.2,10l-3.5,1.4c-0.6,0.2-1.4,0.2-1.9,0l-3.5-1.4c-0.6-0.2-1.4-0.2-1.9,0l-3.3,1.3c-0.6,0.2-1.4,0.2-1.9,0
	l-3.3-1.3"/>
<path class="st0" d="M189.6,10l-3.5,1.4c-0.6,0.2-1.4,0.2-1.9,0l-3.5-1.4c-0.6-0.2-1.4-0.2-1.9,0l-3.3,1.3c-0.6,0.2-1.4,0.2-1.9,0
	l-3.3-1.3"/>
<path class="st0" d="M209.9,10l-3.5,1.4c-0.6,0.2-1.4,0.2-1.9,0l-3.5-1.4c-0.6-0.2-1.4-0.2-1.9,0l-3.3,1.3c-0.6,0.2-1.4,0.2-1.9,0
	l-3.3-1.3"/>
<path class="st0" d="M230.3,10l-3.5,1.4c-0.6,0.2-1.4,0.2-1.9,0l-3.5-1.4c-0.6-0.2-1.4-0.2-1.9,0l-3.3,1.3c-0.6,0.2-1.4,0.2-1.9,0
	l-3.3-1.3"/>
<path class="st0" d="M250.7,10l-3.5,1.4c-0.6,0.2-1.4,0.2-1.9,0l-3.5-1.4c-0.6-0.2-1.4-0.2-1.9,0l-3.3,1.3c-0.6,0.2-1.4,0.2-1.9,0
	l-3.3-1.3"/>
<path class="st0" d="M271.1,10l-3.5,1.4c-0.6,0.2-1.4,0.2-1.9,0l-3.5-1.4c-0.6-0.2-1.4-0.2-1.9,0l-3.3,1.3c-0.6,0.2-1.4,0.2-1.9,0
	l-3.3-1.3"/>
<path class="st0" d="M291.5,10l-3.5,1.4c-0.6,0.2-1.4,0.2-1.9,0l-3.5-1.4c-0.6-0.2-1.4-0.2-1.9,0l-3.3,1.3c-0.6,0.2-1.4,0.2-1.9,0
	l-3.3-1.3"/>
<path class="st0" d="M311.9,10l-3.5,1.4c-0.6,0.2-1.4,0.2-1.9,0L303,10c-0.6-0.2-1.4-0.2-1.9,0l-3.3,1.3c-0.6,0.2-1.4,0.2-1.9,0
	l-3.3-1.3"/>
<path class="st0" d="M332.3,10l-3.5,1.4c-0.6,0.2-1.4,0.2-1.9,0l-3.5-1.4c-0.6-0.2-1.4-0.2-1.9,0l-3.3,1.3c-0.6,0.2-1.4,0.2-1.9,0
	l-3.3-1.3"/>
<path class="st0" d="M352.6,10l-3.5,1.4c-0.6,0.2-1.4,0.2-1.9,0l-3.5-1.4c-0.6-0.2-1.4-0.2-1.9,0l-3.3,1.3c-0.6,0.2-1.4,0.2-1.9,0
	l-3.3-1.3"/>
<path class="st0" d="M373,10l-3.5,1.4c-0.6,0.2-1.4,0.2-1.9,0l-3.5-1.4c-0.6-0.2-1.4-0.2-1.9,0l-3.3,1.3c-0.6,0.2-1.4,0.2-1.9,0
	l-3.3-1.3"/>
<path class="st0" d="M393.4,10l-3.5,1.4c-0.6,0.2-1.4,0.2-1.9,0l-3.5-1.4c-0.6-0.2-1.4-0.2-1.9,0l-3.3,1.3c-0.6,0.2-1.4,0.2-1.9,0
	L374,10"/>
<path class="st0" d="M413.8,10l-3.5,1.4c-0.6,0.2-1.4,0.2-1.9,0l-3.5-1.4c-0.6-0.2-1.4-0.2-1.9,0l-3.3,1.3c-0.6,0.2-1.4,0.2-1.9,0
	l-3.3-1.3"/>
<path class="st0" d="M434.2,10l-3.5,1.4c-0.6,0.2-1.4,0.2-1.9,0l-3.5-1.4c-0.6-0.2-1.4-0.2-1.9,0l-3.3,1.3c-0.6,0.2-1.4,0.2-1.9,0
	l-3.3-1.3"/>
<path class="st0" d="M454.6,10l-3.5,1.4c-0.6,0.2-1.4,0.2-1.9,0l-3.5-1.4c-0.6-0.2-1.4-0.2-1.9,0l-3.3,1.3c-0.6,0.2-1.4,0.2-1.9,0
	l-3.3-1.3"/>
<path class="st0" d="M474.9,10l-3.5,1.4c-0.6,0.2-1.4,0.2-1.9,0l-3.5-1.4c-0.6-0.2-1.4-0.2-1.9,0l-3.3,1.3c-0.6,0.2-1.4,0.2-1.9,0
	l-3.3-1.3"/>
<path class="st0" d="M495.3,10l-3.5,1.4c-0.6,0.2-1.4,0.2-1.9,0l-3.5-1.4c-0.6-0.2-1.4-0.2-1.9,0l-3.3,1.3c-0.6,0.2-1.4,0.2-1.9,0
	l-3.3-1.3"/>
</svg>
